<svg id="svg" version="1.1" xmlns="http://www.w3.org/2000/svg" xmlns:xlink="http://www.w3.org/1999/xlink" width="400" height="399.20000000000005" viewBox="0, 0, 400,399.20000000000005"><g id="svgg"><path id="path0" d="M200.504 33.441 L 199.612 34.531 199.606 115.796 L 199.601 197.062 200.602 197.932 C 202.122 199.254,207.313 199.207,208.882 197.857 L 209.980 196.913 209.980 154.401 L 209.980 111.889 213.273 111.695 C 216.326 111.515,224.265 111.868,228.942 112.391 C 230.040 112.514,231.567 112.937,232.335 113.331 C 233.104 113.725,234.810 114.268,236.128 114.538 C 238.900 115.107,241.203 115.667,242.943 116.195 C 243.617 116.399,244.524 116.567,244.958 116.567 C 245.393 116.567,245.964 116.782,246.228 117.046 C 246.491 117.309,246.709 117.354,246.713 117.146 C 246.716 116.937,246.853 116.978,247.017 117.236 C 247.181 117.493,247.852 117.763,248.508 117.834 C 249.164 117.906,249.938 118.189,250.228 118.463 C 250.518 118.738,251.271 118.962,251.901 118.962 C 252.531 118.962,253.143 119.117,253.260 119.307 C 253.517 119.722,256.104 120.196,258.990 120.357 C 260.147 120.422,261.320 120.662,261.595 120.890 C 261.870 121.119,263.079 121.434,264.281 121.590 C 265.484 121.747,267.185 122.125,268.062 122.431 C 269.954 123.091,281.380 123.120,283.010 122.468 C 283.572 122.243,285.200 121.829,286.627 121.548 C 291.707 120.547,294.766 119.765,295.164 119.367 C 295.387 119.144,295.956 118.962,296.429 118.962 C 296.902 118.962,297.773 118.513,298.365 117.964 C 298.958 117.415,299.568 116.964,299.721 116.961 C 300.365 116.949,306.449 113.631,307.631 112.646 C 308.338 112.058,309.380 111.254,309.947 110.860 L 310.978 110.142 310.973 75.730 C 310.970 56.803,310.859 40.913,310.726 40.419 C 310.411 39.243,307.929 39.154,306.724 40.277 C 306.278 40.693,305.337 41.331,304.633 41.695 C 303.928 42.059,303.252 42.617,303.130 42.935 C 303.008 43.253,302.569 43.513,302.153 43.513 C 301.737 43.513,301.397 43.693,301.397 43.912 C 301.397 44.132,301.038 44.311,300.599 44.311 C 300.160 44.311,299.800 44.491,299.800 44.711 C 299.800 44.930,299.456 45.110,299.035 45.110 C 298.614 45.110,298.210 45.245,298.137 45.409 C 297.949 45.832,295.514 47.505,295.087 47.505 C 294.893 47.505,294.132 47.805,293.397 48.171 C 291.933 48.902,289.749 49.461,287.126 49.776 C 286.193 49.889,285.429 50.113,285.429 50.276 C 285.429 50.438,284.972 50.779,284.412 51.034 C 283.192 51.590,266.667 51.689,266.667 51.141 C 266.667 50.431,264.315 49.886,258.483 49.247 C 257.385 49.127,256.316 48.865,256.108 48.666 C 255.899 48.466,255.326 48.303,254.834 48.303 C 254.342 48.303,253.828 48.124,253.693 47.904 C 253.557 47.685,252.901 47.505,252.235 47.505 C 251.569 47.505,250.567 47.146,250.009 46.707 C 249.451 46.267,248.479 45.908,247.850 45.908 C 247.221 45.908,246.707 45.729,246.707 45.509 C 246.707 45.289,245.999 45.110,245.133 45.110 C 244.268 45.110,243.449 44.930,243.313 44.711 C 243.178 44.491,242.269 44.311,241.294 44.311 C 240.319 44.311,239.521 44.132,239.521 43.912 C 239.521 43.693,238.832 43.513,237.991 43.513 C 237.149 43.513,236.337 43.390,236.187 43.239 C 235.749 42.801,233.015 41.929,232.059 41.922 C 231.578 41.919,231.074 41.737,230.938 41.517 C 230.802 41.297,229.385 41.118,227.787 41.118 C 226.190 41.118,224.749 40.983,224.584 40.818 C 224.178 40.412,224.414 40.425,216.766 40.369 L 209.980 40.319 209.980 37.380 C 209.980 33.130,209.134 32.332,204.636 32.343 C 201.597 32.350,201.342 32.418,200.504 33.441 M206.970 34.158 C 208.183 34.953,208.782 36.674,208.782 39.361 C 208.782 42.029,209.197 42.288,212.697 41.802 C 215.597 41.399,226.397 42.080,227.639 42.743 C 228.021 42.947,228.936 43.114,229.674 43.114 C 230.411 43.114,231.588 43.400,232.288 43.749 C 232.989 44.098,234.498 44.540,235.643 44.731 C 236.788 44.921,238.623 45.274,239.721 45.515 C 240.818 45.756,242.302 46.052,243.018 46.174 C 243.733 46.296,244.418 46.555,244.538 46.751 C 244.659 46.946,245.160 47.106,245.652 47.106 C 246.144 47.106,246.718 47.256,246.926 47.440 C 247.571 48.009,252.120 49.501,253.211 49.501 C 253.779 49.501,254.355 49.681,254.491 49.900 C 254.627 50.120,255.615 50.299,256.687 50.299 C 257.759 50.299,258.747 50.479,258.882 50.699 C 259.018 50.918,259.733 51.098,260.470 51.098 C 261.208 51.098,262.320 51.356,262.942 51.672 C 267.633 54.058,285.779 53.900,288.403 51.452 C 288.612 51.257,289.185 51.098,289.677 51.098 C 290.169 51.098,290.683 50.918,290.818 50.699 C 290.954 50.479,291.593 50.299,292.239 50.299 C 292.885 50.299,293.413 50.120,293.413 49.900 C 293.413 49.681,293.865 49.501,294.417 49.501 C 295.470 49.501,296.667 48.948,298.004 47.843 C 298.835 47.156,300.999 45.881,303.393 44.665 C 304.162 44.275,305.419 43.407,306.188 42.737 C 306.956 42.067,307.989 41.518,308.483 41.518 L 309.381 41.517 309.375 75.349 C 309.372 93.957,309.237 109.363,309.076 109.585 C 308.779 109.993,306.448 111.631,303.828 113.274 C 302.086 114.366,299.877 115.369,299.215 115.369 C 298.946 115.369,298.416 115.713,298.036 116.132 C 297.656 116.552,296.538 117.134,295.552 117.425 C 294.566 117.716,293.419 118.271,293.004 118.658 C 292.541 119.089,291.624 119.361,290.635 119.361 C 289.748 119.361,289.022 119.541,289.022 119.760 C 289.022 119.980,288.070 120.160,286.906 120.160 C 285.743 120.160,284.604 120.346,284.375 120.575 C 283.583 121.367,262.584 120.582,261.697 119.727 C 261.488 119.526,260.489 119.361,259.476 119.361 C 258.452 119.361,256.902 119.007,255.982 118.563 C 255.074 118.124,254.110 117.764,253.840 117.764 C 253.178 117.764,250.869 117.003,248.807 116.106 C 247.876 115.701,246.846 115.369,246.517 115.369 C 245.412 115.369,239.218 113.848,238.229 113.334 C 237.848 113.136,237.196 112.974,236.781 112.974 C 236.365 112.974,235.330 112.682,234.480 112.326 C 230.820 110.792,214.573 109.591,210.180 110.530 L 208.982 110.786 208.782 153.355 C 208.554 202.162,208.960 197.610,204.828 197.599 C 202.363 197.592,201.932 197.415,201.257 196.134 C 200.589 194.865,200.599 37.535,201.267 35.687 C 202.014 33.620,204.948 32.833,206.970 34.158 M225.150 53.918 C 225.150 63.549,224.977 64.489,223.320 63.860 C 221.994 63.356,211.133 63.358,209.806 63.862 L 208.782 64.252 208.782 74.817 C 208.782 81.389,208.932 85.475,209.179 85.627 C 209.398 85.762,212.907 85.908,216.978 85.950 C 223.064 86.014,224.448 86.134,224.759 86.627 C 224.972 86.963,225.140 91.710,225.144 97.456 C 225.148 105.163,225.273 107.782,225.649 108.072 C 226.121 108.436,230.845 109.569,236.128 110.587 C 237.445 110.840,238.972 111.157,239.521 111.290 C 240.070 111.423,240.699 111.542,240.918 111.555 C 241.170 111.569,241.391 107.674,241.517 100.998 C 241.711 90.715,241.739 90.422,242.515 90.506 C 244.130 90.683,246.119 91.126,246.507 91.395 C 246.888 91.660,248.100 92.027,251.743 92.982 C 252.647 93.219,253.832 93.413,254.376 93.413 C 254.921 93.413,255.933 93.696,256.625 94.041 L 257.884 94.669 257.884 104.371 C 257.884 116.923,257.709 116.201,261.012 117.269 C 264.503 118.397,265.680 118.589,270.552 118.831 L 274.638 119.034 274.744 108.320 L 274.850 97.605 279.042 97.377 C 281.347 97.251,283.772 96.912,284.431 96.623 C 285.508 96.151,287.380 95.686,289.621 95.335 C 290.400 95.213,290.422 95.463,290.525 105.888 C 290.643 117.696,290.485 117.138,293.319 115.768 C 294.228 115.329,295.229 114.970,295.544 114.970 C 296.401 114.970,298.146 114.136,300.599 112.554 C 301.806 111.776,303.423 110.894,304.192 110.595 C 306.981 109.511,306.967 109.575,306.977 97.904 C 306.985 89.170,306.893 87.425,306.426 87.425 C 305.774 87.425,299.651 90.601,297.538 92.035 C 296.745 92.574,295.582 93.014,294.954 93.014 C 294.326 93.014,293.812 93.194,293.812 93.413 C 293.812 93.851,291.854 93.955,290.851 93.570 C 290.299 93.358,290.220 92.100,290.220 83.571 L 290.220 73.814 291.276 72.835 C 291.884 72.272,292.815 71.856,293.471 71.856 C 294.098 71.856,294.611 71.677,294.611 71.457 C 294.611 71.238,295.077 71.058,295.647 71.058 C 296.217 71.058,297.160 70.737,297.743 70.345 C 298.326 69.953,299.296 69.383,299.900 69.080 C 300.504 68.776,300.998 68.378,300.998 68.196 C 300.998 68.014,301.357 67.864,301.796 67.864 C 302.236 67.864,302.595 67.685,302.595 67.465 C 302.595 67.246,302.913 67.066,303.302 67.066 C 303.691 67.066,304.683 66.511,305.505 65.833 L 307.000 64.601 306.893 55.155 L 306.786 45.709 305.857 45.809 C 305.345 45.865,303.877 46.718,302.594 47.705 C 301.310 48.693,300.112 49.507,299.931 49.515 C 299.749 49.522,298.882 49.875,298.004 50.299 C 297.126 50.724,296.269 51.077,296.099 51.084 C 295.930 51.092,294.631 51.664,293.212 52.355 L 290.633 53.613 290.526 63.201 L 290.419 72.790 286.826 73.693 C 284.850 74.189,282.775 74.608,282.216 74.623 C 281.656 74.638,281.009 74.839,280.779 75.070 C 280.542 75.306,279.163 75.436,277.605 75.369 L 274.850 75.250 274.651 65.478 L 274.451 55.707 273.453 55.417 C 271.826 54.943,259.043 53.533,258.447 53.762 C 258.009 53.930,257.877 55.792,257.792 63.014 L 257.685 72.056 256.387 72.181 C 255.658 72.251,255.090 72.120,255.090 71.882 C 255.090 71.648,254.452 71.457,253.673 71.457 C 252.893 71.457,251.771 71.212,251.178 70.912 C 249.942 70.288,244.250 68.398,242.615 68.070 L 241.517 67.849 241.517 58.140 L 241.517 48.432 240.500 47.968 C 239.941 47.713,239.124 47.505,238.684 47.505 C 238.244 47.505,237.356 47.232,236.711 46.898 C 235.291 46.164,229.665 45.127,227.046 45.117 L 225.150 45.110 225.150 53.918 M228.144 46.307 C 228.279 46.527,229.233 46.711,230.263 46.715 C 231.505 46.721,232.472 46.987,233.134 47.505 C 233.712 47.957,234.761 48.289,235.629 48.295 C 236.452 48.299,237.126 48.483,237.126 48.703 C 237.126 48.922,237.844 49.102,238.723 49.102 L 240.319 49.102 240.319 57.861 C 240.319 65.773,240.048 68.216,239.366 66.439 C 239.235 66.097,238.967 65.917,238.771 66.038 C 238.574 66.159,238.192 65.991,237.921 65.664 C 237.649 65.337,236.820 65.070,236.079 65.070 C 235.337 65.070,234.731 64.890,234.731 64.671 C 234.731 64.451,233.956 64.271,233.009 64.271 C 232.062 64.271,230.544 63.912,229.635 63.473 C 228.726 63.034,227.705 62.675,227.365 62.675 C 226.826 62.675,226.747 61.593,226.747 54.291 C 226.747 46.001,227.013 44.478,228.144 46.307 M306.096 55.584 L 305.988 63.663 304.890 64.188 C 304.286 64.478,303.792 64.895,303.792 65.115 C 303.792 65.336,303.645 65.425,303.466 65.314 C 303.286 65.203,302.887 65.462,302.579 65.890 C 302.271 66.317,301.644 66.667,301.185 66.667 C 300.726 66.667,299.965 67.026,299.493 67.465 C 299.022 67.904,298.374 68.263,298.054 68.263 C 297.734 68.263,297.412 68.438,297.339 68.651 C 297.265 68.864,296.826 69.096,296.363 69.166 C 295.899 69.236,295.212 69.601,294.837 69.976 C 294.459 70.355,293.545 70.659,292.786 70.659 L 291.417 70.659 291.417 62.675 C 291.417 54.968,291.445 54.691,292.212 54.691 C 292.649 54.691,293.232 54.331,293.506 53.892 C 293.809 53.407,294.437 53.094,295.106 53.094 C 295.712 53.094,296.208 52.914,296.208 52.695 C 296.208 52.475,296.567 52.295,297.006 52.295 C 297.445 52.295,297.806 52.161,297.808 51.996 C 297.812 51.587,299.790 50.699,300.695 50.699 C 301.100 50.699,301.816 50.339,302.288 49.900 C 302.759 49.461,303.340 49.102,303.580 49.102 C 303.819 49.102,304.274 48.743,304.591 48.303 C 306.029 46.308,306.209 47.177,306.096 55.584 M262.894 55.056 C 263.103 55.257,264.351 55.515,265.669 55.629 C 269.127 55.928,271.058 56.323,271.058 56.730 C 271.058 56.926,271.507 57.086,272.056 57.086 L 273.054 57.086 273.054 65.170 L 273.054 73.253 269.361 73.118 C 267.330 73.044,265.498 72.819,265.289 72.619 C 265.081 72.419,264.088 72.255,263.083 72.255 C 259.503 72.255,259.481 72.197,259.481 62.852 L 259.481 54.691 260.998 54.691 C 261.832 54.691,262.686 54.855,262.894 55.056 M230.639 65.504 C 231.572 65.704,233.189 66.056,234.232 66.285 C 235.274 66.515,236.667 66.796,237.325 66.911 C 237.984 67.026,238.882 67.271,239.321 67.456 C 239.760 67.641,240.434 67.892,240.818 68.015 C 241.721 68.304,241.917 88.991,241.018 89.061 C 239.673 89.165,237.281 88.914,236.926 88.631 C 236.707 88.456,235.808 88.218,234.930 88.101 C 232.512 87.779,231.194 87.467,228.244 86.516 L 225.549 85.647 225.549 75.425 C 225.549 69.803,225.684 65.067,225.848 64.902 C 226.137 64.612,226.975 64.717,230.639 65.504 M223.553 74.790 L 223.553 84.510 221.257 84.144 C 219.995 83.944,216.941 83.836,214.471 83.906 L 209.979 84.032 209.980 74.551 L 209.980 65.070 216.766 65.070 L 223.553 65.070 223.553 74.790 M245.110 70.259 C 245.110 70.479,245.559 70.659,246.108 70.659 C 246.657 70.659,247.106 70.838,247.106 71.058 C 247.106 71.277,247.544 71.457,248.080 71.457 C 248.616 71.457,249.166 71.637,249.301 71.856 C 249.437 72.076,250.605 72.255,251.896 72.255 C 253.188 72.255,254.355 72.435,254.491 72.655 C 254.627 72.874,255.009 73.054,255.341 73.054 C 256.956 73.054,257.086 73.819,257.086 83.377 L 257.086 92.559 255.093 92.487 C 253.997 92.448,253.099 92.296,253.097 92.151 C 253.095 92.005,252.372 91.765,251.489 91.615 C 250.607 91.466,249.620 91.080,249.298 90.758 C 248.975 90.435,248.076 90.068,247.300 89.942 C 246.524 89.816,245.793 89.557,245.675 89.367 C 245.558 89.177,244.844 89.022,244.088 89.022 L 242.715 89.022 242.715 79.441 L 242.715 69.860 243.912 69.860 C 244.571 69.860,245.110 70.040,245.110 70.259 M261.480 73.502 C 263.280 74.082,266.931 74.650,270.459 74.902 C 274.405 75.182,274.252 74.744,274.246 85.805 C 274.239 97.757,274.394 97.177,271.298 96.842 C 264.734 96.132,263.630 95.968,263.088 95.626 C 262.767 95.423,261.599 95.053,260.493 94.804 L 258.483 94.351 258.376 84.208 C 258.246 71.862,258.087 72.411,261.480 73.502 M289.421 84.196 L 289.421 93.742 287.826 94.012 C 286.949 94.160,286.130 94.445,286.006 94.646 C 285.883 94.846,284.750 95.010,283.489 95.010 C 282.229 95.010,281.019 95.189,280.801 95.407 C 280.583 95.625,279.289 95.920,277.927 96.062 L 275.449 96.321 275.449 86.284 L 275.449 76.248 279.840 76.248 C 282.502 76.248,284.232 76.090,284.232 75.848 C 284.232 75.629,284.670 75.449,285.206 75.449 C 285.742 75.449,286.291 75.269,286.427 75.050 C 286.563 74.830,287.292 74.651,288.048 74.651 L 289.421 74.651 289.421 84.196 M228.822 88.224 C 229.437 88.224,229.940 88.403,229.940 88.623 C 229.940 88.842,230.918 89.022,232.112 89.022 C 233.307 89.022,234.395 89.202,234.531 89.421 C 234.667 89.641,235.575 89.820,236.551 89.820 C 237.526 89.820,238.323 90.000,238.323 90.220 C 238.323 90.439,238.772 90.619,239.321 90.619 L 240.319 90.619 240.319 100.399 L 240.319 110.180 239.122 110.180 C 238.463 110.180,237.924 110.000,237.924 109.780 C 237.924 109.561,237.216 109.381,236.351 109.381 C 235.486 109.381,234.667 109.202,234.531 108.982 C 234.395 108.762,233.486 108.583,232.511 108.583 C 231.536 108.583,230.739 108.403,230.739 108.184 C 230.739 107.964,230.379 107.784,229.940 107.784 C 229.501 107.784,229.142 107.605,229.142 107.385 C 229.142 107.166,228.603 106.986,227.944 106.986 L 226.747 106.986 226.747 97.126 C 226.747 89.457,226.853 87.372,227.226 87.745 C 227.489 88.008,228.208 88.224,228.822 88.224 M306.188 98.232 C 306.188 107.744,306.051 108.583,304.508 108.583 C 304.211 108.583,303.710 108.942,303.393 109.381 C 303.077 109.820,302.498 110.180,302.107 110.180 C 301.717 110.180,301.397 110.359,301.397 110.579 C 301.397 110.798,300.975 110.978,300.458 110.978 C 299.942 110.978,298.956 111.517,298.266 112.176 C 297.555 112.855,296.580 113.373,296.012 113.373 C 295.461 113.373,295.010 113.553,295.010 113.772 C 295.010 113.992,294.471 114.172,293.812 114.172 C 293.154 114.172,292.615 114.351,292.615 114.571 C 292.615 114.790,292.345 114.970,292.016 114.970 C 291.500 114.970,291.417 113.617,291.417 105.190 L 291.417 95.409 292.615 95.409 C 293.273 95.409,293.812 95.230,293.812 95.010 C 293.812 94.790,294.172 94.611,294.611 94.611 C 295.050 94.611,295.409 94.431,295.409 94.212 C 295.409 93.992,295.948 93.812,296.607 93.812 C 297.265 93.812,297.804 93.633,297.804 93.413 C 297.804 93.194,298.322 93.014,298.955 93.014 C 299.771 93.014,300.167 92.781,300.315 92.216 C 300.432 91.770,300.860 91.417,301.285 91.417 C 301.703 91.417,302.431 91.058,302.902 90.619 C 303.373 90.180,304.025 89.820,304.351 89.820 C 304.677 89.820,305.054 89.641,305.190 89.421 C 305.999 88.112,306.188 89.777,306.188 98.232 M262.555 97.006 C 263.719 97.006,264.671 97.179,264.671 97.391 C 264.671 97.606,266.478 97.827,268.762 97.890 L 272.854 98.004 272.961 108.084 C 273.065 117.961,273.051 118.164,272.262 118.164 C 271.819 118.164,271.457 117.984,271.457 117.764 C 271.457 117.532,270.126 117.365,268.263 117.365 C 266.401 117.365,265.070 117.199,265.070 116.966 C 265.070 116.747,264.711 116.567,264.271 116.567 C 263.832 116.567,263.473 116.387,263.473 116.168 C 263.473 115.948,262.575 115.768,261.477 115.768 L 259.481 115.768 259.481 105.908 C 259.481 98.239,259.587 96.154,259.960 96.527 C 260.224 96.790,261.391 97.006,262.555 97.006 " stroke="none" fill="#686868" fill-rule="evenodd"></path><path id="path1" d="M202.218 35.219 C 201.517 36.219,201.255 195.250,201.953 196.351 C 202.508 197.227,205.798 197.422,206.978 196.649 L 207.984 195.990 207.984 153.546 C 207.984 113.628,208.026 111.065,208.683 110.476 C 210.079 109.224,219.800 109.204,228.643 110.434 C 229.650 110.574,230.339 110.510,230.339 110.276 C 230.339 110.060,229.410 109.760,228.274 109.609 C 224.533 109.113,224.803 109.995,224.669 97.833 C 224.604 91.925,224.441 86.982,224.307 86.848 C 224.173 86.714,220.490 86.565,216.123 86.516 L 208.184 86.427 208.086 75.250 C 208.029 68.634,208.145 63.827,208.371 63.473 C 208.690 62.974,210.067 62.874,216.652 62.874 L 224.551 62.874 224.750 53.693 L 224.950 44.511 228.543 44.624 C 232.316 44.742,232.577 44.233,228.982 43.766 C 227.907 43.626,226.778 43.306,226.474 43.054 C 226.109 42.750,222.999 42.547,217.275 42.453 C 207.441 42.292,207.999 42.518,207.990 38.698 C 207.981 34.650,204.209 32.377,202.218 35.219 M306.160 43.545 C 305.407 44.221,304.229 45.011,303.542 45.300 C 302.856 45.590,301.059 46.640,299.549 47.635 C 297.062 49.273,295.947 49.752,291.417 51.130 C 290.649 51.363,289.481 51.799,288.822 52.098 C 286.052 53.356,282.015 53.894,274.850 53.961 C 269.590 54.009,268.531 54.089,270.899 54.259 C 275.730 54.606,275.449 53.922,275.449 65.318 L 275.449 75.050 276.350 75.050 C 276.845 75.050,277.878 74.861,278.645 74.630 C 279.412 74.399,281.567 73.945,283.433 73.621 C 285.299 73.297,287.545 72.902,288.423 72.743 L 290.020 72.455 290.126 62.874 C 290.240 52.575,290.379 51.963,292.615 51.896 C 292.944 51.886,293.663 51.527,294.212 51.098 C 294.760 50.668,295.526 50.313,295.914 50.308 C 296.301 50.303,296.930 50.142,297.311 49.949 C 297.692 49.756,298.670 49.314,299.483 48.966 C 300.297 48.618,301.666 47.698,302.526 46.921 C 303.385 46.144,304.345 45.509,304.659 45.509 C 304.973 45.509,305.433 45.305,305.682 45.057 C 307.186 43.553,307.386 44.724,307.376 54.977 C 307.366 66.288,307.498 65.822,303.792 67.633 C 302.585 68.223,300.519 69.340,299.202 70.114 C 297.884 70.889,295.998 71.738,295.010 72.001 C 291.136 73.031,291.417 72.134,291.417 83.447 C 291.417 90.834,291.539 93.413,291.888 93.413 C 292.646 93.413,295.097 92.567,296.607 91.783 C 297.375 91.384,299.393 90.338,301.091 89.458 C 302.789 88.578,304.703 87.470,305.345 86.996 C 307.333 85.526,307.385 85.798,307.385 97.610 C 307.385 108.948,307.179 110.579,305.748 110.579 C 305.357 110.579,304.926 110.758,304.790 110.978 C 304.655 111.198,304.240 111.377,303.869 111.378 C 303.497 111.378,302.678 111.822,302.047 112.364 C 301.416 112.907,300.563 113.457,300.151 113.588 C 299.739 113.719,299.401 113.994,299.401 114.199 C 299.401 114.403,299.129 114.571,298.797 114.571 C 298.465 114.571,297.881 114.733,297.500 114.931 C 297.118 115.129,295.998 115.520,295.010 115.799 C 294.022 116.078,293.043 116.455,292.834 116.636 C 292.626 116.818,291.952 116.966,291.337 116.966 L 290.220 116.966 290.220 106.206 L 290.220 95.446 289.122 95.988 C 287.032 97.020,284.412 97.506,279.947 97.689 L 275.462 97.873 275.356 108.517 L 275.250 119.162 270.259 119.361 L 265.269 119.561 268.064 119.885 C 269.601 120.063,271.487 120.194,272.255 120.176 C 273.024 120.158,275.719 120.141,278.244 120.139 C 283.127 120.135,290.908 118.991,292.881 117.989 C 293.503 117.673,294.731 117.111,295.609 116.740 C 296.487 116.369,297.475 115.856,297.804 115.601 C 298.134 115.345,299.122 114.892,300.000 114.594 C 300.878 114.296,303.169 112.997,305.090 111.706 L 308.583 109.361 308.583 75.838 C 308.583 39.068,308.745 41.224,306.160 43.545 M233.638 45.396 C 234.245 45.488,235.143 45.486,235.634 45.391 C 236.125 45.296,235.629 45.221,234.531 45.224 C 233.433 45.227,233.031 45.304,233.638 45.396 M236.940 45.885 C 236.732 46.222,239.038 47.098,240.150 47.104 C 242.014 47.113,242.295 48.507,242.408 58.301 L 242.515 67.665 243.713 67.779 C 244.371 67.841,245.269 68.041,245.709 68.223 C 246.148 68.405,247.495 68.871,248.703 69.258 C 249.910 69.645,251.257 70.181,251.697 70.447 C 252.136 70.714,253.618 71.048,254.990 71.189 L 257.485 71.445 257.485 62.518 C 257.485 51.885,257.140 52.546,262.283 53.318 C 266.730 53.986,267.066 54.002,267.066 53.548 C 267.066 53.359,266.059 53.085,264.828 52.941 C 263.598 52.796,262.205 52.470,261.734 52.217 C 261.264 51.964,260.160 51.598,259.281 51.405 C 255.790 50.638,254.424 50.358,252.894 50.097 C 252.016 49.947,250.731 49.572,250.039 49.263 C 249.348 48.955,248.500 48.703,248.157 48.703 C 247.610 48.703,245.782 48.020,243.912 47.119 C 243.394 46.869,241.074 46.301,238.048 45.684 C 237.568 45.586,237.069 45.677,236.940 45.885 M226.618 65.731 C 226.469 65.880,226.347 70.352,226.347 75.669 L 226.347 85.336 227.246 85.559 C 227.740 85.682,229.284 86.043,230.677 86.363 C 232.070 86.682,233.409 87.141,233.651 87.384 C 233.894 87.626,234.764 87.824,235.585 87.824 C 236.407 87.824,237.190 88.004,237.325 88.224 C 237.461 88.443,238.280 88.623,239.145 88.623 L 240.719 88.623 240.718 78.543 L 240.718 68.463 236.427 67.500 C 234.067 66.970,231.866 66.410,231.537 66.256 C 230.610 65.822,226.921 65.428,226.618 65.731 M258.683 83.500 C 258.683 94.003,258.723 94.212,260.771 94.212 C 261.393 94.212,262.570 94.510,263.386 94.875 C 264.202 95.239,266.218 95.683,267.864 95.860 C 269.511 96.038,271.442 96.299,272.156 96.440 L 273.453 96.697 273.453 86.305 L 273.453 75.912 270.758 75.665 C 269.276 75.530,267.435 75.255,266.667 75.054 C 265.898 74.854,264.461 74.586,263.473 74.458 C 262.485 74.331,261.003 74.119,260.180 73.987 L 258.683 73.747 258.683 83.500 M242.503 91.363 C 242.400 91.466,242.315 95.989,242.315 101.415 C 242.315 112.248,242.248 112.561,240.022 111.985 C 239.417 111.828,238.024 111.611,236.926 111.502 C 232.333 111.046,237.683 112.976,246.089 114.809 C 247.835 115.189,249.722 115.740,250.281 116.031 C 250.840 116.323,251.582 116.563,251.929 116.564 C 252.277 116.566,252.696 116.701,252.861 116.866 C 253.938 117.944,265.070 119.855,265.070 118.962 C 265.070 118.743,264.306 118.561,263.373 118.559 C 262.419 118.557,260.759 118.128,259.581 117.579 L 257.485 116.604 257.485 105.835 L 257.485 95.067 255.389 94.493 C 254.237 94.178,251.790 93.592,249.952 93.191 C 248.115 92.790,246.400 92.251,246.142 91.993 C 245.662 91.513,242.841 91.025,242.503 91.363 M230.772 110.727 C 231.239 111.144,234.731 111.387,234.731 111.003 C 234.731 110.758,233.856 110.579,232.668 110.579 C 231.534 110.579,230.680 110.646,230.772 110.727 " stroke="none" fill="#040404" fill-rule="evenodd"></path><path id="path2" d="M200.994 115.968 C 200.994 159.222,201.041 176.975,201.098 155.421 C 201.155 133.867,201.155 98.477,201.098 76.778 C 201.041 55.079,200.994 72.715,200.994 115.968 M307.158 55.090 C 307.158 60.250,307.215 62.360,307.284 59.780 C 307.354 57.201,307.354 52.979,307.284 50.399 C 307.215 47.819,307.158 49.930,307.158 55.090 M241.685 58.882 C 241.684 63.273,241.743 65.124,241.814 62.995 C 241.886 60.866,241.886 57.273,241.815 55.011 C 241.744 52.749,241.685 54.491,241.685 58.882 M225.815 65.336 C 225.446 65.705,225.478 85.338,225.848 85.567 C 226.013 85.669,226.148 81.099,226.148 75.411 C 226.148 69.723,226.133 65.070,226.114 65.070 C 226.096 65.070,225.961 65.190,225.815 65.336 M268.862 75.288 C 270.700 75.587,273.763 75.626,273.592 75.349 C 273.490 75.185,272.204 75.074,270.735 75.104 C 269.266 75.134,268.423 75.217,268.862 75.288 M214.870 86.119 C 215.694 86.205,217.041 86.205,217.864 86.119 C 218.688 86.033,218.014 85.963,216.367 85.963 C 214.721 85.963,214.047 86.033,214.870 86.119 M307.161 98.004 C 307.161 103.932,307.216 106.413,307.284 103.517 C 307.352 100.621,307.353 95.771,307.285 92.738 C 307.217 89.706,307.161 92.076,307.161 98.004 M241.690 101.198 C 241.690 106.687,241.746 108.988,241.815 106.311 C 241.884 103.634,241.884 99.143,241.815 96.331 C 241.747 93.518,241.690 95.709,241.690 101.198 M269.162 119.253 C 269.985 119.339,271.332 119.339,272.156 119.253 C 272.979 119.167,272.305 119.096,270.659 119.096 C 269.012 119.096,268.338 119.167,269.162 119.253 M272.555 120.841 C 273.049 120.936,273.857 120.936,274.351 120.841 C 274.845 120.745,274.441 120.668,273.453 120.668 C 272.465 120.668,272.061 120.745,272.555 120.841 M277.345 120.841 C 277.839 120.936,278.648 120.936,279.142 120.841 C 279.636 120.745,279.232 120.668,278.244 120.668 C 277.255 120.668,276.851 120.745,277.345 120.841 " stroke="none" fill="#3c3c3c" fill-rule="evenodd"></path><path id="path3" d="M203.393 33.735 C 204.306 34.053,206.715 34.140,206.535 33.849 C 206.428 33.675,205.587 33.547,204.667 33.564 C 203.747 33.582,203.174 33.659,203.393 33.735 M208.507 38.922 C 208.509 40.240,208.584 40.730,208.673 40.013 C 208.761 39.295,208.760 38.217,208.668 37.618 C 208.577 37.018,208.505 37.605,208.507 38.922 M214.870 41.808 C 215.694 41.894,217.041 41.894,217.864 41.808 C 218.688 41.722,218.014 41.651,216.367 41.651 C 214.721 41.651,214.047 41.722,214.870 41.808 M308.883 63.373 C 308.938 75.394,309.031 90.709,309.088 97.405 C 309.146 104.102,309.236 94.266,309.287 75.549 C 309.339 56.831,309.247 41.517,309.082 41.517 C 308.917 41.517,308.828 51.352,308.883 63.373 M220.858 42.191 C 221.243 42.292,221.871 42.292,222.255 42.191 C 222.640 42.091,222.325 42.009,221.557 42.009 C 220.788 42.009,220.474 42.091,220.858 42.191 M229.142 43.270 C 229.142 43.355,229.758 43.498,230.511 43.585 C 231.264 43.673,231.792 43.603,231.685 43.430 C 231.492 43.117,229.142 42.969,229.142 43.270 M225.848 44.992 C 226.342 45.087,227.151 45.087,227.645 44.992 C 228.139 44.897,227.735 44.819,226.747 44.819 C 225.758 44.819,225.354 44.897,225.848 44.992 M224.921 54.291 C 224.921 59.232,224.978 61.252,225.049 58.782 C 225.119 56.312,225.119 52.270,225.049 49.800 C 224.978 47.330,224.921 49.351,224.921 54.291 M270.359 54.966 C 270.744 55.066,271.372 55.066,271.756 54.966 C 272.141 54.865,271.826 54.783,271.058 54.783 C 270.289 54.783,269.975 54.865,270.359 54.966 M274.733 65.545 C 274.688 70.747,274.785 75.086,274.950 75.189 C 275.115 75.291,275.203 72.562,275.146 69.124 C 274.951 57.293,274.815 56.110,274.733 65.545 M214.086 63.369 C 215.357 63.449,217.333 63.448,218.478 63.368 C 219.622 63.287,218.583 63.222,216.168 63.223 C 213.752 63.224,212.816 63.290,214.086 63.369 M208.476 74.901 C 208.391 84.426,208.444 85.379,209.082 85.879 C 209.699 86.363,209.723 86.353,209.288 85.796 C 208.934 85.342,208.764 82.259,208.682 74.818 L 208.569 64.471 208.476 74.901 M225.793 64.998 C 225.682 65.177,226.121 65.247,226.768 65.152 C 227.415 65.057,227.944 64.910,227.944 64.825 C 227.944 64.521,225.991 64.678,225.793 64.998 M238.124 67.465 C 239.223 67.937,239.613 67.937,239.321 67.465 C 239.186 67.246,238.681 67.078,238.200 67.094 C 237.357 67.121,237.354 67.134,238.124 67.465 M241.117 78.562 L 241.316 89.222 241.424 78.869 C 241.483 73.175,241.393 68.379,241.224 68.210 C 241.056 68.041,241.008 72.700,241.117 78.562 M290.633 73.427 C 290.092 74.437,290.067 93.413,290.606 93.413 C 290.842 93.413,291.036 89.378,291.105 83.034 C 291.167 77.325,291.179 72.654,291.132 72.654 C 291.085 72.655,290.860 73.002,290.633 73.427 M274.025 86.028 C 274.025 91.517,274.081 93.818,274.150 91.141 C 274.219 88.464,274.219 83.973,274.151 81.161 C 274.082 78.349,274.026 80.539,274.025 86.028 M211.482 86.111 C 211.978 86.206,212.697 86.203,213.079 86.103 C 213.460 86.003,213.054 85.925,212.176 85.929 C 211.297 85.933,210.985 86.015,211.482 86.111 M219.865 86.111 C 220.362 86.206,221.080 86.203,221.462 86.103 C 221.843 86.003,221.437 85.925,220.559 85.929 C 219.681 85.933,219.368 86.015,219.865 86.111 M229.541 87.005 C 229.870 87.229,230.664 87.416,231.304 87.419 C 232.838 87.427,232.519 87.196,230.539 86.864 C 229.395 86.673,229.112 86.713,229.541 87.005 M224.843 97.257 C 224.759 106.781,224.811 107.734,225.449 108.235 C 226.066 108.718,226.090 108.709,225.656 108.151 C 225.302 107.697,225.132 104.614,225.050 97.173 L 224.936 86.826 224.843 97.257 M246.119 91.557 C 246.552 91.854,247.445 92.208,248.104 92.345 C 249.245 92.582,249.255 92.573,248.303 92.164 C 247.754 91.928,246.993 91.573,246.612 91.376 C 245.556 90.830,245.231 90.949,246.119 91.557 M250.898 93.014 C 251.337 93.203,251.966 93.357,252.295 93.357 C 252.673 93.357,252.599 93.230,252.096 93.014 C 251.657 92.825,251.028 92.671,250.699 92.671 C 250.321 92.671,250.395 92.798,250.898 93.014 M253.925 93.557 C 254.396 93.962,256.330 94.204,256.098 93.828 C 255.957 93.600,255.373 93.413,254.800 93.413 C 254.228 93.413,253.834 93.478,253.925 93.557 M263.074 95.609 C 263.623 95.923,264.341 96.179,264.671 96.178 C 265.000 96.177,264.665 95.914,263.926 95.593 C 262.226 94.855,261.770 94.863,263.074 95.609 M285.429 96.202 C 285.021 96.462,285.340 96.506,286.427 96.339 C 288.400 96.037,288.736 95.806,287.192 95.814 C 286.552 95.818,285.758 95.992,285.429 96.202 M274.831 97.911 C 274.724 98.189,274.685 102.995,274.744 108.590 L 274.852 118.762 275.051 108.084 C 275.160 102.210,275.199 97.405,275.137 97.405 C 275.075 97.405,274.937 97.633,274.831 97.911 M214.271 110.075 C 215.424 110.155,217.310 110.155,218.463 110.075 C 219.616 109.994,218.673 109.928,216.367 109.928 C 214.062 109.928,213.119 109.994,214.271 110.075 M222.056 110.455 C 222.440 110.555,223.069 110.555,223.453 110.455 C 223.837 110.354,223.523 110.272,222.754 110.272 C 221.986 110.272,221.672 110.354,222.056 110.455 M208.576 153.293 C 208.576 176.457,208.624 185.933,208.683 174.351 C 208.741 162.769,208.741 143.817,208.683 132.236 C 208.624 120.654,208.576 130.130,208.576 153.293 M256.876 118.946 C 257.017 119.174,257.601 119.361,258.174 119.361 C 259.425 119.361,259.280 119.170,257.751 118.803 C 257.009 118.624,256.708 118.674,256.876 118.946 M261.691 119.784 C 261.819 119.991,262.571 120.160,263.364 120.160 C 265.130 120.160,264.970 119.950,262.965 119.641 C 262.067 119.502,261.553 119.560,261.691 119.784 M287.625 119.760 L 286.427 120.065 287.725 120.112 C 288.438 120.138,289.022 119.980,289.022 119.760 C 289.022 119.541,288.977 119.383,288.922 119.409 C 288.867 119.434,288.283 119.593,287.625 119.760 M267.148 120.618 C 267.432 120.798,268.653 120.934,269.860 120.920 C 272.513 120.890,272.098 120.679,268.945 120.455 C 267.654 120.363,266.860 120.435,267.148 120.618 M281.836 120.559 L 279.641 120.828 281.913 120.893 C 283.162 120.929,284.295 120.778,284.431 120.559 C 284.567 120.339,284.533 120.189,284.355 120.225 C 284.177 120.261,283.044 120.411,281.836 120.559 " stroke="none" fill="#444444" fill-rule="evenodd"></path><path id="path4" d="M204.886 34.303 C 206.065 34.467,207.001 34.861,207.368 35.347 C 207.693 35.777,207.964 35.913,207.971 35.651 C 207.994 34.795,206.247 33.931,204.602 33.985 L 202.994 34.039 204.886 34.303 M201.735 34.947 C 201.375 35.884,201.763 35.994,202.314 35.112 C 202.622 34.618,202.649 34.331,202.386 34.331 C 202.158 34.331,201.865 34.609,201.735 34.947 M201.393 115.968 C 201.393 159.880,201.440 177.785,201.497 155.757 C 201.554 133.728,201.554 97.800,201.497 75.916 C 201.440 54.033,201.393 72.056,201.393 115.968 M208.060 38.790 C 207.978 41.226,208.230 42.315,208.874 42.315 C 209.138 42.315,209.131 42.136,208.854 41.803 C 208.620 41.521,208.362 40.218,208.282 38.908 L 208.135 36.527 208.060 38.790 M307.380 42.154 L 306.387 42.721 307.485 42.475 L 308.583 42.229 308.583 75.782 L 308.583 109.336 307.709 109.948 C 306.611 110.717,306.384 110.513,307.007 109.316 C 307.483 108.400,307.475 108.401,306.540 109.381 C 305.859 110.096,305.742 110.418,306.127 110.516 C 306.633 110.644,303.660 112.864,301.412 114.037 C 300.855 114.328,300.628 114.567,300.907 114.568 C 301.463 114.571,303.638 113.227,306.886 110.874 L 308.982 109.356 308.982 75.660 C 308.982 40.716,309.006 41.225,307.380 42.154 M215.070 42.205 C 215.783 42.294,216.951 42.294,217.665 42.205 C 218.378 42.116,217.794 42.044,216.367 42.044 C 214.940 42.044,214.356 42.116,215.070 42.205 M222.662 42.605 C 223.379 42.694,224.457 42.692,225.057 42.601 C 225.657 42.510,225.070 42.437,223.752 42.439 C 222.435 42.441,221.944 42.516,222.662 42.605 M226.563 43.065 C 226.791 43.307,227.869 43.591,228.958 43.696 C 230.566 43.852,230.675 43.828,229.541 43.570 C 228.772 43.395,227.695 43.111,227.146 42.938 C 226.425 42.712,226.263 42.747,226.563 43.065 M305.508 43.714 C 305.036 44.045,303.424 44.965,301.926 45.760 C 300.428 46.554,298.717 47.612,298.125 48.109 C 297.533 48.607,296.007 49.327,294.732 49.709 C 290.518 50.973,289.234 51.423,288.024 52.060 C 287.365 52.406,287.101 52.691,287.436 52.692 C 287.772 52.694,288.400 52.459,288.833 52.171 C 289.266 51.884,290.429 51.409,291.417 51.116 C 295.928 49.779,296.974 49.331,299.549 47.635 C 301.059 46.640,302.856 45.580,303.542 45.279 C 304.742 44.754,307.010 43.141,306.576 43.123 C 306.460 43.118,305.979 43.384,305.508 43.714 M231.537 44.311 C 231.983 44.600,231.729 44.713,230.539 44.757 L 228.942 44.816 230.339 45.086 C 231.108 45.235,232.814 45.312,234.132 45.258 C 236.251 45.170,236.343 45.196,234.930 45.477 C 233.479 45.766,233.443 45.801,234.531 45.866 C 235.190 45.905,236.178 46.193,236.727 46.507 C 237.275 46.821,238.084 47.068,238.523 47.056 C 238.993 47.043,238.775 46.876,237.992 46.651 C 236.946 46.350,236.756 46.154,237.104 45.735 C 237.681 45.039,236.853 44.711,234.522 44.711 C 233.565 44.711,232.671 44.531,232.535 44.311 C 232.399 44.092,231.984 43.915,231.613 43.918 C 231.031 43.924,231.021 43.978,231.537 44.311 M225.007 44.618 C 224.903 44.787,225.521 44.858,226.381 44.776 C 227.241 44.694,227.944 44.556,227.944 44.469 C 227.944 44.172,225.197 44.311,225.007 44.618 M305.564 45.149 C 305.371 45.463,305.434 45.529,305.744 45.337 C 306.007 45.174,306.513 45.281,306.869 45.574 C 307.416 46.026,307.485 46.016,307.317 45.509 C 307.065 44.745,305.955 44.518,305.564 45.149 M237.957 45.652 C 238.049 45.731,238.842 45.905,239.721 46.040 C 240.808 46.207,241.126 46.163,240.719 45.903 C 240.173 45.555,237.570 45.319,237.957 45.652 M302.769 46.773 L 301.597 48.037 303.194 46.889 C 304.072 46.257,304.865 45.689,304.957 45.625 C 305.048 45.561,304.857 45.509,304.532 45.509 C 304.208 45.509,303.414 46.078,302.769 46.773 M242.315 46.568 C 243.155 46.844,244.265 47.288,246.022 48.048 C 246.852 48.408,247.751 48.696,248.018 48.688 C 248.285 48.680,247.273 48.141,245.769 47.491 C 244.265 46.840,242.738 46.322,242.376 46.339 C 241.837 46.365,241.826 46.407,242.315 46.568 M240.619 47.900 L 241.916 48.691 241.916 58.054 C 241.916 63.204,242.051 67.501,242.216 67.603 C 242.380 67.705,242.464 63.544,242.401 58.356 C 242.279 48.284,242.021 47.102,239.950 47.107 C 239.601 47.108,239.899 47.461,240.619 47.900 M300.000 48.730 C 299.341 49.152,299.007 49.498,299.257 49.499 C 299.507 49.500,300.136 49.148,300.654 48.716 C 301.841 47.727,301.556 47.733,300.000 48.730 M249.925 49.241 C 251.111 49.860,254.778 50.453,253.871 49.879 C 253.554 49.678,252.720 49.510,252.020 49.507 C 251.319 49.504,250.635 49.321,250.499 49.102 C 250.363 48.882,249.949 48.704,249.577 48.705 C 249.115 48.707,249.224 48.876,249.925 49.241 M256.088 50.707 C 256.966 50.904,258.313 51.158,259.082 51.270 L 260.479 51.475 259.082 51.051 C 258.313 50.818,256.966 50.565,256.088 50.488 L 254.491 50.348 256.088 50.707 M294.212 51.098 C 292.937 52.095,293.261 52.100,295.238 51.114 C 296.305 50.581,296.551 50.329,296.008 50.324 C 295.569 50.320,294.760 50.668,294.212 51.098 M261.477 52.096 C 262.026 52.410,262.745 52.666,263.074 52.666 C 263.420 52.666,263.251 52.426,262.675 52.096 C 262.126 51.782,261.407 51.525,261.078 51.525 C 260.732 51.525,260.900 51.766,261.477 52.096 M291.110 52.611 C 290.208 53.305,290.205 53.353,290.320 62.483 L 290.435 71.657 290.527 62.448 L 290.619 53.239 291.916 52.593 C 292.630 52.238,292.944 51.940,292.615 51.931 C 292.285 51.921,291.608 52.228,291.110 52.611 M257.964 53.174 C 257.620 53.518,257.485 56.164,257.485 62.558 L 257.485 71.464 255.190 71.275 L 252.894 71.086 254.890 71.463 C 258.045 72.060,257.884 72.539,257.884 62.549 C 257.884 53.679,257.891 53.612,258.782 53.182 C 259.375 52.896,259.470 52.739,259.062 52.722 C 258.722 52.707,258.228 52.910,257.964 53.174 M265.768 52.972 C 267.256 53.167,267.500 53.775,266.168 53.964 C 265.674 54.034,269.132 54.029,273.852 53.951 C 279.669 53.856,283.078 53.628,284.431 53.245 C 285.964 52.809,286.057 52.747,284.830 52.973 C 282.998 53.312,268.958 53.347,266.267 53.020 C 265.279 52.899,265.055 52.878,265.768 52.972 M263.174 53.768 C 263.558 53.869,264.187 53.869,264.571 53.768 C 264.955 53.668,264.641 53.586,263.872 53.586 C 263.104 53.586,262.789 53.668,263.174 53.768 M271.058 54.682 C 275.405 55.125,275.050 54.179,275.050 65.325 C 275.050 76.472,274.854 75.934,278.610 75.078 C 279.835 74.799,281.467 74.430,282.236 74.258 C 283.623 73.946,283.624 73.944,282.435 73.903 C 281.776 73.880,280.356 74.128,279.278 74.455 C 278.200 74.782,276.898 75.050,276.384 75.050 L 275.449 75.050 275.449 65.292 C 275.449 53.824,275.617 54.245,271.069 54.354 L 268.463 54.417 271.058 54.682 M214.086 62.970 C 215.357 63.050,217.333 63.049,218.478 62.968 C 219.622 62.888,218.583 62.823,216.168 62.824 C 213.752 62.825,212.816 62.891,214.086 62.970 M223.154 63.072 L 221.756 63.307 223.071 63.523 C 223.795 63.642,224.486 63.577,224.608 63.380 C 224.931 62.857,224.711 62.811,223.154 63.072 M208.179 63.972 C 208.058 64.466,208.010 69.721,208.072 75.649 L 208.184 86.427 211.976 86.460 L 215.768 86.492 212.176 86.260 L 208.583 86.028 208.476 75.298 C 208.365 64.090,208.421 63.680,210.109 63.352 C 210.707 63.235,210.575 63.166,209.688 63.128 C 208.659 63.085,208.354 63.255,208.179 63.972 M306.257 65.522 C 305.746 66.151,305.501 66.667,305.712 66.667 C 306.103 66.667,307.557 64.694,307.317 64.489 C 307.245 64.427,306.768 64.892,306.257 65.522 M226.128 65.576 C 226.021 65.855,225.982 70.453,226.041 75.793 L 226.148 85.504 227.745 86.059 C 228.623 86.365,229.701 86.596,230.140 86.574 C 230.989 86.530,230.541 86.364,227.645 85.649 L 226.347 85.329 226.347 75.586 C 226.347 65.855,226.348 65.842,227.246 65.482 L 228.144 65.120 227.233 65.095 C 226.732 65.081,226.235 65.298,226.128 65.576 M229.741 65.880 C 230.619 66.050,231.786 66.307,232.335 66.450 C 232.972 66.616,232.847 66.486,231.990 66.090 C 231.251 65.748,230.084 65.492,229.395 65.519 C 228.228 65.566,228.252 65.590,229.741 65.880 M234.731 67.066 C 236.095 67.503,237.145 67.503,236.128 67.066 C 235.689 66.877,234.970 66.728,234.531 66.735 C 233.889 66.744,233.928 66.809,234.731 67.066 M239.820 68.152 L 240.719 68.317 240.719 78.446 L 240.719 88.575 239.318 88.740 L 237.917 88.906 239.418 88.864 L 240.918 88.822 240.918 78.443 L 240.918 68.064 239.920 68.025 C 239.052 67.992,239.039 68.008,239.820 68.152 M301.607 68.247 C 301.477 68.458,300.295 69.203,298.981 69.904 C 297.667 70.604,296.658 71.242,296.739 71.323 C 296.920 71.504,300.464 69.573,301.750 68.591 C 302.274 68.191,302.509 67.864,302.273 67.864 C 302.037 67.864,301.737 68.037,301.607 68.247 M246.341 68.806 C 246.432 68.885,247.046 69.070,247.705 69.217 C 248.579 69.413,248.741 69.376,248.303 69.080 C 247.764 68.715,245.940 68.461,246.341 68.806 M249.135 69.619 C 249.474 69.940,252.295 71.010,252.295 70.818 C 252.295 70.708,251.672 70.358,250.911 70.040 C 249.570 69.479,248.794 69.295,249.135 69.619 M291.879 72.788 C 290.574 74.176,290.702 93.549,292.016 93.684 C 292.637 93.748,292.659 93.721,292.116 93.561 C 291.475 93.372,291.417 92.538,291.417 83.450 L 291.417 73.545 292.345 72.937 C 292.855 72.603,293.708 72.247,294.241 72.147 C 295.070 71.991,295.033 71.957,293.982 71.911 C 293.162 71.874,292.463 72.166,291.879 72.788 M286.627 73.059 C 286.205 73.336,286.442 73.376,287.425 73.196 C 289.147 72.880,289.472 72.653,288.190 72.661 C 287.660 72.664,286.956 72.844,286.627 73.059 M258.550 73.719 C 258.403 73.866,258.283 78.344,258.283 83.671 C 258.283 94.390,258.331 94.597,260.807 94.625 C 261.505 94.633,262.525 94.896,263.074 95.210 C 263.623 95.523,264.341 95.772,264.671 95.762 C 265.787 95.728,262.084 94.233,260.858 94.222 C 258.711 94.204,258.683 94.066,258.683 83.499 L 258.683 73.744 260.579 73.972 C 261.812 74.121,262.196 74.080,261.677 73.855 C 260.703 73.433,258.913 73.356,258.550 73.719 M263.373 74.533 C 263.867 74.628,264.676 74.628,265.170 74.533 C 265.664 74.438,265.259 74.360,264.271 74.360 C 263.283 74.360,262.879 74.438,263.373 74.533 M272.255 75.674 L 273.453 75.899 273.453 86.224 C 273.453 95.712,273.397 96.565,272.754 96.754 C 272.212 96.914,272.234 96.942,272.854 96.878 C 273.631 96.798,273.653 96.502,273.653 86.222 L 273.653 75.649 272.355 75.549 C 271.076 75.451,271.075 75.452,272.255 75.674 M218.463 86.521 C 219.506 86.603,221.213 86.603,222.255 86.521 C 223.298 86.439,222.445 86.371,220.359 86.371 C 218.273 86.371,217.420 86.439,218.463 86.521 M305.531 86.913 C 305.103 87.304,304.985 87.469,305.268 87.278 C 305.552 87.088,306.155 87.029,306.607 87.147 C 307.110 87.279,307.373 87.190,307.283 86.920 C 307.034 86.170,306.345 86.168,305.531 86.913 M231.737 86.911 C 232.176 87.017,232.706 87.266,232.914 87.464 C 233.123 87.662,233.482 87.819,233.713 87.812 C 233.943 87.805,233.783 87.535,233.357 87.213 C 232.931 86.890,232.212 86.648,231.760 86.673 C 230.958 86.718,230.958 86.724,231.737 86.911 M234.331 87.982 C 234.331 88.069,235.035 88.207,235.895 88.289 C 236.754 88.371,237.372 88.300,237.268 88.131 C 237.078 87.824,234.331 87.685,234.331 87.982 M242.151 90.916 C 242.022 91.045,241.913 95.567,241.910 100.965 C 241.903 111.732,241.849 112.017,239.861 111.635 C 238.916 111.454,238.699 111.494,239.122 111.771 C 241.904 113.595,242.288 112.356,242.408 101.167 L 242.515 91.220 244.112 91.356 C 244.990 91.430,245.619 91.410,245.509 91.311 C 245.160 90.996,242.396 90.671,242.151 90.916 M297.804 91.218 C 297.531 91.547,297.071 91.816,296.781 91.816 C 296.492 91.816,296.154 91.979,296.031 92.178 C 295.625 92.835,297.339 92.152,298.040 91.377 C 298.418 90.960,298.631 90.619,298.514 90.619 C 298.397 90.619,298.078 90.888,297.804 91.218 M245.908 91.827 C 245.908 92.174,247.458 92.795,247.706 92.547 C 247.783 92.470,247.410 92.201,246.877 91.950 C 246.344 91.698,245.908 91.643,245.908 91.827 M255.589 94.450 L 257.485 95.056 257.485 105.830 L 257.485 116.604 259.581 117.579 C 260.734 118.116,262.305 118.537,263.074 118.515 L 264.471 118.475 262.874 118.157 C 261.996 117.982,260.514 117.533,259.581 117.160 L 257.884 116.480 257.884 105.759 C 257.884 93.838,258.058 94.566,255.090 94.075 C 254.022 93.898,254.140 93.986,255.589 94.450 M289.022 95.808 C 288.693 96.021,287.974 96.206,287.425 96.219 C 286.876 96.233,285.888 96.508,285.230 96.830 C 284.571 97.153,284.391 97.312,284.830 97.183 C 285.269 97.055,286.408 96.803,287.360 96.623 C 288.312 96.444,289.291 96.098,289.536 95.853 C 290.080 95.309,289.829 95.287,289.022 95.808 M267.099 95.954 C 267.191 96.034,268.253 96.207,269.461 96.339 C 270.895 96.495,271.380 96.455,270.858 96.221 C 270.103 95.884,266.746 95.645,267.099 95.954 M290.394 106.387 C 290.394 112.315,290.450 114.796,290.518 111.900 C 290.586 109.004,290.586 104.154,290.518 101.122 C 290.450 98.090,290.395 100.459,290.394 106.387 M275.316 97.671 C 275.170 97.818,275.050 102.653,275.050 108.417 C 275.050 115.175,274.905 118.968,274.641 119.098 C 274.416 119.210,274.461 119.255,274.741 119.198 C 275.134 119.119,275.274 116.693,275.356 108.463 L 275.462 97.831 279.747 97.703 L 284.032 97.575 279.807 97.490 C 277.483 97.443,275.462 97.525,275.316 97.671 M224.757 108.070 C 224.748 108.781,225.887 109.273,228.144 109.530 L 230.140 109.759 227.796 109.217 C 226.508 108.919,225.298 108.429,225.108 108.130 C 224.869 107.753,224.761 107.734,224.757 108.070 M214.483 109.675 C 215.533 109.758,217.149 109.757,218.076 109.673 C 219.002 109.589,218.144 109.522,216.168 109.523 C 214.192 109.524,213.434 109.593,214.483 109.675 M208.643 110.512 C 208.033 111.186,207.989 114.607,208.084 153.526 L 208.187 195.808 208.285 153.442 C 208.389 108.671,208.308 110.529,210.180 110.069 C 210.948 109.880,210.946 109.871,210.142 109.827 C 209.682 109.801,209.007 110.110,208.643 110.512 M222.455 110.056 C 222.839 110.156,223.468 110.156,223.852 110.056 C 224.237 109.955,223.922 109.873,223.154 109.873 C 222.385 109.873,222.071 109.955,222.455 110.056 M230.339 110.205 C 230.339 110.410,229.935 110.600,229.441 110.626 C 228.127 110.695,230.565 111.284,232.136 111.277 C 233.290 111.272,233.283 111.262,231.936 110.978 L 230.539 110.684 232.102 110.631 C 233.968 110.569,233.878 110.377,231.836 110.062 C 231.007 109.934,230.339 109.998,230.339 110.205 M225.654 110.466 C 226.261 110.558,227.159 110.555,227.650 110.461 C 228.141 110.366,227.645 110.291,226.547 110.294 C 225.449 110.297,225.047 110.374,225.654 110.466 M234.731 110.935 C 234.731 111.178,234.416 111.384,234.032 111.393 C 233.640 111.402,233.923 111.665,234.677 111.992 C 235.415 112.312,236.224 112.563,236.473 112.550 C 236.722 112.536,236.477 112.326,235.928 112.083 L 234.930 111.642 236.327 111.362 C 237.172 111.194,237.382 111.062,236.859 111.031 C 236.383 111.002,235.709 110.869,235.362 110.736 C 235.015 110.602,234.731 110.692,234.731 110.935 M299.800 113.391 C 298.717 114.093,298.281 114.559,298.703 114.563 C 299.087 114.567,299.401 114.413,299.401 114.220 C 299.401 114.027,299.940 113.646,300.599 113.373 C 301.257 113.100,301.796 112.719,301.796 112.526 C 301.796 112.076,301.895 112.034,299.800 113.391 M238.269 113.152 C 239.008 113.493,239.996 113.754,240.465 113.732 C 241.108 113.701,241.024 113.610,240.120 113.363 C 237.228 112.571,236.941 112.538,238.269 113.152 M242.814 114.447 C 243.199 114.547,243.827 114.547,244.212 114.447 C 244.596 114.346,244.281 114.264,243.513 114.264 C 242.745 114.264,242.430 114.346,242.814 114.447 M245.509 114.965 C 245.838 115.180,246.542 115.360,247.073 115.363 C 248.354 115.371,248.029 115.144,246.307 114.828 C 245.324 114.648,245.088 114.688,245.509 114.965 M297.461 115.782 C 296.942 116.214,296.707 116.567,296.938 116.567 C 297.169 116.567,297.477 116.375,297.622 116.140 C 297.767 115.905,298.272 115.557,298.743 115.367 C 299.240 115.166,299.349 115.016,299.002 115.009 C 298.673 115.002,297.979 115.350,297.461 115.782 M249.247 115.971 C 249.876 116.299,250.595 116.566,250.844 116.564 C 251.093 116.563,250.783 116.294,250.154 115.966 C 249.525 115.638,248.807 115.370,248.557 115.372 C 248.308 115.373,248.618 115.643,249.247 115.971 M295.010 116.947 C 294.681 117.130,293.894 117.486,293.262 117.737 C 292.630 117.988,292.228 118.310,292.370 118.451 C 292.512 118.593,292.841 118.497,293.100 118.237 C 293.360 117.977,293.851 117.759,294.192 117.752 C 294.532 117.745,295.159 117.475,295.585 117.153 C 296.409 116.530,296.014 116.388,295.010 116.947 M265.070 118.972 C 265.070 119.186,264.501 119.361,263.806 119.361 C 263.110 119.361,262.650 119.470,262.783 119.603 C 262.916 119.736,264.125 119.717,265.469 119.561 C 266.813 119.405,267.857 119.232,267.789 119.177 C 267.349 118.822,265.070 118.650,265.070 118.972 M260.379 119.237 C 260.763 119.338,261.392 119.338,261.776 119.237 C 262.161 119.137,261.846 119.055,261.078 119.055 C 260.309 119.055,259.995 119.137,260.379 119.237 M286.327 119.636 C 286.712 119.737,287.340 119.737,287.725 119.636 C 288.109 119.536,287.794 119.454,287.026 119.454 C 286.257 119.454,285.943 119.536,286.327 119.636 M266.367 120.036 C 266.751 120.136,267.380 120.136,267.764 120.036 C 268.149 119.935,267.834 119.853,267.066 119.853 C 266.297 119.853,265.983 119.935,266.367 120.036 M270.858 120.160 C 267.064 120.496,275.050 120.824,279.641 120.521 L 283.234 120.284 278.593 120.276 C 276.041 120.272,273.795 120.197,273.603 120.108 C 273.411 120.020,272.176 120.044,270.858 120.160 M206.986 196.651 C 206.427 197.084,205.609 197.216,204.258 197.093 C 203.119 196.989,202.546 197.056,202.860 197.255 C 204.042 198.004,207.984 197.303,207.984 196.343 C 207.984 195.905,207.928 195.922,206.986 196.651 " stroke="none" fill="#303030" fill-rule="evenodd"></path></g></svg>