<svg id="svg" version="1.1" xmlns="http://www.w3.org/2000/svg" xmlns:xlink="http://www.w3.org/1999/xlink" width="400" height="399.20000000000005" viewBox="0, 0, 400,399.20000000000005"><g id="svgg"><path id="path0" d="M198.802 27.944 C 198.802 28.164,198.578 28.347,198.303 28.353 C 197.583 28.366,194.810 30.957,194.810 31.617 C 194.810 31.924,194.619 32.368,194.384 32.602 C 193.809 33.177,193.799 39.250,194.372 39.441 C 194.613 39.522,194.810 39.824,194.810 40.113 C 194.810 40.401,195.709 41.555,196.806 42.676 L 198.802 44.715 198.802 119.722 L 198.802 194.729 201.569 195.007 C 203.091 195.160,204.888 195.164,205.561 195.016 L 206.786 194.747 206.786 154.684 L 206.786 114.620 207.841 114.695 C 208.420 114.737,208.974 114.546,209.072 114.271 C 209.177 113.973,208.906 113.772,208.399 113.772 C 207.932 113.772,206.839 113.115,205.971 112.311 L 204.391 110.850 204.391 78.332 L 204.391 45.815 205.289 46.071 C 205.783 46.212,206.726 46.443,207.383 46.586 C 208.041 46.729,208.824 47.090,209.122 47.388 C 209.421 47.687,210.005 47.823,210.421 47.691 C 210.841 47.558,211.178 47.641,211.178 47.877 C 211.178 48.112,211.447 48.303,211.776 48.303 C 212.106 48.303,212.374 48.169,212.372 48.004 C 212.368 47.654,210.442 46.707,209.733 46.707 C 207.519 46.707,206.227 44.626,207.964 43.857 C 208.612 43.570,209.374 42.882,209.658 42.327 C 209.942 41.772,210.490 41.027,210.876 40.672 C 212.758 38.939,211.553 30.638,209.275 29.640 C 208.647 29.366,207.736 28.770,207.249 28.317 C 206.762 27.863,206.003 27.549,205.562 27.618 C 204.562 27.775,204.499 28.492,205.468 28.689 C 205.864 28.769,206.277 28.950,206.387 29.090 C 206.497 29.231,207.261 29.848,208.084 30.462 C 210.127 31.985,210.778 33.417,210.778 36.388 L 210.778 38.883 208.431 41.165 C 207.141 42.421,205.312 43.821,204.369 44.277 L 202.653 45.105 201.304 44.309 C 200.562 43.871,199.717 43.513,199.426 43.513 C 199.136 43.513,198.209 42.660,197.367 41.617 C 196.525 40.574,195.666 39.603,195.460 39.459 C 194.833 39.022,194.838 33.208,195.466 32.687 C 195.764 32.440,196.008 31.990,196.008 31.688 C 196.008 31.385,196.189 31.138,196.411 31.138 C 196.632 31.138,197.367 30.609,198.043 29.963 C 198.718 29.317,199.646 28.734,200.103 28.666 C 201.484 28.462,201.427 27.545,200.033 27.545 C 199.356 27.545,198.802 27.725,198.802 27.944 M270.060 44.733 C 267.425 44.916,264.641 45.195,263.872 45.352 L 262.475 45.639 264.072 45.959 C 265.838 46.313,268.533 46.041,268.884 45.474 C 269.245 44.889,281.181 45.014,281.777 45.609 C 282.098 45.929,283.290 46.083,285.109 46.038 C 287.170 45.987,288.105 46.132,288.541 46.568 C 288.887 46.914,289.496 47.073,289.980 46.943 C 290.441 46.819,291.537 46.696,292.415 46.671 C 294.534 46.608,286.898 45.274,282.493 44.936 C 275.818 44.425,274.741 44.408,270.060 44.733 M256.487 46.370 C 254.731 46.561,252.485 46.892,251.497 47.104 C 250.509 47.316,249.251 47.577,248.703 47.684 C 248.154 47.791,246.986 48.067,246.108 48.296 C 244.039 48.838,241.421 49.448,238.922 49.972 C 237.824 50.202,233.513 50.465,229.341 50.556 C 221.765 50.721,220.388 50.861,220.934 51.407 C 221.524 51.996,235.679 51.868,236.353 51.267 C 236.761 50.902,237.641 50.760,238.898 50.854 C 239.980 50.935,241.256 50.772,241.817 50.481 C 242.365 50.196,243.060 50.058,243.360 50.173 C 243.660 50.288,244.020 50.082,244.161 49.716 C 244.345 49.237,244.801 49.083,245.781 49.167 C 246.617 49.239,247.276 49.072,247.484 48.736 C 247.713 48.366,248.221 48.267,249.046 48.432 C 249.831 48.589,250.462 48.483,250.809 48.136 C 251.152 47.793,252.180 47.616,253.632 47.650 C 255.168 47.687,256.025 47.528,256.250 47.165 C 256.476 46.800,257.278 46.655,258.731 46.716 C 261.680 46.839,262.275 46.771,262.275 46.307 C 262.275 45.856,261.077 45.869,256.487 46.370 M294.040 47.060 C 293.742 47.543,295.687 47.874,297.291 47.613 C 298.126 47.478,298.603 47.565,298.603 47.852 C 298.603 48.111,299.271 48.303,300.170 48.303 C 301.165 48.303,301.785 48.502,301.867 48.848 C 301.952 49.205,302.265 49.296,302.779 49.112 C 303.578 48.827,302.961 48.540,298.574 47.156 C 296.872 46.619,294.346 46.566,294.040 47.060 M212.882 48.802 C 212.978 49.077,213.355 49.248,213.719 49.183 C 214.084 49.118,214.493 49.353,214.628 49.705 C 214.769 50.072,215.129 50.247,215.471 50.116 C 215.800 49.990,216.271 50.157,216.518 50.487 C 216.847 50.928,217.373 51.021,218.494 50.836 C 220.189 50.557,219.764 49.917,217.876 49.906 C 217.279 49.903,216.151 49.541,215.369 49.102 C 213.759 48.198,212.623 48.061,212.882 48.802 M303.903 49.601 C 304.000 49.875,304.464 50.057,304.934 50.005 C 305.404 49.952,305.788 50.068,305.788 50.261 C 305.788 50.848,306.852 51.066,308.050 50.725 L 309.182 50.403 307.984 50.127 C 307.325 49.976,306.474 49.683,306.093 49.477 C 305.082 48.930,303.693 49.008,303.903 49.601 M309.481 51.198 C 309.572 51.472,309.991 51.751,310.412 51.817 C 310.833 51.883,311.582 52.138,312.076 52.383 L 312.974 52.830 312.974 87.692 C 312.974 127.093,313.310 123.462,309.818 121.756 C 308.919 121.317,307.448 120.599,306.549 120.160 C 304.778 119.295,303.187 119.125,302.794 119.760 C 302.659 119.980,302.738 120.182,302.970 120.210 C 303.755 120.302,303.988 120.393,305.589 121.233 C 306.467 121.693,307.321 122.087,307.487 122.108 C 307.653 122.129,308.461 122.446,309.283 122.812 C 314.577 125.166,314.182 128.017,314.167 87.553 C 314.154 51.310,314.160 51.497,312.931 51.497 C 312.516 51.497,312.176 51.317,312.176 51.098 C 312.176 50.878,311.532 50.699,310.745 50.699 C 309.778 50.699,309.369 50.860,309.481 51.198 M258.994 114.477 C 258.704 114.827,257.989 114.906,256.683 114.732 C 255.469 114.571,254.695 114.640,254.519 114.925 C 254.368 115.170,253.637 115.369,252.894 115.369 C 252.152 115.369,251.433 115.549,251.297 115.768 C 251.162 115.988,250.353 116.168,249.501 116.168 C 248.649 116.168,247.840 116.347,247.705 116.567 C 247.569 116.786,246.660 116.966,245.685 116.966 C 244.710 116.966,243.912 117.146,243.912 117.365 C 243.912 117.588,242.837 117.764,241.484 117.764 C 239.716 117.764,239.101 117.900,239.225 118.263 C 239.473 118.991,245.177 118.647,247.305 117.776 C 247.745 117.596,249.182 117.221,250.499 116.942 C 251.816 116.663,253.244 116.260,253.671 116.046 C 254.099 115.831,255.335 115.595,256.417 115.519 C 257.500 115.444,258.587 115.228,258.833 115.040 C 259.080 114.851,264.553 114.713,270.996 114.734 C 277.439 114.754,282.794 114.636,282.896 114.471 C 283.150 114.059,283.399 114.069,270.725 114.017 C 262.029 113.981,259.317 114.087,258.994 114.477 M209.182 114.826 C 209.182 115.524,212.974 117.536,213.581 117.161 C 213.759 117.051,213.974 117.171,214.059 117.428 C 214.145 117.684,214.475 117.948,214.792 118.014 C 215.110 118.079,216.144 118.323,217.091 118.555 C 218.838 118.984,219.762 118.812,219.344 118.136 C 219.218 117.932,218.496 117.764,217.741 117.764 C 216.985 117.764,216.367 117.585,216.367 117.365 C 216.367 117.146,215.918 116.966,215.369 116.966 C 214.820 116.966,214.371 116.786,214.371 116.567 C 214.371 116.347,214.048 116.168,213.652 116.168 C 212.760 116.168,210.786 115.275,210.782 114.870 C 210.780 114.706,210.419 114.571,209.980 114.571 C 209.541 114.571,209.182 114.686,209.182 114.826 M284.431 114.940 C 283.386 115.180,283.539 115.255,285.629 115.525 C 288.021 115.834,289.266 116.159,295.130 118.005 C 296.842 118.544,298.414 118.879,298.623 118.750 C 299.334 118.311,299.004 117.764,298.028 117.764 C 297.492 117.764,296.942 117.585,296.806 117.365 C 296.671 117.146,296.031 116.966,295.386 116.966 C 294.740 116.966,294.212 116.786,294.212 116.567 C 294.212 116.347,293.683 116.168,293.038 116.168 C 292.392 116.168,291.752 115.988,291.617 115.768 C 291.481 115.549,290.763 115.369,290.020 115.369 C 289.277 115.369,288.559 115.190,288.423 114.970 C 288.151 114.529,286.283 114.515,284.431 114.940 M220.186 118.919 C 219.765 119.601,222.125 119.807,229.475 119.728 C 237.121 119.646,238.468 119.519,238.096 118.917 C 237.809 118.453,220.473 118.455,220.186 118.919 M299.002 118.932 C 299.002 119.412,300.632 119.894,301.586 119.696 C 302.904 119.423,302.346 118.759,300.699 118.640 C 299.713 118.568,299.002 118.691,299.002 118.932 " stroke="none" fill="#bcbaba" fill-rule="evenodd"></path><path id="path1" d="M268.463 46.720 C 266.487 46.911,263.433 47.262,261.677 47.500 C 259.920 47.738,257.226 48.028,255.689 48.146 C 254.152 48.263,252.535 48.515,252.096 48.706 C 251.657 48.896,250.669 49.137,249.900 49.239 C 249.132 49.342,247.829 49.623,247.006 49.863 C 239.842 51.951,239.490 51.992,228.942 51.979 C 218.258 51.965,216.544 51.807,214.476 50.645 C 213.746 50.235,212.958 49.900,212.724 49.900 C 212.490 49.900,211.822 49.568,211.239 49.161 C 210.656 48.755,209.641 48.310,208.982 48.173 C 208.323 48.036,207.380 47.808,206.886 47.668 L 205.988 47.412 205.988 79.234 L 205.988 111.057 207.228 112.215 C 207.910 112.852,208.696 113.373,208.974 113.373 C 209.253 113.373,210.867 114.005,212.560 114.776 C 219.772 118.063,230.805 118.934,240.319 116.967 C 241.307 116.762,243.643 116.302,245.509 115.944 C 247.375 115.585,249.621 115.127,250.499 114.925 C 258.247 113.143,268.509 112.480,278.842 113.094 C 283.787 113.388,284.847 113.524,290.419 114.579 C 292.591 114.990,296.350 116.105,298.403 116.947 C 298.842 117.127,300.010 117.482,300.998 117.736 C 304.413 118.614,307.991 119.837,309.847 120.762 C 310.872 121.272,311.815 121.585,311.943 121.457 C 312.071 121.329,312.176 105.960,312.176 87.303 C 312.176 49.943,312.336 52.342,309.833 52.308 C 308.573 52.291,302.943 50.492,300.904 49.454 C 300.522 49.260,299.766 49.102,299.223 49.102 C 298.680 49.102,298.020 48.872,297.757 48.590 C 297.477 48.290,296.702 48.147,295.879 48.243 C 295.108 48.333,293.295 48.207,291.850 47.964 C 284.105 46.659,274.419 46.144,268.463 46.720 " stroke="none" fill="#e41c1c" fill-rule="evenodd"></path><path id="path2" d="M268.663 45.788 C 267.978 46.170,266.914 46.281,265.269 46.139 C 263.560 45.992,262.662 46.094,262.132 46.495 C 261.615 46.887,260.803 46.988,259.455 46.829 C 258.068 46.664,257.111 46.793,256.079 47.283 C 255.064 47.764,254.178 47.888,253.074 47.701 C 251.920 47.506,251.345 47.600,250.888 48.057 C 250.488 48.457,249.877 48.598,249.164 48.456 C 248.436 48.310,247.885 48.445,247.548 48.851 C 247.214 49.253,246.659 49.392,245.951 49.250 C 245.234 49.107,244.687 49.248,244.340 49.666 C 244.051 50.014,243.297 50.299,242.666 50.299 C 242.034 50.299,241.517 50.472,241.517 50.684 C 241.517 50.895,240.542 51.056,239.349 51.042 C 238.157 51.028,236.945 51.169,236.655 51.356 C 236.365 51.543,234.960 51.810,233.533 51.948 C 231.526 52.142,231.842 52.175,234.930 52.096 C 239.333 51.982,240.781 51.714,247.106 49.841 C 247.874 49.613,249.132 49.342,249.900 49.239 C 250.669 49.137,251.657 48.896,252.096 48.706 C 252.535 48.515,254.152 48.263,255.689 48.145 C 257.226 48.026,259.830 47.749,261.477 47.528 C 271.576 46.174,279.567 46.187,289.222 47.574 C 290.978 47.826,293.493 48.049,294.810 48.068 C 296.131 48.088,297.442 48.328,297.733 48.603 C 298.023 48.877,298.699 49.102,299.236 49.102 C 299.772 49.102,300.522 49.260,300.904 49.454 C 302.943 50.492,308.573 52.291,309.833 52.308 C 312.336 52.342,312.176 49.943,312.176 87.303 C 312.176 105.960,312.071 121.329,311.943 121.457 C 311.815 121.585,310.872 121.272,309.847 120.762 C 307.991 119.837,304.413 118.614,300.998 117.736 C 300.010 117.482,298.842 117.127,298.403 116.947 C 296.350 116.105,292.591 114.990,290.419 114.579 C 284.847 113.524,283.787 113.388,278.842 113.094 C 268.509 112.480,258.247 113.143,250.499 114.925 C 249.621 115.127,247.375 115.585,245.509 115.944 C 243.643 116.302,241.307 116.762,240.319 116.967 C 230.805 118.934,219.772 118.063,212.560 114.776 C 210.867 114.005,209.253 113.373,208.974 113.373 C 208.696 113.373,207.910 112.852,207.228 112.215 L 205.988 111.057 205.988 79.234 L 205.988 47.412 206.886 47.668 C 207.380 47.808,208.323 48.036,208.982 48.173 C 209.641 48.310,210.656 48.755,211.239 49.161 C 211.822 49.568,212.490 49.900,212.724 49.900 C 212.958 49.900,213.746 50.235,214.476 50.645 C 216.197 51.612,218.103 51.943,222.754 52.084 C 225.894 52.180,226.080 52.156,223.837 51.948 C 222.177 51.794,220.994 51.480,220.783 51.138 C 220.529 50.727,219.958 50.645,218.620 50.829 C 217.581 50.971,216.698 50.911,216.561 50.689 C 216.428 50.475,215.966 50.299,215.533 50.299 C 215.100 50.299,214.646 50.041,214.525 49.726 C 214.404 49.410,214.052 49.249,213.743 49.368 C 213.433 49.487,213.074 49.307,212.944 48.969 C 212.815 48.631,212.472 48.445,212.183 48.555 C 211.894 48.666,211.539 48.565,211.394 48.331 C 211.249 48.096,210.714 47.904,210.205 47.904 C 209.696 47.904,209.065 47.645,208.802 47.329 C 208.540 47.013,208.066 46.853,207.750 46.975 C 207.434 47.096,206.937 46.997,206.645 46.755 C 205.626 45.909,205.589 47.053,205.589 79.208 L 205.590 111.577 206.534 112.675 C 207.053 113.278,207.861 113.772,208.330 113.772 C 208.798 113.772,209.182 113.952,209.182 114.172 C 209.182 114.391,209.415 114.571,209.701 114.571 C 210.435 114.571,212.368 115.510,212.372 115.868 C 212.374 116.033,212.824 116.168,213.373 116.168 C 213.922 116.168,214.371 116.347,214.371 116.567 C 214.371 116.786,214.810 116.966,215.346 116.966 C 215.882 116.966,216.431 117.146,216.567 117.365 C 216.703 117.585,217.451 117.764,218.230 117.764 C 219.199 117.764,219.586 117.922,219.455 118.263 C 219.305 118.654,221.407 118.762,229.159 118.762 C 235.535 118.762,239.032 118.620,238.989 118.363 C 238.952 118.144,239.910 117.909,241.118 117.841 C 242.325 117.774,243.484 117.549,243.693 117.342 C 243.901 117.135,244.844 116.966,245.788 116.966 C 246.733 116.966,247.505 116.786,247.505 116.567 C 247.505 116.347,248.313 116.168,249.301 116.168 C 250.289 116.168,251.098 115.988,251.098 115.768 C 251.098 115.549,251.816 115.369,252.695 115.369 C 253.573 115.369,254.291 115.179,254.291 114.946 C 254.291 114.671,255.198 114.590,256.876 114.716 C 258.640 114.848,259.432 114.770,259.371 114.469 C 259.235 113.803,282.650 113.746,282.905 114.411 C 283.038 114.759,283.893 114.844,285.858 114.705 C 287.685 114.577,288.623 114.656,288.623 114.940 C 288.623 115.176,289.341 115.369,290.220 115.369 C 291.098 115.369,291.816 115.549,291.816 115.768 C 291.816 115.988,292.345 116.168,292.990 116.168 C 293.636 116.168,294.275 116.347,294.411 116.567 C 294.547 116.786,295.186 116.966,295.832 116.966 C 296.478 116.966,297.006 117.146,297.006 117.365 C 297.006 117.585,297.474 117.764,298.047 117.764 C 298.715 117.764,299.019 117.943,298.896 118.263 C 298.756 118.628,299.175 118.725,300.447 118.623 C 301.700 118.522,302.253 118.646,302.412 119.063 C 302.554 119.431,302.990 119.574,303.609 119.456 C 304.145 119.353,305.391 119.650,306.379 120.114 C 307.367 120.578,308.446 120.958,308.778 120.958 C 309.110 120.958,309.383 121.093,309.384 121.257 C 309.389 121.663,311.363 122.555,312.255 122.555 C 312.942 122.555,312.974 121.002,312.974 87.692 L 312.974 52.830 312.076 52.379 C 311.582 52.132,310.729 51.873,310.180 51.804 C 309.588 51.729,309.230 51.457,309.299 51.134 C 309.390 50.716,309.056 50.649,307.849 50.842 C 306.729 51.021,306.145 50.929,305.806 50.520 C 305.545 50.205,305.049 50.056,304.704 50.188 C 304.339 50.328,303.857 50.130,303.554 49.715 C 303.267 49.323,302.769 49.103,302.447 49.226 C 302.123 49.351,301.756 49.174,301.624 48.828 C 301.449 48.373,301.062 48.271,300.178 48.447 C 299.295 48.624,298.908 48.522,298.733 48.067 C 298.543 47.571,298.112 47.498,296.611 47.704 C 295.124 47.908,294.583 47.819,294.045 47.282 C 293.504 46.741,292.916 46.646,291.192 46.824 C 289.575 46.991,288.871 46.897,288.431 46.457 C 287.974 46.001,287.301 45.928,285.473 46.135 C 283.657 46.340,282.798 46.248,281.779 45.740 C 280.045 44.875,270.234 44.910,268.663 45.788 M227.645 51.772 C 228.029 51.873,228.658 51.873,229.042 51.772 C 229.426 51.672,229.112 51.590,228.343 51.590 C 227.575 51.590,227.260 51.672,227.645 51.772 " stroke="none" fill="#e43c3c" fill-rule="evenodd"></path><path id="path3" d="M202.096 28.044 C 202.153 28.329,201.701 28.599,201.040 28.675 C 199.608 28.838,196.544 31.633,195.773 33.481 C 194.582 36.330,195.088 38.396,197.667 41.223 C 203.009 47.078,213.269 40.246,209.744 33.180 C 209.037 31.763,205.293 28.743,204.243 28.743 C 203.871 28.743,203.464 28.473,203.338 28.144 C 203.061 27.423,201.954 27.334,202.096 28.044 " stroke="none" fill="#646464" fill-rule="evenodd"></path><path id="path4" d="M201.049 28.156 C 200.873 28.613,200.996 28.763,201.470 28.672 C 202.179 28.535,202.315 27.851,201.676 27.638 C 201.467 27.568,201.185 27.801,201.049 28.156 M203.293 28.044 C 203.539 28.781,204.657 28.876,204.657 28.160 C 204.657 27.820,204.315 27.545,203.892 27.545 C 203.458 27.545,203.199 27.760,203.293 28.044 M198.071 29.937 C 197.379 30.597,196.632 31.138,196.411 31.138 C 196.189 31.138,196.008 31.348,196.008 31.605 C 196.008 31.862,195.748 32.361,195.429 32.712 C 195.057 33.124,194.976 33.554,195.202 33.920 C 195.473 34.358,195.615 34.245,195.821 33.427 C 195.967 32.842,196.892 31.623,197.874 30.717 C 198.857 29.811,199.586 28.994,199.494 28.902 C 199.403 28.811,198.762 29.276,198.071 29.937 M205.409 29.071 C 205.618 29.251,206.543 29.977,207.464 30.685 C 213.594 35.388,209.188 44.407,201.267 43.369 C 199.367 43.119,196.493 40.665,195.595 38.523 C 195.271 37.751,195.259 37.753,195.235 38.589 C 195.221 39.065,195.347 39.514,195.516 39.587 C 195.684 39.661,196.514 40.574,197.360 41.617 C 198.206 42.660,199.136 43.513,199.426 43.513 C 199.717 43.513,200.562 43.871,201.304 44.309 L 202.653 45.105 204.369 44.277 C 205.312 43.821,207.141 42.421,208.431 41.165 L 210.778 38.883 210.778 36.388 C 210.778 33.418,210.128 31.986,208.084 30.460 C 207.261 29.845,206.527 29.207,206.454 29.042 C 206.381 28.877,206.030 28.743,205.675 28.743 C 205.297 28.743,205.187 28.878,205.409 29.071 M194.911 36.128 C 194.915 37.006,194.997 37.318,195.093 36.822 C 195.188 36.325,195.185 35.607,195.085 35.225 C 194.985 34.843,194.907 35.250,194.911 36.128 M204.391 78.344 L 204.391 110.839 205.477 111.807 C 206.074 112.339,206.342 112.484,206.071 112.129 C 205.691 111.630,205.583 104.084,205.596 78.796 C 205.610 49.783,205.543 46.093,205.001 45.979 C 204.458 45.864,204.391 49.401,204.391 78.344 " stroke="none" fill="#966c6c" fill-rule="evenodd"></path></g></svg>