<svg id="svg" version="1.1" xmlns="http://www.w3.org/2000/svg" xmlns:xlink="http://www.w3.org/1999/xlink" width="400" height="400.80160320641284" viewBox="0, 0, 400,400.80160320641284"><g id="svgg"><path id="path0" d="M195.800 8.782 C 195.140 8.960,193.486 9.127,192.124 9.153 C 190.762 9.179,189.536 9.380,189.400 9.600 C 189.264 9.820,188.364 10.000,187.400 10.000 C 186.436 10.000,185.536 10.180,185.400 10.400 C 185.264 10.620,184.083 10.800,182.776 10.800 C 181.459 10.800,180.400 10.978,180.400 11.200 C 180.400 11.420,180.186 11.600,179.923 11.600 C 179.661 11.600,177.609 12.500,175.362 13.600 C 173.115 14.700,170.934 15.600,170.514 15.600 C 170.094 15.600,169.402 15.920,168.975 16.312 C 167.650 17.529,164.388 19.600,163.796 19.600 C 163.486 19.600,162.500 20.318,161.604 21.196 C 160.709 22.074,159.445 23.067,158.795 23.403 C 158.146 23.738,157.219 24.547,156.737 25.200 C 156.254 25.853,155.200 26.823,154.393 27.357 C 153.587 27.891,152.707 28.859,152.437 29.510 C 152.168 30.161,151.464 30.942,150.874 31.247 C 149.632 31.887,148.433 33.178,148.413 33.896 C 148.406 34.168,147.614 35.428,146.653 36.696 C 145.692 37.963,144.409 39.990,143.802 41.200 C 143.194 42.410,142.389 43.850,142.012 44.400 C 141.333 45.390,139.995 48.781,138.145 54.200 C 137.619 55.740,137.069 57.270,136.924 57.600 C 135.357 61.150,135.314 86.342,136.871 88.272 C 137.080 88.532,137.268 89.303,137.287 89.987 C 137.307 90.670,137.461 91.314,137.631 91.419 C 137.800 91.524,138.249 92.552,138.627 93.705 C 139.006 94.857,139.559 96.155,139.858 96.589 C 140.156 97.023,140.400 97.665,140.400 98.015 C 140.400 98.602,142.016 101.921,144.493 106.423 C 145.044 107.426,145.924 108.712,146.448 109.281 C 146.972 109.850,147.814 111.370,148.321 112.658 C 148.827 113.946,149.867 115.720,150.631 116.600 C 151.395 117.480,152.226 118.920,152.478 119.800 C 152.730 120.680,153.265 121.772,153.668 122.226 C 154.071 122.680,154.400 123.188,154.400 123.354 C 154.400 123.520,154.915 124.408,155.545 125.328 C 156.175 126.248,156.826 127.450,156.991 128.000 C 157.157 128.550,157.611 129.360,158.001 129.800 C 158.391 130.240,159.135 131.380,159.655 132.334 C 161.479 135.681,161.926 136.450,162.900 137.919 C 164.379 140.148,165.600 142.392,165.600 142.882 C 165.600 143.121,166.252 144.113,167.049 145.085 C 167.845 146.058,168.822 147.709,169.220 148.755 C 169.617 149.801,170.688 151.780,171.601 153.153 C 172.513 154.526,173.455 156.213,173.695 156.901 C 173.935 157.589,174.835 159.153,175.696 160.376 C 176.557 161.599,177.523 163.220,177.843 163.978 C 178.163 164.737,178.914 165.995,179.512 166.775 C 180.111 167.554,180.810 168.591,181.067 169.078 C 181.323 169.564,182.122 171.096,182.841 172.481 C 183.561 173.867,184.454 175.360,184.827 175.800 C 185.199 176.240,185.750 177.320,186.050 178.200 C 186.350 179.080,186.700 179.890,186.828 180.000 C 187.590 180.657,190.401 185.276,190.404 185.878 C 190.406 186.275,191.033 187.387,191.798 188.349 C 192.562 189.310,193.665 191.110,194.249 192.349 C 194.832 193.587,195.792 195.320,196.383 196.200 C 196.973 197.080,197.672 198.342,197.937 199.005 C 198.202 199.668,198.830 200.726,199.333 201.356 L 200.247 202.503 201.796 199.551 C 202.648 197.928,203.852 195.898,204.472 195.040 C 205.093 194.182,205.600 193.306,205.600 193.092 C 205.600 192.616,208.261 188.196,208.981 187.476 C 209.268 187.189,209.624 186.401,209.773 185.723 C 209.922 185.046,210.829 183.434,211.790 182.141 C 212.751 180.848,213.663 179.289,213.817 178.677 C 213.970 178.064,214.884 176.387,215.848 174.950 C 216.812 173.513,217.600 172.194,217.600 172.019 C 217.600 171.478,219.701 167.890,221.085 166.069 C 221.808 165.118,222.400 164.127,222.400 163.869 C 222.400 163.611,223.390 161.886,224.600 160.036 C 225.810 158.186,226.800 156.413,226.800 156.094 C 226.800 155.776,227.295 154.859,227.900 154.056 C 229.739 151.616,230.235 150.727,231.181 148.176 C 231.430 147.503,232.248 146.243,232.998 145.376 C 233.748 144.509,234.472 143.350,234.608 142.800 C 234.883 141.687,236.518 138.745,237.317 137.928 C 237.601 137.638,238.080 136.770,238.382 136.000 C 238.683 135.230,239.240 134.240,239.619 133.800 C 239.998 133.360,240.426 132.612,240.569 132.137 C 240.713 131.663,241.452 130.493,242.211 129.537 C 242.971 128.582,243.594 127.583,243.596 127.318 C 243.598 127.053,244.005 126.205,244.500 125.434 C 246.690 122.024,247.510 120.526,247.756 119.490 C 247.902 118.879,248.606 117.709,249.321 116.890 C 250.037 116.070,250.819 114.950,251.060 114.400 C 252.516 111.078,253.488 109.429,254.479 108.595 C 255.125 108.051,255.600 107.251,255.600 106.706 C 255.600 106.186,255.763 105.589,255.962 105.380 C 256.162 105.171,256.702 104.325,257.162 103.500 C 257.623 102.675,258.360 101.365,258.800 100.588 C 259.240 99.811,259.600 98.821,259.600 98.388 C 259.600 97.955,259.780 97.600,260.000 97.600 C 260.220 97.600,260.400 97.251,260.400 96.824 C 260.400 96.397,260.580 95.936,260.800 95.800 C 261.020 95.664,261.200 95.195,261.200 94.757 C 261.200 94.319,261.560 93.216,262.000 92.306 C 262.440 91.395,262.800 90.154,262.800 89.548 C 262.800 88.943,262.980 88.336,263.200 88.200 C 263.420 88.064,263.600 87.369,263.600 86.656 C 263.600 85.943,263.770 85.189,263.977 84.980 C 265.283 83.663,264.529 58.621,263.158 57.774 C 262.961 57.652,262.800 57.124,262.800 56.600 C 262.800 56.076,262.620 55.536,262.400 55.400 C 262.180 55.264,262.000 54.719,262.000 54.189 C 262.000 53.658,261.640 52.583,261.200 51.800 C 260.760 51.017,260.400 49.931,260.400 49.388 C 260.400 48.845,260.220 48.400,260.000 48.400 C 259.780 48.400,259.600 48.135,259.600 47.812 C 259.600 47.489,259.212 46.544,258.738 45.712 C 256.818 42.343,255.600 39.890,255.600 39.393 C 255.600 39.103,255.465 38.807,255.300 38.733 C 254.807 38.514,251.600 34.519,251.600 34.124 C 251.600 33.240,250.544 31.606,249.970 31.603 C 249.260 31.600,248.014 30.305,247.262 28.789 C 246.986 28.233,246.258 27.555,245.645 27.284 C 245.032 27.013,244.287 26.337,243.990 25.782 C 243.693 25.227,242.809 24.384,242.025 23.910 C 241.241 23.435,239.726 22.272,238.657 21.324 C 237.588 20.376,236.523 19.600,236.290 19.600 C 235.725 19.600,230.805 16.282,230.802 15.900 C 230.801 15.735,230.330 15.600,229.754 15.600 C 229.179 15.600,228.054 15.258,227.254 14.841 C 224.174 13.233,220.565 11.600,220.093 11.600 C 219.822 11.600,219.600 11.436,219.600 11.236 C 219.600 11.035,218.565 10.774,217.300 10.656 C 213.517 10.301,211.446 9.975,210.600 9.600 C 209.072 8.922,197.626 8.289,195.800 8.782 M205.395 32.610 C 210.397 33.483,216.651 35.424,218.776 36.764 C 219.779 37.397,221.265 38.249,222.078 38.657 C 223.702 39.473,230.800 45.503,230.800 46.066 C 230.800 46.260,231.512 47.190,232.382 48.134 C 233.760 49.629,235.040 51.785,238.005 57.600 C 240.184 61.875,241.453 75.714,240.132 80.800 C 239.875 81.790,239.450 83.680,239.188 85.000 C 238.926 86.320,238.244 88.300,237.673 89.400 C 237.102 90.500,236.087 92.500,235.418 93.846 C 234.748 95.191,233.570 97.034,232.800 97.942 C 229.833 101.441,226.135 105.110,224.964 105.715 C 224.292 106.063,223.492 106.648,223.187 107.016 C 222.546 107.788,214.252 111.807,211.625 112.619 C 204.217 114.907,190.737 114.096,184.400 110.983 C 183.190 110.388,181.271 109.491,180.136 108.989 C 179.001 108.487,177.489 107.519,176.777 106.838 C 176.064 106.157,175.240 105.600,174.945 105.600 C 174.353 105.600,168.400 99.749,168.400 99.166 C 168.400 98.965,167.725 98.105,166.900 97.255 C 166.075 96.405,165.160 95.046,164.867 94.234 C 164.573 93.423,163.693 91.643,162.911 90.280 C 161.552 87.911,161.314 87.182,160.394 82.600 C 158.313 72.234,159.574 60.968,163.460 55.207 C 163.977 54.441,164.406 53.541,164.414 53.207 C 164.421 52.873,165.227 51.520,166.204 50.200 C 167.181 48.880,168.416 47.158,168.949 46.373 C 169.482 45.588,170.363 44.654,170.906 44.298 C 171.450 43.942,172.810 42.759,173.928 41.670 C 175.046 40.582,176.774 39.297,177.769 38.815 C 178.764 38.334,180.167 37.542,180.889 37.055 C 182.548 35.936,183.617 35.526,188.800 34.017 C 195.862 31.961,199.772 31.630,205.395 32.610 M203.800 48.400 C 204.901 48.873,205.292 48.873,205.000 48.400 C 204.864 48.180,204.358 48.013,203.876 48.028 C 203.031 48.055,203.029 48.069,203.800 48.400 M209.994 50.382 C 210.541 50.802,211.068 51.066,211.165 50.969 C 211.391 50.742,209.929 49.627,209.400 49.622 C 209.180 49.620,209.447 49.961,209.994 50.382 M212.600 51.600 C 212.736 51.820,213.096 52.000,213.401 52.000 C 213.705 52.000,214.235 52.400,214.577 52.889 C 214.920 53.378,215.200 53.571,215.200 53.318 C 215.200 53.065,214.726 52.485,214.146 52.029 C 213.039 51.158,212.180 50.920,212.600 51.600 M180.943 56.700 C 180.339 57.525,179.386 58.740,178.825 59.400 C 178.144 60.201,178.370 60.074,179.503 59.019 C 180.436 58.149,181.200 57.263,181.200 57.050 C 181.200 56.837,181.498 56.334,181.862 55.931 C 182.226 55.529,182.415 55.200,182.282 55.200 C 182.149 55.200,181.547 55.875,180.943 56.700 M218.697 56.721 C 220.225 58.827,223.089 62.035,222.297 60.752 C 221.941 60.175,221.098 59.100,220.425 58.362 C 219.751 57.625,219.200 56.869,219.200 56.682 C 219.200 56.300,218.181 55.200,217.826 55.200 C 217.699 55.200,218.091 55.884,218.697 56.721 M176.982 62.182 C 176.636 63.009,176.449 63.783,176.567 63.900 C 176.685 64.018,176.889 63.774,177.020 63.357 C 177.151 62.941,177.438 62.267,177.657 61.861 C 177.876 61.455,177.955 61.022,177.833 60.900 C 177.711 60.777,177.328 61.354,176.982 62.182 M222.802 62.476 C 222.801 62.848,222.980 63.264,223.200 63.400 C 223.420 63.536,223.600 64.329,223.600 65.162 C 223.600 65.995,223.889 67.256,224.241 67.963 C 225.050 69.583,224.931 78.823,224.098 79.101 C 223.796 79.201,223.618 79.922,223.646 80.933 C 223.672 81.850,223.768 82.240,223.860 81.800 C 223.952 81.360,224.324 80.010,224.686 78.800 C 225.549 75.920,225.520 69.589,224.634 67.513 C 224.285 66.695,224.000 65.590,224.000 65.059 C 224.000 64.527,223.731 63.576,223.402 62.946 C 223.024 62.221,222.804 62.048,222.802 62.476 M175.592 67.600 C 174.692 69.727,174.781 78.152,175.713 79.084 C 176.103 79.474,176.400 79.571,176.400 79.309 C 176.400 79.055,176.227 78.740,176.015 78.609 C 175.466 78.270,175.507 68.098,176.058 67.914 C 176.296 67.835,176.422 67.416,176.338 66.985 C 176.216 66.358,176.066 66.481,175.592 67.600 M176.400 82.517 C 176.400 83.232,177.368 85.200,177.719 85.200 C 178.019 85.200,178.006 85.046,177.680 84.720 C 177.416 84.456,177.200 83.927,177.200 83.544 C 177.200 83.161,177.020 82.736,176.800 82.600 C 176.580 82.464,176.400 82.427,176.400 82.517 M223.067 83.067 C 222.920 83.213,222.800 83.663,222.800 84.067 C 222.800 84.470,222.653 84.800,222.474 84.800 C 222.294 84.800,221.760 85.475,221.286 86.300 C 220.259 88.090,216.367 92.161,214.212 93.700 C 213.364 94.305,212.846 94.800,213.060 94.800 C 213.274 94.800,213.836 94.440,214.308 94.000 C 214.780 93.560,215.332 93.200,215.534 93.200 C 215.925 93.200,220.323 88.342,222.052 86.000 C 223.356 84.233,224.126 82.007,223.067 83.067 M178.585 86.600 C 178.916 87.260,180.198 88.880,181.432 90.200 C 183.276 92.171,183.438 92.281,182.339 90.816 C 181.602 89.834,180.640 88.655,180.200 88.196 C 179.760 87.736,179.081 86.919,178.691 86.380 C 177.983 85.401,177.983 85.401,178.585 86.600 M210.200 96.017 C 209.100 96.664,208.470 97.191,208.800 97.188 C 209.130 97.185,209.850 96.830,210.400 96.400 C 210.950 95.970,211.625 95.614,211.900 95.609 C 212.175 95.604,212.400 95.420,212.400 95.200 C 212.400 94.692,212.541 94.640,210.200 96.017 M206.980 97.169 C 206.771 97.372,206.060 97.615,205.400 97.709 L 204.200 97.880 205.451 97.940 C 206.141 97.973,206.926 97.731,207.200 97.400 C 207.745 96.743,207.588 96.578,206.980 97.169 M192.990 97.584 C 193.132 97.813,193.717 98.000,194.290 98.000 C 195.544 98.000,195.399 97.808,193.866 97.440 C 193.123 97.262,192.821 97.311,192.990 97.584 M198.700 98.289 C 199.415 98.378,200.585 98.378,201.300 98.289 C 202.015 98.201,201.430 98.128,200.000 98.128 C 198.570 98.128,197.985 98.201,198.700 98.289 " stroke="none" fill="#2bcbe4" fill-rule="evenodd"></path><path id="path1" d="M195.400 32.446 C 190.863 33.105,183.082 35.576,180.889 37.055 C 180.167 37.542,178.764 38.334,177.769 38.815 C 176.774 39.297,175.046 40.582,173.928 41.670 C 172.810 42.759,171.450 43.942,170.906 44.298 C 170.363 44.654,169.482 45.588,168.949 46.373 C 168.416 47.158,167.181 48.880,166.204 50.200 C 165.227 51.520,164.421 52.873,164.414 53.207 C 164.406 53.541,163.977 54.441,163.460 55.207 C 159.574 60.968,158.313 72.234,160.394 82.600 C 161.314 87.182,161.552 87.911,162.911 90.280 C 163.693 91.643,164.573 93.423,164.867 94.234 C 165.160 95.046,166.075 96.405,166.900 97.255 C 167.725 98.105,168.400 98.965,168.400 99.166 C 168.400 99.749,174.353 105.600,174.945 105.600 C 175.240 105.600,176.064 106.157,176.777 106.838 C 177.489 107.519,179.001 108.487,180.136 108.989 C 181.271 109.491,183.190 110.388,184.400 110.983 C 190.737 114.096,204.217 114.907,211.625 112.619 C 214.252 111.807,222.546 107.788,223.187 107.016 C 223.492 106.648,224.292 106.063,224.964 105.715 C 226.135 105.110,229.833 101.441,232.800 97.942 C 233.570 97.034,234.748 95.191,235.418 93.846 C 236.087 92.500,237.102 90.500,237.673 89.400 C 238.244 88.300,238.926 86.320,239.188 85.000 C 239.450 83.680,239.875 81.790,240.132 80.800 C 241.453 75.714,240.184 61.875,238.005 57.600 C 235.040 51.785,233.760 49.629,232.382 48.134 C 231.512 47.190,230.800 46.260,230.800 46.066 C 230.800 45.503,223.702 39.473,222.078 38.657 C 221.265 38.249,219.779 37.397,218.776 36.764 C 213.779 33.613,202.153 31.466,195.400 32.446 M205.000 48.400 C 205.136 48.620,205.766 48.800,206.400 48.800 C 207.034 48.800,207.664 48.980,207.800 49.200 C 207.936 49.420,208.453 49.600,208.948 49.600 C 209.444 49.600,210.236 49.960,210.708 50.400 C 211.180 50.840,211.943 51.200,212.403 51.200 C 212.863 51.200,213.848 51.785,214.592 52.500 C 216.376 54.216,217.557 55.200,217.833 55.200 C 218.177 55.200,219.200 56.301,219.200 56.671 C 219.200 56.852,219.848 57.720,220.638 58.600 C 222.302 60.452,224.000 63.729,224.000 65.088 C 224.000 65.604,224.285 66.695,224.634 67.513 C 225.506 69.557,225.547 75.902,224.708 78.800 C 224.357 80.010,223.857 81.800,223.596 82.779 C 223.334 83.757,222.648 85.197,222.069 85.979 C 220.316 88.349,215.926 93.200,215.534 93.200 C 215.332 93.200,214.780 93.560,214.308 94.000 C 213.836 94.440,213.213 94.800,212.925 94.800 C 212.636 94.800,212.400 94.980,212.400 95.200 C 212.400 95.420,212.175 95.604,211.900 95.609 C 211.625 95.614,210.950 95.970,210.400 96.400 C 209.850 96.830,208.941 97.186,208.380 97.191 C 207.819 97.196,207.147 97.413,206.886 97.674 C 206.223 98.337,193.777 98.337,193.114 97.674 C 192.853 97.413,192.314 97.200,191.915 97.200 C 191.262 97.200,189.715 96.516,189.200 95.999 C 189.090 95.889,188.460 95.529,187.800 95.199 C 187.140 94.870,186.380 94.393,186.111 94.139 C 185.841 93.886,185.031 93.311,184.311 92.862 C 182.785 91.912,179.030 87.741,178.343 86.235 C 178.084 85.666,177.735 85.200,177.568 85.200 C 177.084 85.200,175.900 81.237,176.173 80.527 C 176.310 80.169,176.106 79.539,175.714 79.104 C 174.808 78.104,174.671 69.197,175.536 67.666 C 175.827 67.152,176.115 66.072,176.177 65.266 C 176.329 63.271,177.202 61.375,179.049 59.029 C 182.001 55.279,186.528 51.204,187.755 51.191 C 188.220 51.186,189.050 50.830,189.600 50.400 C 190.150 49.970,190.917 49.614,191.305 49.609 C 191.693 49.604,192.323 49.441,192.705 49.247 C 193.087 49.053,193.940 48.712,194.600 48.490 C 196.189 47.954,204.679 47.881,205.000 48.400 " stroke="none" fill="#0cbcdc" fill-rule="evenodd"></path><path id="path2" d="M190.200 7.200 C 190.064 7.420,189.074 7.600,188.000 7.600 C 186.926 7.600,185.936 7.780,185.800 8.000 C 185.664 8.220,184.944 8.400,184.200 8.400 C 183.456 8.400,182.736 8.580,182.600 8.800 C 182.464 9.020,181.643 9.200,180.776 9.200 C 179.909 9.200,179.200 9.380,179.200 9.600 C 179.200 9.820,178.660 10.000,178.000 10.000 C 177.340 10.000,176.800 10.180,176.800 10.400 C 176.800 10.620,176.440 10.800,176.000 10.800 C 175.560 10.800,175.200 10.980,175.200 11.200 C 175.200 11.420,174.784 11.600,174.275 11.600 C 173.767 11.600,172.964 11.960,172.492 12.400 C 172.020 12.840,171.356 13.200,171.017 13.200 C 170.678 13.200,170.400 13.380,170.400 13.600 C 170.400 13.820,169.900 14.000,169.288 14.000 C 168.635 14.000,167.939 14.330,167.600 14.800 C 167.283 15.240,166.743 15.600,166.400 15.600 C 166.057 15.600,165.517 15.960,165.200 16.400 C 164.883 16.840,164.303 17.200,163.912 17.200 C 163.520 17.200,163.200 17.380,163.200 17.600 C 163.200 17.820,162.916 18.000,162.569 18.000 C 162.221 18.000,161.246 18.720,160.400 19.600 C 159.554 20.480,158.579 21.200,158.231 21.200 C 157.884 21.200,157.600 21.380,157.600 21.600 C 157.600 21.820,157.317 22.000,156.971 22.000 C 156.227 22.000,155.200 22.942,155.200 23.625 C 155.200 24.140,153.221 25.999,152.671 26.000 C 152.187 26.000,151.200 27.072,151.200 27.597 C 151.200 27.847,150.300 28.929,149.200 30.000 C 148.100 31.071,147.200 32.158,147.200 32.414 C 147.200 32.670,146.660 33.383,146.000 34.000 C 145.340 34.617,144.800 35.319,144.800 35.560 C 144.800 35.802,144.620 36.000,144.400 36.000 C 144.180 36.000,144.000 36.270,144.000 36.600 C 144.000 36.930,143.820 37.200,143.600 37.200 C 143.380 37.200,143.200 37.560,143.200 38.000 C 143.200 38.440,143.020 38.800,142.800 38.800 C 142.580 38.800,142.400 39.160,142.400 39.600 C 142.400 40.040,142.220 40.400,142.000 40.400 C 141.780 40.400,141.600 40.678,141.600 41.017 C 141.600 41.356,141.240 42.020,140.800 42.492 C 140.360 42.964,140.000 43.587,140.000 43.875 C 140.000 44.164,139.820 44.400,139.600 44.400 C 139.380 44.400,139.200 45.030,139.200 45.800 C 139.200 46.570,139.020 47.200,138.800 47.200 C 138.580 47.200,138.400 47.524,138.400 47.920 C 138.400 48.814,137.506 50.793,137.100 50.797 C 136.935 50.799,136.800 51.160,136.800 51.600 C 136.800 52.040,136.620 52.400,136.400 52.400 C 136.180 52.400,136.000 52.940,136.000 53.600 C 136.000 54.260,135.820 54.800,135.600 54.800 C 135.380 54.800,135.200 55.509,135.200 56.376 C 135.200 57.243,135.020 58.064,134.800 58.200 C 134.580 58.336,134.400 59.866,134.400 61.600 C 134.400 63.334,134.580 64.864,134.800 65.000 C 135.050 65.154,135.200 64.344,135.200 62.842 C 135.200 61.520,135.355 60.024,135.544 59.519 C 135.733 59.013,136.294 57.250,136.789 55.600 C 137.702 52.560,138.207 51.162,138.847 49.905 C 139.041 49.523,139.200 48.848,139.200 48.405 C 139.200 47.962,139.380 47.600,139.600 47.600 C 139.820 47.600,140.000 47.246,140.000 46.813 C 140.000 46.381,140.720 44.913,141.600 43.551 C 142.480 42.190,143.200 40.831,143.200 40.533 C 143.200 39.586,144.415 37.754,146.700 35.255 C 147.415 34.473,148.000 33.533,148.000 33.165 C 148.000 32.797,148.795 31.845,149.766 31.049 C 150.737 30.253,151.771 29.062,152.064 28.401 C 152.356 27.740,152.798 27.200,153.045 27.200 C 153.293 27.200,154.480 26.255,155.685 25.100 C 158.706 22.203,161.837 19.715,163.389 18.978 C 164.106 18.638,165.040 18.054,165.466 17.680 C 166.551 16.727,168.258 15.760,170.400 14.885 C 172.699 13.945,177.010 11.778,177.133 11.500 C 177.207 11.335,177.691 11.200,178.210 11.200 C 178.728 11.200,179.249 11.044,179.367 10.853 C 179.485 10.662,180.351 10.394,181.291 10.257 C 183.581 9.923,186.957 9.298,189.400 8.757 C 193.008 7.958,205.742 7.863,209.600 8.607 C 215.483 9.741,217.359 10.051,218.800 10.127 C 219.570 10.167,220.344 10.425,220.520 10.700 C 220.696 10.975,221.236 11.204,221.720 11.209 C 222.204 11.214,223.050 11.570,223.600 12.000 C 224.150 12.430,224.870 12.790,225.200 12.800 C 225.530 12.810,226.250 13.170,226.800 13.600 C 227.350 14.030,228.104 14.386,228.476 14.391 C 228.848 14.396,229.264 14.580,229.400 14.800 C 229.536 15.020,230.087 15.200,230.624 15.200 C 231.161 15.200,231.600 15.350,231.600 15.532 C 231.600 15.715,232.095 16.116,232.700 16.424 C 233.305 16.732,234.426 17.482,235.191 18.092 C 235.956 18.701,236.831 19.200,237.135 19.200 C 237.439 19.200,238.673 20.100,239.876 21.200 C 241.080 22.300,242.275 23.204,242.532 23.209 C 242.790 23.213,243.803 24.113,244.785 25.209 C 245.767 26.304,246.768 27.200,247.011 27.200 C 247.253 27.200,247.744 27.813,248.102 28.563 C 248.459 29.313,249.301 30.250,249.971 30.647 C 250.642 31.043,251.545 32.094,251.979 32.983 C 252.413 33.873,253.407 35.297,254.188 36.149 C 254.970 37.002,255.877 38.307,256.205 39.049 C 256.532 39.792,257.059 40.989,257.376 41.710 C 257.693 42.430,258.413 43.555,258.975 44.210 C 259.538 44.864,259.999 45.895,260.000 46.500 C 260.000 47.105,260.180 47.600,260.400 47.600 C 260.620 47.600,260.800 47.962,260.800 48.405 C 260.800 48.848,260.959 49.523,261.153 49.905 C 261.791 51.160,262.316 52.560,263.212 55.400 C 263.698 56.940,264.254 58.613,264.448 59.119 C 264.641 59.624,264.800 61.019,264.800 62.219 C 264.800 63.418,264.980 64.400,265.200 64.400 C 265.433 64.400,265.600 63.067,265.600 61.200 C 265.600 59.333,265.433 58.000,265.200 58.000 C 264.980 58.000,264.800 57.280,264.800 56.400 C 264.800 55.520,264.620 54.800,264.400 54.800 C 264.180 54.800,264.000 54.260,264.000 53.600 C 264.000 52.940,263.820 52.400,263.600 52.400 C 263.380 52.400,263.200 52.040,263.200 51.600 C 263.200 51.160,263.020 50.800,262.800 50.800 C 262.580 50.800,262.400 50.260,262.400 49.600 C 262.400 48.940,262.220 48.400,262.000 48.400 C 261.780 48.400,261.600 48.040,261.600 47.600 C 261.600 47.160,261.420 46.800,261.200 46.800 C 260.980 46.800,260.800 46.260,260.800 45.600 C 260.800 44.940,260.620 44.400,260.400 44.400 C 260.180 44.400,260.000 44.122,260.000 43.783 C 260.000 43.444,259.640 42.780,259.200 42.308 C 258.760 41.836,258.400 41.123,258.400 40.725 C 258.400 40.326,258.220 40.000,258.000 40.000 C 257.780 40.000,257.600 39.730,257.600 39.400 C 257.600 39.070,257.420 38.800,257.200 38.800 C 256.980 38.800,256.800 38.440,256.800 38.000 C 256.800 37.560,256.620 37.200,256.400 37.200 C 256.180 37.200,256.000 36.916,256.000 36.569 C 256.000 36.221,255.280 35.246,254.400 34.400 C 253.520 33.554,252.800 32.579,252.800 32.231 C 252.800 31.884,252.620 31.600,252.400 31.600 C 252.180 31.600,252.000 31.324,252.000 30.987 C 252.000 30.651,251.685 30.254,251.301 30.107 C 250.368 29.749,248.800 28.155,248.800 27.565 C 248.800 27.058,246.815 25.201,246.271 25.200 C 245.786 25.200,244.800 24.127,244.800 23.600 C 244.800 23.020,243.794 22.000,243.223 22.000 C 242.477 22.000,241.108 21.058,239.587 19.500 C 238.782 18.675,237.826 18.000,237.462 18.000 C 237.098 18.000,236.800 17.820,236.800 17.600 C 236.800 17.380,236.480 17.200,236.088 17.200 C 235.697 17.200,235.117 16.840,234.800 16.400 C 234.483 15.960,233.943 15.600,233.600 15.600 C 233.257 15.600,232.717 15.240,232.400 14.800 C 232.061 14.330,231.365 14.000,230.712 14.000 C 230.100 14.000,229.600 13.820,229.600 13.600 C 229.600 13.380,229.240 13.200,228.800 13.200 C 228.360 13.200,228.000 13.020,228.000 12.800 C 228.000 12.580,227.640 12.400,227.200 12.400 C 226.760 12.400,226.400 12.220,226.400 12.000 C 226.400 11.780,226.040 11.600,225.600 11.600 C 225.160 11.600,224.800 11.420,224.800 11.200 C 224.800 10.980,224.451 10.800,224.024 10.800 C 223.597 10.800,223.136 10.620,223.000 10.400 C 222.864 10.180,222.313 10.000,221.776 10.000 C 221.239 10.000,220.800 9.820,220.800 9.600 C 220.800 9.380,220.080 9.200,219.200 9.200 C 218.320 9.200,217.600 9.020,217.600 8.800 C 217.600 8.580,216.891 8.400,216.024 8.400 C 215.157 8.400,214.336 8.220,214.200 8.000 C 214.064 7.780,213.074 7.600,212.000 7.600 C 210.926 7.600,209.936 7.420,209.800 7.200 C 209.646 6.951,205.937 6.800,200.000 6.800 C 194.063 6.800,190.354 6.951,190.200 7.200 M197.019 48.770 C 196.872 49.006,196.131 49.200,195.371 49.200 C 194.611 49.200,193.677 49.357,193.295 49.550 C 190.320 51.048,189.047 51.600,188.562 51.600 C 188.253 51.600,188.000 51.780,188.000 52.000 C 188.000 52.220,187.685 52.401,187.300 52.403 C 186.915 52.404,185.880 53.116,185.000 53.983 C 184.120 54.851,183.240 55.570,183.044 55.580 C 182.559 55.607,181.628 56.877,181.613 57.534 C 181.606 57.828,180.946 58.638,180.146 59.334 C 178.329 60.916,176.800 64.242,176.800 66.611 C 176.800 67.595,176.620 68.400,176.400 68.400 C 176.156 68.400,176.000 70.267,176.000 73.200 C 176.000 76.133,176.156 78.000,176.400 78.000 C 176.620 78.000,176.800 78.676,176.800 79.503 C 176.800 82.480,178.093 85.148,181.099 88.372 C 181.814 89.138,182.492 90.059,182.606 90.418 C 182.720 90.778,183.305 91.325,183.907 91.633 C 184.508 91.942,185.291 92.511,185.647 92.897 C 186.003 93.284,186.498 93.600,186.747 93.600 C 186.996 93.600,187.200 93.780,187.200 94.000 C 187.200 94.220,187.425 94.404,187.700 94.409 C 187.975 94.414,188.650 94.770,189.200 95.200 C 189.750 95.630,190.515 95.986,190.900 95.991 C 191.285 95.996,191.600 96.180,191.600 96.400 C 191.600 96.620,192.230 96.800,193.000 96.800 C 193.770 96.800,194.400 96.980,194.400 97.200 C 194.400 97.448,196.533 97.600,200.000 97.600 C 203.467 97.600,205.600 97.448,205.600 97.200 C 205.600 96.980,206.230 96.800,207.000 96.800 C 207.770 96.800,208.400 96.620,208.400 96.400 C 208.400 96.180,208.634 96.000,208.920 96.000 C 209.656 96.000,211.593 95.059,211.597 94.700 C 211.599 94.535,211.843 94.400,212.141 94.400 C 212.438 94.400,213.246 93.860,213.937 93.200 C 214.628 92.540,215.419 91.995,215.696 91.988 C 215.973 91.981,216.603 91.486,217.096 90.888 C 219.795 87.609,220.867 86.210,221.485 85.163 C 221.863 84.523,222.291 84.000,222.435 84.000 C 222.767 84.000,223.338 80.897,223.227 79.700 C 223.180 79.205,223.389 78.553,223.691 78.252 C 224.433 77.510,224.438 68.746,223.697 68.499 C 223.319 68.373,223.200 69.531,223.200 73.343 C 223.200 76.251,223.032 78.456,222.800 78.600 C 222.580 78.736,222.400 79.467,222.400 80.224 C 222.400 80.981,222.220 81.600,222.000 81.600 C 221.780 81.600,221.600 82.022,221.600 82.538 C 221.600 83.054,221.240 83.802,220.800 84.200 C 220.360 84.598,220.000 85.144,220.000 85.413 C 220.000 85.682,219.700 86.149,219.333 86.451 C 218.967 86.753,218.148 87.720,217.514 88.600 C 216.291 90.297,214.301 91.906,212.000 93.058 C 211.230 93.444,210.309 94.083,209.953 94.480 C 209.597 94.876,209.048 95.200,208.733 95.200 C 208.418 95.200,207.989 95.365,207.780 95.568 C 206.209 97.088,193.791 97.088,192.220 95.568 C 192.011 95.365,191.556 95.200,191.208 95.200 C 190.861 95.200,190.317 94.840,190.000 94.400 C 189.683 93.960,189.275 93.600,189.095 93.600 C 186.954 93.600,178.400 84.645,178.400 82.404 C 178.400 81.988,178.220 81.536,178.000 81.400 C 177.780 81.264,177.600 80.454,177.600 79.600 C 177.600 78.746,177.420 77.936,177.200 77.800 C 176.971 77.658,176.800 75.596,176.800 72.976 C 176.800 70.192,176.957 68.400,177.200 68.400 C 177.420 68.400,177.600 67.500,177.600 66.400 C 177.600 65.300,177.780 64.400,178.000 64.400 C 178.220 64.400,178.400 64.040,178.400 63.600 C 178.400 63.160,178.580 62.800,178.800 62.800 C 179.020 62.800,179.200 62.512,179.200 62.160 C 179.200 61.809,179.740 61.017,180.400 60.400 C 181.060 59.783,181.600 59.104,181.600 58.890 C 181.600 58.297,184.188 55.600,184.757 55.600 C 185.455 55.600,186.400 54.581,186.400 53.829 C 186.400 53.467,186.739 53.200,187.200 53.200 C 187.640 53.200,188.000 53.020,188.000 52.800 C 188.000 52.580,188.540 52.400,189.200 52.400 C 189.860 52.400,190.400 52.220,190.400 52.000 C 190.400 51.780,190.760 51.600,191.200 51.600 C 191.640 51.600,192.000 51.420,192.000 51.200 C 192.000 50.980,192.540 50.800,193.200 50.800 C 193.860 50.800,194.400 50.620,194.400 50.400 C 194.400 50.180,195.302 50.000,196.405 50.000 C 197.508 50.000,198.768 49.777,199.205 49.504 C 199.838 49.109,200.162 49.109,200.795 49.504 C 201.232 49.777,202.492 50.000,203.595 50.000 C 204.698 50.000,205.600 50.180,205.600 50.400 C 205.600 50.620,206.140 50.800,206.800 50.800 C 207.460 50.800,208.000 50.980,208.000 51.200 C 208.000 51.420,208.360 51.600,208.800 51.600 C 209.240 51.600,209.600 51.780,209.600 52.000 C 209.600 52.220,210.140 52.400,210.800 52.400 C 211.460 52.400,212.000 52.580,212.000 52.800 C 212.000 53.020,212.317 53.200,212.705 53.200 C 213.093 53.200,213.588 53.590,213.805 54.067 C 214.022 54.544,214.548 55.129,214.973 55.367 C 216.126 56.012,218.400 58.307,218.400 58.826 C 218.400 59.075,218.940 59.783,219.600 60.400 C 220.260 61.017,220.800 61.809,220.800 62.160 C 220.800 62.512,220.936 62.800,221.103 62.800 C 221.465 62.800,222.400 65.662,222.400 66.770 C 222.400 68.038,223.083 68.087,223.333 66.837 C 223.721 64.897,221.825 60.584,220.100 59.480 C 219.825 59.304,219.307 58.593,218.948 57.900 C 218.247 56.543,217.434 55.600,216.967 55.600 C 216.807 55.600,215.991 54.880,215.154 54.000 C 214.317 53.120,213.365 52.400,213.040 52.400 C 212.714 52.400,212.336 52.220,212.200 52.000 C 212.064 51.780,211.603 51.600,211.176 51.600 C 210.749 51.600,210.399 51.465,210.397 51.300 C 210.393 50.899,208.419 50.000,207.544 50.000 C 207.161 50.000,206.748 49.839,206.626 49.642 C 206.148 48.869,197.445 48.079,197.019 48.770 M133.867 66.667 C 133.429 67.105,133.555 79.525,134.000 79.800 C 134.261 79.961,134.400 77.671,134.400 73.224 C 134.400 69.471,134.340 66.400,134.267 66.400 C 134.193 66.400,134.013 66.520,133.867 66.667 M265.606 73.124 C 265.602 77.639,265.739 79.961,266.000 79.800 C 266.520 79.478,266.520 67.605,266.000 66.800 C 265.741 66.400,265.610 68.506,265.606 73.124 M134.400 84.576 C 134.400 86.433,134.580 88.064,134.800 88.200 C 135.020 88.336,135.200 88.977,135.200 89.624 C 135.200 90.271,135.380 90.800,135.600 90.800 C 135.820 90.800,136.000 91.340,136.000 92.000 C 136.000 92.660,136.180 93.200,136.400 93.200 C 136.620 93.200,136.800 93.740,136.800 94.400 C 136.800 95.060,136.980 95.600,137.200 95.600 C 137.420 95.600,137.600 95.960,137.600 96.400 C 137.600 96.840,137.735 97.201,137.900 97.203 C 138.293 97.207,139.200 99.174,139.200 100.024 C 139.200 100.852,141.556 105.530,142.500 106.575 C 142.885 107.002,143.200 107.687,143.200 108.097 C 143.200 108.508,143.739 109.419,144.398 110.122 C 145.057 110.825,145.597 111.625,145.598 111.900 C 145.599 112.175,145.780 112.400,146.000 112.400 C 146.220 112.400,146.400 112.760,146.400 113.200 C 146.400 113.640,146.580 114.000,146.800 114.000 C 147.020 114.000,147.200 114.360,147.200 114.800 C 147.200 115.240,147.380 115.600,147.600 115.600 C 147.820 115.600,148.000 115.880,148.000 116.222 C 148.000 116.564,148.539 117.419,149.198 118.122 C 149.857 118.825,150.397 119.715,150.398 120.100 C 150.399 120.485,150.580 120.800,150.800 120.800 C 151.020 120.800,151.200 121.222,151.200 121.738 C 151.200 122.254,151.560 123.002,152.000 123.400 C 152.440 123.798,152.800 124.321,152.800 124.562 C 152.801 125.414,154.795 127.365,155.225 126.935 C 155.503 126.657,155.437 126.363,155.017 126.014 C 154.678 125.732,154.400 125.332,154.400 125.123 C 154.400 124.915,153.889 123.992,153.263 123.072 C 152.638 122.152,151.938 120.845,151.707 120.166 C 151.476 119.487,150.549 117.957,149.646 116.766 C 148.742 115.575,148.003 114.409,148.002 114.175 C 147.998 113.309,146.439 110.559,145.239 109.304 C 144.558 108.591,144.000 107.775,144.000 107.491 C 144.000 106.758,141.317 101.795,140.599 101.199 C 140.269 100.926,140.000 100.184,140.000 99.551 C 140.000 98.918,139.820 98.400,139.600 98.400 C 139.380 98.400,139.200 98.051,139.200 97.624 C 139.200 97.197,139.020 96.736,138.800 96.600 C 138.580 96.464,138.400 96.027,138.400 95.630 C 138.400 95.232,138.058 94.028,137.639 92.953 C 136.159 89.153,135.200 85.352,135.200 83.289 C 135.200 82.140,135.020 81.200,134.800 81.200 C 134.565 81.200,134.400 82.592,134.400 84.576 M264.709 84.500 C 264.571 87.108,264.113 88.851,262.580 92.600 C 262.310 93.260,261.968 94.250,261.819 94.800 C 261.538 95.843,260.956 97.309,260.353 98.495 C 260.159 98.877,260.000 99.627,260.000 100.161 C 260.000 100.696,259.846 101.193,259.657 101.267 C 259.137 101.469,256.000 106.797,256.000 107.480 C 256.000 107.808,255.280 108.895,254.400 109.895 C 253.520 110.895,252.800 112.047,252.800 112.456 C 252.800 112.865,252.620 113.200,252.400 113.200 C 252.180 113.200,252.000 113.442,252.000 113.739 C 252.000 114.522,250.886 116.631,250.148 117.243 C 249.799 117.533,248.989 118.857,248.348 120.185 C 247.707 121.513,246.661 123.410,246.023 124.400 C 245.385 125.390,244.849 126.425,244.831 126.700 C 244.814 126.975,244.620 127.200,244.400 127.200 C 244.180 127.200,244.000 127.546,244.000 127.969 C 244.000 128.392,243.581 129.247,243.069 129.869 C 241.422 131.871,239.200 135.790,239.200 136.694 C 239.200 137.177,238.854 137.757,238.432 137.983 C 237.547 138.457,235.200 142.587,235.200 143.671 C 235.200 144.072,235.020 144.400,234.800 144.400 C 234.580 144.400,234.400 144.642,234.400 144.938 C 234.400 145.234,234.022 145.818,233.559 146.237 C 232.715 147.001,231.490 149.048,231.692 149.357 C 231.751 149.448,230.765 151.183,229.500 153.213 C 228.235 155.243,227.200 157.137,227.200 157.421 C 227.200 157.706,226.784 158.447,226.275 159.069 C 224.971 160.662,222.800 164.315,222.800 164.915 C 222.800 165.191,222.295 166.044,221.677 166.809 C 220.208 168.630,218.400 171.786,218.400 172.532 C 218.400 172.856,217.590 174.198,216.600 175.515 C 215.610 176.832,214.800 178.030,214.800 178.177 C 214.800 178.988,212.432 183.250,211.730 183.703 C 211.472 183.870,211.044 184.680,210.781 185.503 C 210.517 186.326,209.985 187.360,209.598 187.800 C 209.210 188.240,208.577 189.230,208.190 190.000 C 207.803 190.770,207.152 191.829,206.743 192.354 C 206.335 192.879,206.000 193.616,206.000 193.992 C 206.000 194.368,205.668 194.976,205.263 195.343 C 204.858 195.710,203.764 197.527,202.833 199.381 C 200.297 204.428,199.783 204.591,198.020 200.906 C 196.426 197.575,195.889 196.628,194.933 195.469 C 194.420 194.847,194.000 194.026,194.000 193.645 C 194.000 193.263,193.685 192.602,193.300 192.175 C 192.915 191.749,192.338 190.860,192.018 190.200 C 191.698 189.540,191.142 188.640,190.783 188.200 C 190.424 187.760,189.887 186.770,189.592 186.000 C 189.296 185.230,188.627 184.080,188.106 183.444 C 187.585 182.809,186.528 181.009,185.758 179.444 C 184.988 177.880,183.834 175.880,183.192 175.000 C 182.551 174.120,182.021 173.183,182.013 172.918 C 181.998 172.363,179.944 168.771,178.630 167.000 C 178.141 166.340,177.127 164.583,176.377 163.096 C 175.628 161.609,174.636 159.984,174.173 159.484 C 173.710 158.985,173.216 158.116,173.075 157.555 C 172.934 156.993,171.986 155.293,170.970 153.777 C 169.953 152.261,168.763 150.062,168.325 148.891 C 167.887 147.720,167.184 146.547,166.764 146.285 C 166.344 146.022,166.000 145.575,166.000 145.291 C 166.000 145.007,165.730 144.671,165.400 144.545 C 165.070 144.418,164.800 143.966,164.800 143.541 C 164.800 142.563,163.530 140.056,162.274 138.553 C 161.743 137.919,161.184 136.999,161.030 136.508 C 160.692 135.427,158.543 131.816,157.291 130.225 C 156.792 129.590,156.277 128.649,156.148 128.135 C 155.846 126.932,155.200 126.922,155.200 128.120 C 155.200 129.174,156.053 131.192,156.500 131.197 C 156.665 131.199,156.800 131.470,156.800 131.800 C 156.800 132.130,156.980 132.400,157.200 132.400 C 157.420 132.400,157.600 132.670,157.600 133.000 C 157.600 133.330,157.780 133.600,158.000 133.600 C 158.220 133.600,158.400 133.788,158.400 134.017 C 158.400 134.246,158.760 134.820,159.200 135.292 C 159.640 135.764,160.000 136.533,160.000 137.000 C 160.000 137.467,160.325 138.198,160.722 138.625 C 161.120 139.051,161.703 139.985,162.020 140.700 C 162.336 141.415,162.731 142.000,162.898 142.000 C 163.064 142.000,163.200 142.270,163.200 142.600 C 163.200 142.930,163.380 143.200,163.600 143.200 C 163.820 143.200,164.000 143.560,164.000 144.000 C 164.000 144.440,164.180 144.800,164.400 144.800 C 164.620 144.800,164.800 145.120,164.800 145.512 C 164.800 145.903,165.160 146.483,165.600 146.800 C 166.040 147.117,166.400 147.697,166.400 148.088 C 166.400 148.480,166.535 148.801,166.700 148.803 C 167.059 148.807,168.000 150.744,168.000 151.480 C 168.000 151.766,168.180 152.000,168.400 152.000 C 168.620 152.000,168.800 152.236,168.800 152.525 C 168.800 152.813,169.160 153.436,169.600 153.908 C 170.040 154.380,170.400 155.004,170.400 155.295 C 170.400 155.586,170.760 156.083,171.200 156.400 C 171.641 156.718,172.000 157.435,172.000 158.000 C 172.000 158.565,172.359 159.282,172.800 159.600 C 173.240 159.917,173.600 160.497,173.600 160.888 C 173.600 161.280,173.780 161.600,174.000 161.600 C 174.220 161.600,174.400 161.836,174.400 162.125 C 174.400 162.413,174.760 163.036,175.200 163.508 C 175.640 163.980,176.000 164.644,176.000 164.983 C 176.000 165.322,176.180 165.600,176.400 165.600 C 176.620 165.600,176.800 165.960,176.800 166.400 C 176.800 166.840,176.980 167.200,177.200 167.200 C 177.420 167.200,177.600 167.436,177.600 167.725 C 177.600 168.013,177.960 168.636,178.400 169.108 C 178.840 169.580,179.200 170.204,179.200 170.495 C 179.200 170.786,179.560 171.283,180.000 171.600 C 180.440 171.917,180.800 172.576,180.800 173.065 C 180.800 173.553,180.980 174.064,181.200 174.200 C 181.420 174.336,181.600 174.708,181.600 175.027 C 181.600 175.346,182.140 176.172,182.800 176.863 C 183.460 177.554,184.000 178.362,184.000 178.659 C 184.000 178.957,184.180 179.200,184.400 179.200 C 184.620 179.200,184.800 179.560,184.800 180.000 C 184.800 180.440,184.980 180.800,185.200 180.800 C 185.420 180.800,185.600 181.160,185.600 181.600 C 185.600 182.040,185.780 182.400,186.000 182.400 C 186.220 182.400,186.400 182.694,186.400 183.053 C 186.400 183.412,186.715 183.999,187.100 184.357 C 188.001 185.196,188.800 186.623,188.800 187.395 C 188.800 187.728,188.980 188.000,189.200 188.000 C 189.420 188.000,189.600 188.320,189.600 188.712 C 189.600 189.103,189.960 189.683,190.400 190.000 C 190.840 190.317,191.200 190.857,191.200 191.200 C 191.200 191.543,191.560 192.083,192.000 192.400 C 192.470 192.739,192.800 193.435,192.800 194.088 C 192.800 194.700,192.980 195.200,193.200 195.200 C 193.420 195.200,193.600 195.494,193.600 195.853 C 193.600 196.212,193.915 196.798,194.300 197.154 C 195.096 197.891,196.341 199.858,196.671 200.900 C 196.793 201.285,197.052 201.600,197.247 201.600 C 197.441 201.600,197.606 202.005,197.613 202.500 C 197.633 203.909,198.547 204.800,199.973 204.800 C 201.195 204.800,202.400 204.060,202.400 203.308 C 202.400 202.706,203.386 200.806,203.700 200.803 C 203.865 200.801,204.000 200.440,204.000 200.000 C 204.000 199.560,204.180 199.200,204.400 199.200 C 204.620 199.200,204.800 198.880,204.800 198.488 C 204.800 198.097,205.160 197.517,205.600 197.200 C 206.040 196.883,206.400 196.303,206.400 195.912 C 206.400 195.520,206.580 195.200,206.800 195.200 C 207.020 195.200,207.200 194.748,207.200 194.196 C 207.200 193.627,207.719 192.649,208.400 191.937 C 209.060 191.246,209.600 190.521,209.600 190.324 C 209.600 190.127,209.960 189.580,210.400 189.108 C 210.840 188.636,211.200 187.833,211.200 187.325 C 211.200 186.816,211.380 186.400,211.600 186.400 C 211.820 186.400,212.000 186.122,212.000 185.783 C 212.000 185.444,212.360 184.780,212.800 184.308 C 213.240 183.836,213.600 183.213,213.600 182.925 C 213.600 182.636,213.780 182.400,214.000 182.400 C 214.220 182.400,214.400 182.122,214.400 181.783 C 214.400 181.444,214.760 180.780,215.200 180.308 C 215.640 179.836,216.000 179.150,216.000 178.784 C 216.000 178.418,216.540 177.554,217.200 176.863 C 217.860 176.172,218.400 175.336,218.400 175.004 C 218.400 174.672,218.580 174.400,218.800 174.400 C 219.020 174.400,219.200 173.900,219.200 173.288 C 219.200 172.635,219.530 171.939,220.000 171.600 C 220.440 171.283,220.800 170.769,220.800 170.459 C 220.800 170.148,221.140 169.599,221.555 169.239 C 222.534 168.390,224.000 165.774,224.000 164.876 C 224.000 164.491,224.360 163.917,224.800 163.600 C 225.240 163.283,225.600 162.703,225.600 162.312 C 225.600 161.920,225.780 161.600,226.000 161.600 C 226.220 161.600,226.404 161.375,226.409 161.100 C 226.414 160.825,226.770 160.150,227.200 159.600 C 227.630 159.050,227.986 158.283,227.991 157.896 C 227.996 157.509,228.540 156.628,229.200 155.937 C 229.860 155.246,230.400 154.438,230.400 154.141 C 230.400 153.843,230.580 153.600,230.800 153.600 C 231.020 153.600,231.200 153.240,231.200 152.800 C 231.200 152.360,231.380 152.000,231.600 152.000 C 231.820 152.000,232.000 151.640,232.000 151.200 C 232.000 150.760,232.180 150.400,232.400 150.400 C 232.620 150.400,232.800 150.128,232.800 149.795 C 232.800 149.076,233.562 147.650,234.400 146.800 C 235.238 145.950,236.000 144.524,236.000 143.805 C 236.000 143.472,236.180 143.200,236.400 143.200 C 236.620 143.200,236.800 142.930,236.800 142.600 C 236.800 142.270,236.980 142.000,237.200 142.000 C 237.420 142.000,237.600 141.730,237.600 141.400 C 237.600 141.070,237.780 140.800,238.000 140.800 C 238.220 140.800,238.400 140.480,238.400 140.088 C 238.400 139.697,238.760 139.117,239.200 138.800 C 239.670 138.461,240.000 137.765,240.000 137.112 C 240.000 136.500,240.150 136.000,240.332 136.000 C 240.515 136.000,240.920 135.505,241.232 134.900 C 241.545 134.295,242.115 133.451,242.500 133.025 C 242.885 132.598,243.200 132.096,243.200 131.908 C 243.200 131.720,243.560 131.180,244.000 130.708 C 244.440 130.236,244.800 129.431,244.800 128.921 C 244.800 128.410,245.340 127.428,246.000 126.737 C 246.660 126.046,247.200 125.238,247.200 124.941 C 247.200 124.643,247.380 124.400,247.600 124.400 C 247.820 124.400,248.000 124.040,248.000 123.600 C 248.000 123.160,248.180 122.800,248.400 122.800 C 248.620 122.800,248.800 122.438,248.800 121.995 C 248.800 121.057,249.418 119.900,250.745 118.350 C 251.873 117.033,252.800 115.321,252.800 114.554 C 252.800 114.249,252.936 114.000,253.102 114.000 C 253.269 114.000,253.660 113.415,253.972 112.700 C 254.284 111.985,254.868 111.109,255.270 110.753 C 255.671 110.397,256.000 109.902,256.000 109.653 C 256.000 109.404,256.180 109.200,256.400 109.200 C 256.620 109.200,256.800 108.795,256.801 108.300 C 256.801 107.805,257.341 106.770,258.000 106.000 C 258.659 105.230,259.199 104.285,259.199 103.900 C 259.200 103.515,259.380 103.200,259.600 103.200 C 259.820 103.200,260.000 102.930,260.000 102.600 C 260.000 102.270,260.180 102.000,260.400 102.000 C 260.620 102.000,260.800 101.381,260.800 100.624 C 260.800 99.867,260.980 99.136,261.200 99.000 C 261.420 98.864,261.600 98.403,261.600 97.976 C 261.600 97.549,261.780 97.200,262.000 97.200 C 262.220 97.200,262.400 96.840,262.400 96.400 C 262.400 95.960,262.580 95.600,262.800 95.600 C 263.020 95.600,263.200 95.060,263.200 94.400 C 263.200 93.740,263.380 93.200,263.600 93.200 C 263.820 93.200,264.000 92.851,264.000 92.424 C 264.000 91.997,264.180 91.536,264.400 91.400 C 264.620 91.264,264.800 90.533,264.800 89.776 C 264.800 89.019,264.980 88.400,265.200 88.400 C 265.435 88.400,265.600 87.000,265.600 85.000 C 265.600 80.854,264.923 80.474,264.709 84.500 " stroke="none" fill="#7fdeee" fill-rule="evenodd"></path><path id="path3" d="M191.600 8.421 C 190.969 8.637,191.632 8.678,193.400 8.532 C 194.940 8.405,196.275 8.234,196.367 8.151 C 196.696 7.853,192.579 8.087,191.600 8.421 M205.400 8.418 C 206.500 8.590,207.940 8.724,208.600 8.718 L 209.800 8.705 208.600 8.400 C 207.940 8.232,206.500 8.097,205.400 8.101 L 203.400 8.107 205.400 8.418 M187.400 9.200 L 186.600 9.544 187.400 9.544 C 187.840 9.544,188.560 9.389,189.000 9.200 L 189.800 8.856 189.000 8.856 C 188.560 8.856,187.840 9.011,187.400 9.200 M211.000 9.200 C 212.184 9.709,213.587 9.709,212.800 9.200 C 212.470 8.987,211.750 8.822,211.200 8.834 C 210.284 8.854,210.267 8.885,211.000 9.200 M183.000 10.000 L 182.200 10.344 183.000 10.344 C 183.440 10.344,184.160 10.189,184.600 10.000 L 185.400 9.656 184.600 9.656 C 184.160 9.656,183.440 9.811,183.000 10.000 M215.400 10.000 C 216.584 10.509,217.987 10.509,217.200 10.000 C 216.870 9.787,216.150 9.622,215.600 9.634 C 214.684 9.654,214.667 9.685,215.400 10.000 M177.133 11.516 C 177.060 11.690,175.943 12.328,174.651 12.934 C 173.359 13.540,172.384 14.117,172.483 14.217 C 172.660 14.394,176.820 12.441,178.000 11.626 C 178.522 11.266,178.513 11.211,177.933 11.206 C 177.567 11.203,177.207 11.342,177.133 11.516 M222.710 12.001 C 223.430 12.441,224.150 12.796,224.310 12.791 C 224.868 12.774,222.594 11.218,222.000 11.210 C 221.670 11.206,221.989 11.562,222.710 12.001 M225.910 13.601 C 226.630 14.041,227.350 14.396,227.510 14.391 C 228.068 14.374,225.794 12.818,225.200 12.810 C 224.870 12.806,225.189 13.162,225.910 13.601 M168.000 16.000 C 167.450 16.430,166.775 16.786,166.500 16.791 C 166.225 16.796,166.000 16.941,166.000 17.114 C 166.000 17.286,165.448 17.754,164.772 18.153 C 164.097 18.552,163.621 18.954,163.714 19.047 C 163.911 19.245,168.679 16.120,169.018 15.570 C 169.355 15.026,169.118 15.126,168.000 16.000 M232.800 16.782 C 235.370 18.795,235.950 19.200,236.263 19.196 C 236.719 19.190,234.075 17.124,232.812 16.499 L 231.800 15.999 232.800 16.782 M160.376 21.046 C 159.179 22.062,158.125 22.962,158.033 23.046 C 157.942 23.131,158.041 23.200,158.255 23.200 C 158.469 23.200,159.354 22.549,160.222 21.753 C 161.090 20.958,162.155 20.058,162.589 19.753 C 163.023 19.449,163.192 19.200,162.965 19.200 C 162.738 19.200,161.573 20.031,160.376 21.046 M237.800 19.951 C 238.460 20.362,239.529 21.261,240.175 21.949 C 240.821 22.637,241.509 23.200,241.703 23.200 C 242.316 23.200,237.829 19.231,237.200 19.217 C 236.870 19.209,237.140 19.540,237.800 19.951 M156.027 24.630 C 155.312 25.416,154.811 26.145,154.915 26.248 C 155.019 26.352,155.680 25.709,156.385 24.818 C 157.971 22.816,157.773 22.712,156.027 24.630 M243.626 24.700 C 244.837 26.087,246.400 27.440,246.400 27.100 C 246.400 26.808,242.894 23.200,242.610 23.200 C 242.449 23.200,242.906 23.875,243.626 24.700 M153.300 26.944 C 152.805 27.189,152.400 27.533,152.400 27.709 C 152.400 28.094,153.855 27.359,154.201 26.798 C 154.337 26.579,154.392 26.422,154.324 26.449 C 154.256 26.476,153.795 26.699,153.300 26.944 M247.465 28.300 C 248.411 29.824,249.667 31.200,250.112 31.200 C 250.317 31.200,249.951 30.701,249.298 30.092 C 248.646 29.483,247.985 28.583,247.829 28.092 C 247.673 27.601,247.374 27.200,247.164 27.200 C 246.954 27.200,247.089 27.695,247.465 28.300 M151.068 29.819 C 150.462 30.578,150.141 31.200,150.356 31.200 C 150.792 31.200,152.577 28.844,152.329 28.596 C 152.242 28.508,151.674 29.059,151.068 29.819 M148.662 31.931 C 148.298 32.334,148.000 32.926,148.000 33.248 C 148.000 33.570,147.415 34.473,146.700 35.255 C 144.415 37.754,143.200 39.586,143.200 40.533 C 143.200 40.831,142.480 42.190,141.600 43.551 C 140.720 44.913,140.000 46.381,140.000 46.813 C 140.000 47.246,139.820 47.600,139.600 47.600 C 139.380 47.600,139.200 47.962,139.200 48.405 C 139.200 48.848,139.041 49.523,138.847 49.905 C 138.207 51.162,137.702 52.560,136.789 55.600 C 136.294 57.250,135.733 59.013,135.544 59.519 C 135.355 60.024,135.200 61.520,135.200 62.842 C 135.200 64.344,135.050 65.154,134.800 65.000 C 134.567 64.856,134.400 65.263,134.400 65.976 C 134.400 66.649,134.558 67.200,134.750 67.200 C 135.217 67.200,135.600 65.164,135.600 62.678 C 135.600 61.567,135.776 60.104,135.991 59.428 C 138.061 52.930,138.411 51.947,139.247 50.305 C 139.441 49.923,139.600 49.259,139.600 48.829 C 139.600 48.399,139.780 47.936,140.000 47.800 C 140.220 47.664,140.400 47.231,140.400 46.838 C 140.400 46.445,141.120 45.010,142.000 43.649 C 142.880 42.287,143.600 41.005,143.600 40.799 C 143.600 40.096,145.279 37.432,146.841 35.658 C 147.698 34.684,148.400 33.612,148.400 33.275 C 148.400 32.938,148.698 32.334,149.062 31.931 C 149.426 31.529,149.634 31.200,149.524 31.200 C 149.414 31.200,149.026 31.529,148.662 31.931 M250.800 31.325 C 250.800 31.933,252.613 34.943,253.637 36.033 C 254.342 36.785,255.513 38.660,256.238 40.200 C 256.964 41.740,258.017 43.620,258.579 44.378 C 259.140 45.135,259.600 46.160,259.600 46.654 C 259.600 47.148,259.780 47.664,260.000 47.800 C 260.220 47.936,260.400 48.309,260.400 48.628 C 260.400 49.147,260.925 50.487,262.347 53.600 L 262.804 54.600 262.577 53.600 C 262.348 52.594,261.809 51.194,261.153 49.905 C 260.959 49.523,260.800 48.848,260.800 48.405 C 260.800 47.962,260.620 47.600,260.400 47.600 C 260.180 47.600,260.000 47.105,260.000 46.500 C 259.999 45.895,259.538 44.864,258.975 44.210 C 258.413 43.555,257.693 42.430,257.376 41.710 C 257.059 40.989,256.532 39.792,256.205 39.049 C 255.877 38.307,254.970 37.002,254.188 36.149 C 253.407 35.297,252.395 33.835,251.940 32.900 C 251.231 31.444,250.800 30.849,250.800 31.325 M263.002 55.600 C 263.131 56.150,263.498 57.554,263.818 58.720 C 264.138 59.885,264.402 61.415,264.404 62.120 C 264.411 64.100,264.867 66.400,265.252 66.400 C 265.444 66.400,265.600 65.950,265.600 65.400 C 265.600 64.850,265.420 64.400,265.200 64.400 C 264.980 64.400,264.800 63.468,264.800 62.328 C 264.800 60.304,264.458 58.834,263.326 56.000 C 263.018 55.230,262.873 55.050,263.002 55.600 M181.569 56.701 C 181.258 57.305,180.329 58.520,179.506 59.400 C 177.412 61.638,177.625 61.882,179.800 59.737 C 180.790 58.761,181.600 57.737,181.600 57.461 C 181.600 57.186,181.813 56.747,182.073 56.487 C 182.334 56.226,182.454 55.921,182.341 55.807 C 182.227 55.694,181.880 56.096,181.569 56.701 M176.558 64.566 C 176.438 64.878,176.405 65.643,176.484 66.266 C 176.602 67.191,176.664 67.087,176.825 65.700 C 177.027 63.951,176.938 63.575,176.558 64.566 M134.558 73.400 C 134.558 76.480,134.621 77.687,134.697 76.082 C 134.773 74.478,134.773 71.958,134.696 70.482 C 134.619 69.007,134.557 70.320,134.558 73.400 M175.761 68.558 C 175.643 68.865,175.618 69.810,175.706 70.658 C 175.860 72.149,175.868 72.138,175.933 70.333 C 175.971 69.271,176.215 68.380,176.500 68.265 C 176.892 68.107,176.889 68.056,176.487 68.032 C 176.206 68.014,175.879 68.251,175.761 68.558 M265.354 73.200 C 265.354 75.950,265.418 77.075,265.496 75.700 C 265.574 74.325,265.574 72.075,265.496 70.700 C 265.418 69.325,265.354 70.450,265.354 73.200 M175.683 76.200 C 175.651 77.080,175.890 78.149,176.213 78.576 C 176.725 79.254,176.800 79.266,176.800 78.676 C 176.800 78.304,176.630 78.000,176.423 78.000 C 176.216 78.000,175.977 77.235,175.893 76.300 L 175.740 74.600 175.683 76.200 M134.400 80.400 C 134.400 80.840,134.580 81.200,134.800 81.200 C 135.020 81.200,135.200 82.160,135.200 83.334 C 135.200 84.508,135.544 86.533,135.964 87.834 C 136.384 89.135,136.826 90.560,136.947 91.000 C 137.068 91.440,137.101 91.260,137.022 90.600 C 136.942 89.940,136.591 88.410,136.243 87.200 C 135.895 85.990,135.605 84.190,135.599 83.200 C 135.587 81.064,135.243 79.600,134.753 79.600 C 134.559 79.600,134.400 79.960,134.400 80.400 M176.406 80.633 C 176.409 81.055,176.595 81.670,176.818 82.000 C 177.115 82.438,177.152 82.276,176.956 81.400 C 176.627 79.929,176.398 79.610,176.406 80.633 M264.650 81.250 C 264.512 81.938,264.400 83.284,264.400 84.242 C 264.400 85.865,263.194 90.519,262.365 92.095 C 262.164 92.477,262.004 93.017,262.009 93.295 C 262.014 93.573,262.256 93.260,262.546 92.600 C 263.988 89.318,264.569 87.144,264.709 84.500 C 264.794 82.905,265.029 81.600,265.232 81.600 C 265.434 81.600,265.600 81.240,265.600 80.800 C 265.600 79.545,264.927 79.864,264.650 81.250 M219.700 87.580 C 218.985 88.442,218.400 89.265,218.400 89.411 C 218.400 89.557,219.030 88.922,219.800 88.000 C 221.066 86.485,221.391 85.986,221.100 86.007 C 221.045 86.011,220.415 86.719,219.700 87.580 M180.814 88.222 C 180.830 88.624,182.795 91.155,182.798 90.778 C 182.799 90.655,182.350 89.945,181.800 89.200 C 181.250 88.455,180.806 88.015,180.814 88.222 M137.872 93.900 C 138.220 94.945,138.662 96.113,138.853 96.495 C 139.044 96.877,139.200 97.462,139.200 97.795 C 139.200 98.128,139.380 98.400,139.600 98.400 C 139.820 98.400,140.000 98.869,140.000 99.442 C 140.000 100.015,140.450 101.019,141.000 101.673 C 142.174 103.068,142.345 102.664,141.200 101.200 C 140.770 100.650,140.414 99.943,140.409 99.628 C 140.395 98.715,139.470 96.400,139.120 96.400 C 138.944 96.400,138.800 96.062,138.800 95.649 C 138.800 94.858,137.714 92.000,137.414 92.000 C 137.317 92.000,137.523 92.855,137.872 93.900 M261.467 94.267 C 261.320 94.413,261.200 94.830,261.200 95.192 C 261.200 95.554,260.840 96.595,260.400 97.506 C 259.960 98.416,259.600 99.447,259.600 99.797 C 259.600 100.146,259.269 100.920,258.864 101.516 C 257.257 103.882,255.600 106.884,255.600 107.430 C 255.600 107.748,255.103 108.527,254.496 109.162 C 253.334 110.378,251.601 113.354,251.598 114.138 C 251.597 114.392,250.916 115.500,250.085 116.600 C 249.253 117.700,248.323 119.230,248.017 120.000 C 247.711 120.770,247.132 121.878,246.730 122.462 C 246.329 123.046,246.000 123.655,246.000 123.816 C 246.000 124.448,247.546 122.081,248.501 119.986 C 249.056 118.769,249.797 117.535,250.147 117.244 C 250.886 116.631,252.000 114.523,252.000 113.739 C 252.000 113.442,252.180 113.200,252.400 113.200 C 252.620 113.200,252.800 112.865,252.800 112.456 C 252.800 112.047,253.520 110.895,254.400 109.895 C 255.280 108.895,256.000 107.808,256.000 107.480 C 256.000 106.797,259.137 101.469,259.657 101.267 C 259.846 101.193,260.000 100.696,260.000 100.161 C 260.000 99.627,260.159 98.877,260.353 98.495 C 261.739 95.771,262.374 93.360,261.467 94.267 M143.353 105.686 C 143.709 106.283,144.000 107.048,144.000 107.385 C 144.000 107.722,144.630 108.666,145.400 109.482 C 146.170 110.299,146.800 110.783,146.800 110.558 C 146.800 110.333,146.260 109.632,145.600 109.000 C 144.940 108.368,144.396 107.569,144.391 107.225 C 144.386 106.881,144.005 106.150,143.544 105.600 L 142.705 104.600 143.353 105.686 M146.895 111.500 C 146.974 111.665,147.278 112.340,147.572 113.000 C 147.866 113.660,148.273 114.567,148.476 115.015 C 148.965 116.097,151.600 119.414,151.600 118.947 C 151.600 118.747,151.095 117.956,150.478 117.191 C 149.861 116.426,148.857 114.765,148.248 113.500 C 147.639 112.235,147.054 111.200,146.947 111.200 C 146.840 111.200,146.817 111.335,146.895 111.500 M151.812 120.450 C 151.976 120.972,152.625 122.152,153.255 123.072 C 153.885 123.992,154.400 124.915,154.400 125.123 C 154.400 125.332,154.668 125.724,154.996 125.996 C 155.323 126.268,155.493 126.650,155.372 126.845 C 155.251 127.040,155.330 127.200,155.547 127.200 C 155.764 127.200,156.024 127.515,156.124 127.900 C 156.272 128.464,156.316 128.437,156.354 127.762 C 156.379 127.301,156.040 126.598,155.600 126.200 C 155.160 125.802,154.800 125.311,154.800 125.110 C 154.800 124.909,154.260 123.959,153.600 123.000 C 152.940 122.041,152.400 120.984,152.400 120.652 C 152.400 120.319,152.201 119.924,151.957 119.774 C 151.653 119.585,151.607 119.797,151.812 120.450 M244.653 125.991 C 244.074 126.867,243.600 127.819,243.600 128.107 C 243.600 128.395,243.067 129.253,242.416 130.015 C 241.765 130.777,241.225 131.548,241.216 131.728 C 241.207 131.908,240.660 132.841,240.000 133.800 C 239.340 134.759,238.800 135.862,238.800 136.250 C 238.800 136.639,238.372 137.416,237.849 137.978 C 236.483 139.446,234.792 142.678,234.847 143.714 C 234.891 144.535,234.913 144.527,235.150 143.600 C 235.597 141.845,237.571 138.444,238.399 138.000 C 238.840 137.765,239.200 137.177,239.200 136.694 C 239.200 135.790,241.422 131.871,243.069 129.869 C 243.581 129.247,244.000 128.407,244.000 128.003 C 244.000 127.598,244.135 127.207,244.300 127.133 C 244.645 126.980,246.132 124.400,245.876 124.400 C 245.783 124.400,245.232 125.116,244.653 125.991 M156.401 128.845 C 156.400 128.980,156.940 129.769,157.600 130.600 C 158.260 131.431,158.800 131.950,158.799 131.755 C 158.799 131.560,158.259 130.770,157.600 130.000 C 156.941 129.230,156.401 128.710,156.401 128.845 M159.429 133.500 C 159.826 134.105,160.385 135.050,160.673 135.600 C 160.960 136.150,161.196 136.371,161.198 136.091 C 161.200 135.559,159.235 132.400,158.901 132.400 C 158.795 132.400,159.033 132.895,159.429 133.500 M161.216 137.015 C 161.225 137.227,161.765 138.023,162.416 138.785 C 163.067 139.547,163.593 139.997,163.584 139.785 C 163.575 139.573,163.035 138.777,162.384 138.015 C 161.733 137.253,161.207 136.803,161.216 137.015 M164.181 141.480 C 164.521 142.184,164.800 143.110,164.800 143.537 C 164.800 143.965,165.070 144.418,165.400 144.545 C 165.730 144.671,166.000 145.051,166.000 145.387 C 166.000 145.724,166.183 146.000,166.406 146.000 C 166.629 146.000,167.168 146.585,167.604 147.300 C 168.040 148.015,168.398 148.399,168.399 148.152 C 168.399 147.906,167.707 146.826,166.859 145.752 C 166.012 144.679,165.210 143.350,165.077 142.800 C 164.944 142.250,164.548 141.440,164.198 141.000 C 163.613 140.265,163.612 140.305,164.181 141.480 M234.032 144.886 C 234.014 145.263,233.663 145.752,233.250 145.973 C 232.838 146.194,232.118 147.188,231.650 148.183 C 230.748 150.103,230.498 151.546,231.302 150.200 C 231.769 149.417,231.848 149.198,231.950 148.414 C 231.978 148.202,232.556 147.395,233.236 146.621 C 233.915 145.847,234.379 144.985,234.267 144.707 C 234.140 144.391,234.051 144.458,234.032 144.886 M168.598 149.650 C 168.925 150.745,170.508 153.226,170.735 152.999 C 170.819 152.915,170.508 152.313,170.044 151.661 C 169.580 151.010,169.200 150.200,169.200 149.862 C 169.200 149.524,169.001 149.124,168.757 148.974 C 168.454 148.786,168.404 149.000,168.598 149.650 M229.862 151.931 C 229.498 152.334,229.200 152.840,229.200 153.056 C 229.200 153.272,228.885 153.807,228.500 154.245 C 227.594 155.275,226.800 156.670,226.800 157.233 C 226.800 157.477,226.423 158.244,225.963 158.938 L 225.127 160.200 226.163 159.078 C 226.733 158.460,227.200 157.678,227.200 157.339 C 227.200 157.001,227.535 156.246,227.943 155.662 C 229.149 153.940,230.822 151.200,230.667 151.200 C 230.588 151.200,230.226 151.529,229.862 151.931 M171.752 154.967 C 172.328 155.816,172.800 156.697,172.800 156.922 C 172.800 157.148,172.903 157.230,173.029 157.104 C 173.338 156.795,172.219 154.680,171.378 153.982 C 171.007 153.674,171.175 154.117,171.752 154.967 M173.216 158.267 C 173.207 158.523,173.338 158.793,173.507 158.867 C 173.676 158.940,174.216 159.519,174.707 160.154 C 175.198 160.789,175.600 161.142,175.600 160.939 C 175.600 160.381,173.235 157.729,173.216 158.267 M224.391 160.900 C 224.386 161.175,224.030 161.850,223.600 162.400 C 222.839 163.373,222.436 164.572,223.136 163.780 C 224.022 162.777,225.216 160.400,224.833 160.400 C 224.595 160.400,224.396 160.625,224.391 160.900 M176.186 162.700 C 176.535 163.415,176.906 164.000,177.010 164.000 C 177.408 164.000,177.152 163.363,176.367 162.400 L 175.552 161.400 176.186 162.700 M177.214 164.571 C 177.194 165.097,180.094 169.240,180.322 169.011 C 180.426 168.907,179.991 168.153,179.356 167.336 C 178.720 166.519,177.981 165.479,177.714 165.025 C 177.447 164.571,177.222 164.367,177.214 164.571 M221.930 165.774 C 220.173 168.125,218.733 170.467,218.927 170.660 C 219.045 170.778,219.452 170.273,219.832 169.537 C 220.212 168.802,221.066 167.525,221.729 166.700 C 222.391 165.875,222.859 165.128,222.767 165.039 C 222.675 164.951,222.299 165.282,221.930 165.774 M180.986 170.700 C 181.335 171.415,181.706 172.000,181.810 172.000 C 182.208 172.000,181.952 171.363,181.167 170.400 L 180.352 169.400 180.986 170.700 M218.267 171.467 C 218.120 171.613,217.999 172.018,217.998 172.367 C 217.997 172.715,217.266 173.964,216.373 175.141 C 215.480 176.319,214.817 177.350,214.899 177.433 C 215.193 177.726,218.044 173.642,218.391 172.432 C 218.753 171.169,218.732 171.002,218.267 171.467 M182.000 173.014 C 182.000 173.334,183.242 175.248,184.283 176.531 C 184.907 177.300,185.200 177.460,185.200 177.031 C 185.200 176.684,185.065 176.400,184.900 176.399 C 184.735 176.399,184.088 175.589,183.463 174.599 C 182.407 172.928,182.000 172.487,182.000 173.014 M213.232 180.724 C 213.214 181.012,212.557 182.090,211.771 183.120 C 210.985 184.149,210.244 185.479,210.125 186.075 C 210.006 186.671,209.569 187.466,209.154 187.842 C 208.739 188.217,208.400 188.690,208.400 188.893 C 208.400 189.667,210.308 186.928,210.782 185.472 C 211.056 184.632,211.532 183.847,211.840 183.729 C 212.148 183.611,212.400 183.323,212.400 183.089 C 212.400 182.855,212.688 182.344,213.041 181.955 C 213.394 181.565,213.588 181.011,213.473 180.723 C 213.300 180.293,213.258 180.293,213.232 180.724 M186.813 181.362 C 186.795 181.867,188.838 184.495,189.069 184.264 C 189.173 184.161,188.978 183.744,188.636 183.338 C 188.295 182.932,187.747 182.240,187.420 181.800 C 187.093 181.360,186.820 181.163,186.813 181.362 M191.766 189.700 C 191.895 189.975,192.111 190.515,192.246 190.900 C 192.382 191.285,192.657 191.600,192.857 191.600 C 193.057 191.600,192.941 191.060,192.600 190.400 C 192.011 189.262,191.273 188.642,191.766 189.700 M207.146 191.100 C 205.898 193.106,205.716 193.621,206.686 192.400 C 207.582 191.273,208.518 189.600,208.254 189.600 C 208.158 189.600,207.659 190.275,207.146 191.100 M194.000 193.921 C 194.000 194.124,194.540 194.969,195.200 195.800 C 195.860 196.631,196.400 197.133,196.400 196.917 C 196.400 196.701,196.040 196.198,195.600 195.800 C 195.160 195.402,194.800 194.845,194.800 194.562 C 194.800 194.279,194.620 193.936,194.400 193.800 C 194.180 193.664,194.000 193.719,194.000 193.921 M205.006 195.088 L 204.304 196.200 205.230 195.311 C 205.739 194.822,206.055 194.322,205.932 194.199 C 205.809 194.076,205.392 194.476,205.006 195.088 M203.304 197.474 C 202.617 198.953,202.894 199.025,203.744 197.588 C 204.130 196.934,204.300 196.401,204.123 196.403 C 203.945 196.405,203.577 196.887,203.304 197.474 M201.508 201.065 C 200.279 203.412,199.966 203.528,199.050 201.976 C 198.649 201.299,198.230 200.837,198.117 200.949 C 197.773 201.294,199.651 203.649,200.141 203.488 C 200.721 203.296,202.995 199.661,202.712 199.378 C 202.596 199.263,202.055 200.022,201.508 201.065 " stroke="none" fill="#59d7ea" fill-rule="evenodd"></path><path id="path4" d="M193.000 8.619 C 191.020 8.900,188.320 9.332,187.000 9.579 C 185.680 9.827,183.565 10.134,182.300 10.263 C 181.035 10.391,180.000 10.655,180.000 10.848 C 180.000 11.042,179.775 11.201,179.500 11.203 C 179.225 11.204,177.200 12.103,175.000 13.200 C 172.800 14.297,170.606 15.196,170.124 15.197 C 169.642 15.199,169.135 15.382,168.997 15.605 C 168.701 16.083,164.633 18.781,163.200 19.448 C 162.650 19.704,161.397 20.653,160.416 21.557 C 159.435 22.461,158.405 23.200,158.128 23.200 C 157.851 23.200,157.214 23.757,156.712 24.437 C 156.210 25.117,155.111 26.182,154.268 26.802 C 153.426 27.423,152.417 28.531,152.026 29.265 C 151.635 29.999,150.948 30.787,150.500 31.016 C 149.262 31.647,148.399 32.447,148.413 32.949 C 148.421 33.197,148.736 33.040,149.113 32.600 C 149.491 32.160,150.283 31.551,150.874 31.247 C 151.464 30.942,152.168 30.161,152.437 29.510 C 152.707 28.859,153.587 27.891,154.393 27.357 C 155.200 26.823,156.254 25.853,156.737 25.200 C 157.219 24.547,158.146 23.738,158.795 23.403 C 159.445 23.067,160.709 22.074,161.604 21.196 C 162.500 20.318,163.486 19.600,163.796 19.600 C 164.388 19.600,167.650 17.529,168.975 16.312 C 169.402 15.920,170.094 15.600,170.514 15.600 C 170.934 15.600,173.115 14.700,175.362 13.600 C 177.609 12.500,179.661 11.600,179.923 11.600 C 180.186 11.600,180.400 11.420,180.400 11.200 C 180.400 10.978,181.459 10.800,182.776 10.800 C 184.083 10.800,185.264 10.620,185.400 10.400 C 185.536 10.180,186.436 10.000,187.400 10.000 C 188.364 10.000,189.248 9.846,189.365 9.657 C 190.095 8.475,207.921 8.431,210.600 9.604 C 211.448 9.976,213.534 10.303,217.300 10.656 C 218.565 10.774,219.600 11.035,219.600 11.236 C 219.600 11.436,219.822 11.600,220.093 11.600 C 220.565 11.600,224.174 13.233,227.254 14.841 C 228.054 15.258,229.179 15.600,229.754 15.600 C 230.330 15.600,230.801 15.735,230.802 15.900 C 230.805 16.282,235.725 19.600,236.290 19.600 C 236.523 19.600,237.588 20.376,238.657 21.324 C 239.726 22.272,241.241 23.435,242.025 23.910 C 242.809 24.384,243.693 25.227,243.990 25.782 C 244.287 26.337,245.032 27.013,245.645 27.284 C 246.258 27.555,246.986 28.233,247.262 28.789 C 248.082 30.441,249.284 31.600,250.170 31.594 C 250.930 31.589,250.917 31.546,250.017 31.091 C 249.476 30.817,248.573 29.915,248.010 29.086 C 247.447 28.257,246.523 27.268,245.957 26.889 C 245.391 26.510,244.341 25.525,243.623 24.700 C 242.905 23.875,242.101 23.200,241.837 23.200 C 241.573 23.200,240.737 22.547,239.978 21.750 C 239.220 20.952,237.880 19.955,237.000 19.534 C 236.120 19.113,234.320 17.975,233.000 17.005 C 231.680 16.034,230.268 15.231,229.862 15.220 C 229.456 15.209,227.002 14.144,224.410 12.854 C 221.183 11.247,219.019 10.430,217.548 10.262 C 216.367 10.127,214.410 9.835,213.200 9.613 C 204.392 7.997,199.194 7.741,193.000 8.619 M251.612 33.923 C 251.599 34.511,254.826 38.743,255.314 38.778 C 255.799 38.812,254.971 37.468,253.611 36.011 C 252.934 35.287,252.211 34.404,252.003 34.048 C 251.750 33.616,251.620 33.574,251.612 33.923 M146.732 35.770 C 145.117 37.632,143.591 40.151,143.616 40.912 C 143.625 41.180,143.921 40.860,144.273 40.200 C 144.626 39.540,145.711 37.947,146.684 36.660 C 148.781 33.887,148.809 33.374,146.732 35.770 M141.831 43.887 C 141.044 45.146,140.400 46.485,140.400 46.864 C 140.400 47.243,140.220 47.664,140.000 47.800 C 139.780 47.936,139.600 48.476,139.600 49.000 C 139.600 49.524,139.420 50.064,139.200 50.200 C 138.980 50.336,138.805 50.752,138.812 51.124 C 138.830 52.136,139.354 51.118,140.426 47.990 C 140.914 46.566,141.622 44.950,142.000 44.400 C 142.915 43.068,143.672 41.600,143.445 41.600 C 143.344 41.600,142.618 42.629,141.831 43.887 M257.200 43.038 C 257.200 43.169,257.531 43.754,257.935 44.338 C 258.339 44.922,258.810 45.760,258.981 46.200 C 259.191 46.739,259.356 46.830,259.487 46.479 C 259.593 46.193,259.188 45.248,258.586 44.379 C 257.528 42.854,257.200 42.536,257.200 43.038 M198.300 48.293 C 199.235 48.377,200.765 48.377,201.700 48.293 C 202.635 48.209,201.870 48.140,200.000 48.140 C 198.130 48.140,197.365 48.209,198.300 48.293 M194.600 48.691 C 193.940 48.785,193.251 49.006,193.068 49.183 C 192.885 49.360,193.477 49.369,194.384 49.203 C 195.727 48.957,197.407 48.257,196.167 48.460 C 195.965 48.493,195.260 48.597,194.600 48.691 M204.800 48.955 C 204.800 49.040,205.330 49.187,205.979 49.282 C 206.627 49.377,207.067 49.308,206.955 49.128 C 206.757 48.807,204.800 48.650,204.800 48.955 M211.600 51.497 C 211.930 51.625,212.798 52.065,213.530 52.475 C 214.261 52.884,214.752 53.047,214.622 52.835 C 214.321 52.348,212.021 51.190,211.439 51.232 C 211.197 51.249,211.270 51.368,211.600 51.497 M262.006 54.276 C 262.003 54.758,262.180 55.264,262.400 55.400 C 262.909 55.715,262.909 54.788,262.400 54.000 C 262.085 53.512,262.011 53.564,262.006 54.276 M137.273 55.262 C 137.060 55.998,136.751 56.960,136.585 57.400 C 136.379 57.944,136.414 58.072,136.693 57.800 C 137.223 57.284,138.145 54.411,137.869 54.136 C 137.753 54.020,137.485 54.527,137.273 55.262 M262.806 56.676 C 262.803 57.158,262.980 57.664,263.200 57.800 C 263.709 58.115,263.709 57.188,263.200 56.400 C 262.885 55.912,262.811 55.964,262.806 56.676 M178.975 59.700 L 177.800 61.000 179.100 59.825 C 179.815 59.179,180.400 58.594,180.400 58.525 C 180.400 58.216,180.070 58.488,178.975 59.700 M263.634 59.600 C 263.622 60.150,263.787 60.870,264.000 61.200 C 264.509 61.987,264.509 60.584,264.000 59.400 C 263.685 58.667,263.654 58.684,263.634 59.600 M135.873 59.753 C 135.723 60.145,135.618 61.036,135.640 61.733 C 135.679 62.967,135.690 62.959,136.049 61.427 C 136.445 59.737,136.324 58.579,135.873 59.753 M264.600 73.000 C 264.600 77.840,264.658 81.395,264.728 80.900 C 264.798 80.405,264.978 80.000,265.128 80.000 C 265.278 80.000,265.400 76.940,265.400 73.200 C 265.400 69.460,265.277 66.400,265.127 66.400 C 264.976 66.400,264.796 65.905,264.727 65.300 C 264.657 64.695,264.600 68.160,264.600 73.000 M135.200 66.400 C 135.200 66.840,135.065 67.200,134.900 67.200 C 134.735 67.200,134.600 69.990,134.600 73.400 C 134.600 76.810,134.722 79.600,134.871 79.600 C 135.020 79.600,135.224 79.915,135.324 80.300 C 135.425 80.685,135.528 77.535,135.554 73.300 C 135.579 69.065,135.510 65.600,135.400 65.600 C 135.290 65.600,135.200 65.960,135.200 66.400 M224.337 71.094 C 224.262 72.356,224.309 74.381,224.441 75.594 C 224.625 77.279,224.696 76.738,224.741 73.300 C 224.803 68.535,224.567 67.244,224.337 71.094 M135.646 84.600 C 135.715 86.231,136.315 87.587,136.354 86.200 C 136.373 85.540,136.213 84.730,136.000 84.400 C 135.681 83.906,135.618 83.941,135.646 84.600 M263.892 85.042 C 263.731 85.202,263.600 85.897,263.600 86.587 C 263.600 87.276,263.403 88.037,263.162 88.278 C 262.922 88.518,262.801 89.049,262.894 89.458 C 263.000 89.918,263.329 89.323,263.763 87.892 C 264.438 85.660,264.494 84.440,263.892 85.042 M182.598 91.137 C 183.034 91.652,183.753 92.259,184.196 92.486 C 185.045 92.921,184.921 92.787,183.003 91.194 C 181.848 90.235,181.834 90.233,182.598 91.137 M216.400 91.660 C 215.630 92.335,215.362 92.705,215.804 92.481 C 216.535 92.111,218.347 90.378,217.962 90.416 C 217.873 90.425,217.170 90.985,216.400 91.660 M137.200 91.329 C 137.200 91.637,138.770 94.569,138.784 94.287 C 138.809 93.792,137.665 91.200,137.420 91.200 C 137.299 91.200,137.200 91.258,137.200 91.329 M138.800 95.506 C 138.800 95.998,138.960 96.400,139.157 96.400 C 139.353 96.400,139.645 96.895,139.806 97.500 C 139.967 98.105,140.176 98.392,140.270 98.137 C 140.365 97.883,140.072 96.986,139.621 96.143 C 138.961 94.913,138.800 94.788,138.800 95.506 M191.600 96.955 C 191.600 97.040,192.140 97.188,192.800 97.285 C 193.460 97.382,194.000 97.313,194.000 97.131 C 194.000 96.949,193.460 96.800,192.800 96.800 C 192.140 96.800,191.600 96.870,191.600 96.955 M197.315 97.896 C 198.588 97.976,200.568 97.975,201.715 97.894 C 202.862 97.814,201.820 97.749,199.400 97.750 C 196.980 97.751,196.042 97.816,197.315 97.896 M140.409 99.415 C 140.414 99.847,140.770 100.650,141.200 101.200 C 142.204 102.483,142.204 102.169,141.200 100.200 C 140.681 99.182,140.403 98.906,140.409 99.415 M258.737 100.615 C 257.765 102.514,256.349 104.958,255.900 105.510 C 255.672 105.790,255.586 106.119,255.708 106.241 C 255.830 106.363,256.418 105.594,257.016 104.531 C 257.613 103.469,258.451 102.096,258.878 101.480 C 259.304 100.864,259.584 100.151,259.498 99.895 C 259.413 99.639,259.071 99.963,258.737 100.615 M142.822 104.200 C 142.820 104.420,143.170 105.050,143.600 105.600 C 144.030 106.150,144.386 106.884,144.391 107.230 C 144.396 107.577,144.860 108.293,145.423 108.822 C 145.986 109.351,146.985 110.912,147.644 112.292 C 148.802 114.718,149.550 115.737,148.825 113.900 C 147.704 111.061,147.105 109.938,146.171 108.931 C 145.599 108.314,144.895 107.266,144.608 106.604 C 143.996 105.194,142.827 103.621,142.822 104.200 M253.629 109.491 C 252.953 110.311,252.409 111.166,252.421 111.391 C 252.433 111.616,252.748 111.359,253.121 110.820 C 253.494 110.281,254.213 109.426,254.718 108.920 C 255.223 108.414,255.461 108.000,255.247 108.000 C 255.033 108.000,254.305 108.671,253.629 109.491 M149.208 115.374 C 149.203 115.580,149.542 116.120,149.961 116.574 C 150.858 117.547,152.400 120.245,152.400 120.840 C 152.400 121.069,152.940 122.041,153.600 123.000 C 154.260 123.959,154.800 124.909,154.800 125.110 C 154.800 125.311,155.160 125.802,155.600 126.200 C 156.040 126.598,156.400 127.301,156.401 127.762 C 156.401 128.223,156.941 129.230,157.600 130.000 C 158.259 130.770,158.799 131.548,158.799 131.728 C 158.800 131.908,159.340 132.841,160.000 133.800 C 160.660 134.759,161.200 135.765,161.200 136.034 C 161.200 136.304,161.695 137.171,162.300 137.962 C 163.606 139.669,165.200 142.569,165.200 143.240 C 165.200 143.503,165.802 144.456,166.538 145.359 C 167.708 146.793,168.483 148.182,169.349 150.400 C 169.572 150.973,170.320 152.195,172.299 155.224 C 172.793 155.981,173.198 156.858,173.199 157.174 C 173.199 157.490,173.542 158.120,173.961 158.574 C 174.761 159.443,176.004 161.521,177.323 164.200 C 177.757 165.080,178.627 166.426,179.256 167.191 C 179.885 167.956,180.404 168.766,180.409 168.991 C 180.414 169.216,180.770 169.850,181.200 170.400 C 181.630 170.950,181.986 171.638,181.991 171.928 C 182.001 172.513,184.365 176.122,184.877 176.333 C 185.055 176.407,185.200 176.801,185.200 177.210 C 185.200 177.618,185.380 178.064,185.600 178.200 C 185.820 178.336,186.000 178.719,186.000 179.052 C 186.000 179.567,188.092 182.998,188.774 183.600 C 189.253 184.024,190.000 185.618,190.000 186.218 C 190.000 186.564,190.526 187.511,191.168 188.323 C 191.810 189.136,193.005 191.110,193.823 192.711 C 194.641 194.311,195.451 195.708,195.622 195.814 C 195.794 195.920,196.585 197.310,197.380 198.903 C 200.009 204.167,199.954 204.157,202.199 199.736 C 203.076 198.011,203.893 196.510,204.015 196.400 C 204.565 195.907,206.000 193.636,206.000 193.258 C 206.000 193.028,206.540 192.040,207.200 191.062 C 207.860 190.084,208.400 189.113,208.400 188.904 C 208.400 188.695,208.739 188.217,209.154 187.842 C 209.569 187.466,210.006 186.671,210.125 186.075 C 210.244 185.479,210.985 184.149,211.771 183.120 C 212.557 182.090,213.200 181.057,213.200 180.824 C 213.200 180.591,213.336 180.400,213.503 180.400 C 213.669 180.400,214.029 179.684,214.302 178.809 C 214.575 177.935,215.518 176.270,216.397 175.109 C 217.277 173.949,217.997 172.781,217.998 172.514 C 218.001 171.823,219.891 168.511,221.464 166.442 C 222.199 165.476,222.804 164.396,222.809 164.042 C 222.814 163.689,223.170 162.950,223.600 162.400 C 224.030 161.850,224.386 161.190,224.391 160.933 C 224.396 160.677,224.542 160.407,224.714 160.333 C 225.218 160.120,226.800 157.724,226.800 157.175 C 226.800 156.899,225.810 158.186,224.600 160.036 C 223.390 161.886,222.400 163.611,222.400 163.869 C 222.400 164.127,221.808 165.118,221.085 166.069 C 219.701 167.890,217.600 171.478,217.600 172.019 C 217.600 172.194,216.812 173.513,215.848 174.950 C 214.884 176.387,213.970 178.064,213.817 178.677 C 213.663 179.289,212.751 180.848,211.790 182.141 C 210.829 183.434,209.922 185.046,209.773 185.723 C 209.624 186.401,209.268 187.189,208.981 187.476 C 208.261 188.196,205.600 192.616,205.600 193.092 C 205.600 193.306,205.093 194.182,204.472 195.040 C 203.852 195.898,202.648 197.928,201.796 199.551 L 200.247 202.503 199.333 201.356 C 198.830 200.726,198.202 199.668,197.937 199.005 C 197.672 198.342,196.973 197.080,196.383 196.200 C 195.792 195.320,194.832 193.587,194.249 192.349 C 193.665 191.110,192.562 189.310,191.798 188.349 C 191.033 187.387,190.406 186.275,190.404 185.878 C 190.401 185.276,187.590 180.657,186.828 180.000 C 186.700 179.890,186.350 179.080,186.050 178.200 C 185.750 177.320,185.199 176.240,184.827 175.800 C 184.454 175.360,183.561 173.867,182.841 172.481 C 182.122 171.096,181.323 169.564,181.067 169.078 C 180.810 168.591,180.111 167.554,179.512 166.775 C 178.914 165.995,178.163 164.737,177.843 163.978 C 177.523 163.220,176.557 161.599,175.696 160.376 C 174.835 159.153,173.935 157.589,173.695 156.901 C 173.455 156.213,172.513 154.526,171.601 153.153 C 170.688 151.780,169.617 149.801,169.220 148.755 C 168.822 147.709,167.845 146.058,167.049 145.085 C 166.252 144.113,165.600 143.121,165.600 142.882 C 165.600 142.392,164.379 140.148,162.900 137.919 C 161.926 136.450,161.479 135.681,159.655 132.334 C 159.135 131.380,158.391 130.240,158.001 129.800 C 157.611 129.360,157.157 128.550,156.991 128.000 C 156.826 127.450,156.175 126.248,155.545 125.328 C 154.915 124.408,154.400 123.520,154.400 123.354 C 154.400 123.188,154.071 122.680,153.668 122.226 C 153.265 121.772,152.730 120.680,152.478 119.800 C 152.060 118.338,149.226 114.503,149.208 115.374 M249.524 116.700 C 248.353 117.955,247.591 119.305,247.619 120.074 C 247.630 120.363,247.945 120.030,248.319 119.334 C 248.694 118.638,249.417 117.513,249.927 116.834 C 251.077 115.304,250.885 115.240,249.524 116.700 M246.375 122.433 C 245.839 123.323,244.986 124.690,244.480 125.472 C 243.974 126.254,243.633 126.966,243.722 127.055 C 243.893 127.226,246.000 124.189,246.000 123.770 C 246.000 123.635,246.380 122.990,246.844 122.339 C 247.308 121.687,247.611 121.078,247.519 120.985 C 247.426 120.893,246.911 121.544,246.375 122.433 M242.351 129.319 C 241.042 130.963,240.274 132.408,240.558 132.692 C 240.681 132.814,240.908 132.574,241.064 132.157 C 241.219 131.741,241.883 130.725,242.540 129.900 C 243.196 129.075,243.652 128.319,243.552 128.219 C 243.452 128.119,242.912 128.614,242.351 129.319 M239.398 134.002 C 238.998 134.444,238.766 134.899,238.882 135.015 C 238.997 135.130,239.390 134.769,239.755 134.212 C 240.552 132.996,240.393 132.902,239.398 134.002 M238.221 136.500 C 238.052 137.105,237.791 137.600,237.641 137.600 C 237.249 137.600,234.649 141.982,234.895 142.228 C 235.008 142.342,235.500 141.662,235.986 140.717 C 236.473 139.773,237.322 138.523,237.873 137.940 C 238.448 137.330,238.800 136.565,238.701 136.140 C 238.563 135.551,238.465 135.624,238.221 136.500 M234.446 143.204 C 234.421 143.536,233.956 144.287,233.414 144.872 C 232.096 146.293,230.799 148.459,230.821 149.200 C 230.832 149.530,231.214 149.029,231.670 148.087 C 232.127 147.145,232.838 146.194,233.250 145.973 C 233.663 145.752,234.000 145.323,234.000 145.019 C 234.000 144.715,234.201 144.400,234.446 144.318 C 234.691 144.236,234.802 143.816,234.692 143.385 C 234.571 142.908,234.475 142.837,234.446 143.204 M229.861 151.064 C 229.454 151.609,229.200 152.134,229.296 152.230 C 229.575 152.508,230.897 150.888,230.741 150.460 C 230.663 150.248,230.267 150.520,229.861 151.064 M227.818 154.212 C 227.226 154.988,226.823 155.843,226.924 156.112 C 227.037 156.413,227.232 156.293,227.433 155.800 C 227.613 155.360,228.084 154.651,228.480 154.225 C 229.138 153.516,229.423 152.800,229.047 152.800 C 228.964 152.800,228.410 153.435,227.818 154.212 " stroke="none" fill="#3dd4e6" fill-rule="evenodd"></path></g></svg>