<svg id="svg" version="1.1" xmlns="http://www.w3.org/2000/svg" xmlns:xlink="http://www.w3.org/1999/xlink" width="400" height="400.80160320641284" viewBox="0, 0, 400,400.80160320641284"><g id="svgg"><path id="path0" d="M190.600 6.400 C 190.464 6.620,189.463 6.800,188.376 6.800 C 187.289 6.800,186.400 6.980,186.400 7.200 C 186.400 7.420,185.680 7.600,184.800 7.600 C 183.920 7.600,183.200 7.780,183.200 8.000 C 183.200 8.220,182.671 8.400,182.024 8.400 C 181.377 8.400,180.736 8.580,180.600 8.800 C 180.464 9.020,179.924 9.200,179.400 9.200 C 178.876 9.200,178.336 9.380,178.200 9.600 C 178.064 9.820,177.513 10.000,176.976 10.000 C 176.439 10.000,176.000 10.180,176.000 10.400 C 176.000 10.620,175.460 10.800,174.800 10.800 C 174.140 10.800,173.600 10.959,173.600 11.153 C 173.600 11.348,173.285 11.607,172.900 11.729 C 172.515 11.851,171.660 12.259,171.000 12.636 C 169.086 13.729,168.451 14.000,167.805 14.000 C 167.472 14.000,167.200 14.150,167.200 14.332 C 167.200 14.515,166.705 14.920,166.100 15.232 C 165.495 15.545,164.460 16.294,163.800 16.898 C 163.140 17.502,162.273 17.997,161.874 17.998 C 161.475 17.999,160.271 18.900,159.200 20.000 C 158.129 21.100,157.056 22.000,156.815 22.000 C 156.262 22.000,152.800 25.440,152.800 25.989 C 152.800 26.215,152.648 26.400,152.461 26.400 C 151.898 26.400,150.400 27.858,150.400 28.407 C 150.400 28.689,149.500 29.783,148.400 30.837 C 147.300 31.892,146.400 33.047,146.400 33.403 C 146.400 33.760,145.860 34.506,145.200 35.061 C 144.540 35.617,144.000 36.325,144.000 36.636 C 144.000 36.946,143.820 37.200,143.600 37.200 C 143.380 37.200,143.200 37.470,143.200 37.800 C 143.200 38.130,143.065 38.401,142.900 38.403 C 142.561 38.407,141.600 40.326,141.600 41.000 C 141.600 41.674,140.639 43.593,140.300 43.597 C 140.135 43.599,140.000 43.870,140.000 44.200 C 140.000 44.530,139.865 44.801,139.700 44.803 C 139.341 44.807,138.400 46.744,138.400 47.480 C 138.400 47.766,138.220 48.000,138.000 48.000 C 137.780 48.000,137.600 48.810,137.600 49.800 C 137.600 50.790,137.420 51.600,137.200 51.600 C 136.980 51.600,136.800 52.140,136.800 52.800 C 136.800 53.460,136.620 54.000,136.400 54.000 C 136.180 54.000,136.000 54.630,136.000 55.400 C 136.000 56.170,135.820 56.800,135.600 56.800 C 135.380 56.800,135.200 57.599,135.200 58.576 C 135.200 59.553,135.020 60.464,134.800 60.600 C 134.289 60.916,134.272 65.200,134.782 65.200 C 135.265 65.200,135.772 62.602,135.405 62.008 C 135.254 61.765,135.344 61.308,135.605 60.994 C 135.866 60.680,136.220 59.833,136.393 59.111 C 136.565 58.390,137.087 56.408,137.553 54.707 C 138.019 53.006,138.404 51.116,138.409 50.507 C 138.414 49.898,138.770 48.950,139.200 48.400 C 139.630 47.850,139.986 47.183,139.991 46.918 C 139.996 46.653,140.447 45.776,140.994 44.970 C 141.541 44.165,142.154 42.908,142.355 42.177 C 142.557 41.447,143.190 40.236,143.761 39.487 C 144.332 38.737,144.800 37.948,144.800 37.732 C 144.800 37.516,145.267 36.903,145.838 36.370 C 146.409 35.836,147.150 34.860,147.485 34.200 C 147.820 33.540,148.694 32.424,149.426 31.721 C 150.159 31.017,151.022 29.931,151.345 29.306 C 151.668 28.682,152.371 27.936,152.909 27.649 C 153.446 27.361,154.317 26.428,154.843 25.574 C 155.369 24.721,156.400 23.732,157.132 23.377 C 157.865 23.022,159.271 21.937,160.256 20.966 C 161.241 19.995,162.229 19.200,162.451 19.200 C 162.908 19.200,166.193 17.009,167.375 15.917 C 167.802 15.522,168.389 15.200,168.681 15.200 C 168.972 15.200,169.523 15.035,169.905 14.834 C 170.287 14.632,171.860 13.867,173.400 13.134 C 174.940 12.400,176.260 11.665,176.333 11.500 C 176.407 11.335,177.071 11.200,177.810 11.200 C 178.548 11.200,179.264 11.020,179.400 10.800 C 179.536 10.580,180.166 10.400,180.800 10.400 C 181.434 10.400,182.051 10.241,182.171 10.046 C 182.292 9.851,182.887 9.590,183.495 9.464 C 184.103 9.339,185.500 9.039,186.600 8.800 C 187.700 8.560,189.500 8.177,190.600 7.948 C 196.403 6.744,207.555 7.097,213.800 8.683 C 215.120 9.019,216.787 9.382,217.504 9.491 C 218.221 9.599,218.906 9.849,219.027 10.044 C 219.148 10.240,219.766 10.400,220.400 10.400 C 221.034 10.400,221.664 10.580,221.800 10.800 C 221.936 11.020,222.509 11.200,223.074 11.200 C 223.639 11.200,225.473 11.905,227.150 12.767 C 228.828 13.629,231.404 14.910,232.875 15.615 C 234.347 16.319,235.639 17.124,235.746 17.403 C 235.935 17.895,238.187 19.200,238.848 19.200 C 239.027 19.200,239.779 19.785,240.519 20.500 C 242.342 22.261,243.539 23.200,243.959 23.200 C 244.151 23.200,244.632 23.695,245.028 24.300 C 245.424 24.905,246.205 25.759,246.762 26.198 C 247.320 26.637,248.052 27.342,248.388 27.763 C 248.725 28.184,249.945 29.579,251.100 30.861 C 252.255 32.144,253.200 33.364,253.200 33.572 C 253.200 33.899,254.903 36.113,256.988 38.500 C 257.325 38.885,257.600 39.470,257.600 39.800 C 257.600 40.130,257.780 40.400,258.000 40.400 C 258.220 40.400,258.413 40.805,258.429 41.300 C 258.445 41.795,258.800 42.740,259.217 43.400 C 260.586 45.567,261.600 47.737,261.600 48.499 C 261.600 48.910,261.780 49.136,262.000 49.000 C 262.220 48.864,262.400 48.133,262.400 47.376 C 262.400 46.619,262.220 46.000,262.000 46.000 C 261.780 46.000,261.600 45.550,261.600 45.000 C 261.600 44.450,261.420 44.000,261.200 44.000 C 260.980 44.000,260.800 43.730,260.800 43.400 C 260.800 43.070,260.620 42.800,260.400 42.800 C 260.180 42.800,260.000 42.440,260.000 42.000 C 260.000 41.560,259.820 41.200,259.600 41.200 C 259.380 41.200,259.200 40.930,259.200 40.600 C 259.200 40.270,259.020 40.000,258.800 40.000 C 258.580 40.000,258.396 39.685,258.391 39.300 C 258.386 38.915,258.030 38.150,257.600 37.600 C 257.170 37.050,256.814 36.415,256.809 36.188 C 256.804 35.962,256.440 35.517,256.000 35.200 C 255.560 34.883,255.200 34.393,255.200 34.112 C 255.200 33.830,255.020 33.600,254.800 33.600 C 254.580 33.600,254.400 33.330,254.400 33.000 C 254.400 32.670,254.220 32.400,254.000 32.400 C 253.780 32.400,253.600 32.132,253.600 31.803 C 253.600 31.475,253.240 30.982,252.800 30.707 C 252.360 30.432,252.000 30.082,252.000 29.929 C 252.000 29.458,243.660 21.200,243.184 21.200 C 242.938 21.200,242.046 20.480,241.200 19.600 C 240.354 18.720,239.379 18.000,239.031 18.000 C 238.684 18.000,238.400 17.820,238.400 17.600 C 238.400 17.380,238.128 17.200,237.796 17.200 C 237.464 17.200,236.628 16.660,235.937 16.000 C 235.246 15.340,234.438 14.800,234.141 14.800 C 233.843 14.800,233.600 14.620,233.600 14.400 C 233.600 14.180,233.240 14.000,232.800 14.000 C 232.360 14.000,232.000 13.820,232.000 13.600 C 232.000 13.380,231.640 13.200,231.200 13.200 C 230.760 13.200,230.400 13.020,230.400 12.800 C 230.400 12.580,230.040 12.400,229.600 12.400 C 229.160 12.400,228.800 12.220,228.800 12.000 C 228.800 11.780,228.440 11.600,228.000 11.600 C 227.560 11.600,227.200 11.420,227.200 11.200 C 227.200 10.980,226.660 10.800,226.000 10.800 C 225.340 10.800,224.800 10.620,224.800 10.400 C 224.800 10.180,224.361 10.000,223.824 10.000 C 223.287 10.000,222.736 9.820,222.600 9.600 C 222.464 9.380,221.823 9.200,221.176 9.200 C 220.529 9.200,220.000 9.020,220.000 8.800 C 220.000 8.580,219.561 8.400,219.024 8.400 C 218.487 8.400,217.936 8.220,217.800 8.000 C 217.664 7.780,217.034 7.600,216.400 7.600 C 215.766 7.600,215.136 7.420,215.000 7.200 C 214.864 6.980,213.773 6.800,212.576 6.800 C 211.379 6.800,210.400 6.620,210.400 6.400 C 210.400 6.144,206.875 6.000,200.624 6.000 C 194.537 6.000,190.754 6.151,190.600 6.400 M194.000 48.789 C 193.670 49.008,193.023 49.191,192.562 49.194 C 192.101 49.197,190.610 49.920,189.249 50.800 C 187.887 51.680,186.576 52.400,186.335 52.400 C 184.792 52.400,176.855 62.923,177.375 64.279 C 177.497 64.598,177.355 65.102,177.059 65.398 C 175.743 66.714,175.879 80.400,177.208 80.400 C 177.726 80.400,177.719 74.920,177.200 74.600 C 176.980 74.464,176.800 73.744,176.800 73.000 C 176.800 72.256,176.980 71.536,177.200 71.400 C 177.420 71.264,177.601 70.038,177.601 68.676 C 177.603 66.908,177.831 65.826,178.401 64.890 C 178.841 64.170,179.200 63.291,179.200 62.937 C 179.200 62.583,179.515 62.001,179.900 61.643 C 180.720 60.880,181.600 59.396,181.600 58.777 C 181.600 58.219,182.615 57.200,183.171 57.200 C 183.407 57.200,183.600 57.020,183.600 56.800 C 183.600 56.580,183.855 56.400,184.166 56.400 C 184.478 56.400,184.969 55.866,185.258 55.213 C 185.631 54.372,186.542 53.645,188.392 52.715 C 189.826 51.994,191.060 51.268,191.133 51.102 C 191.207 50.936,191.614 50.800,192.039 50.800 C 192.463 50.800,193.168 50.620,193.605 50.400 C 194.042 50.180,194.758 49.820,195.195 49.600 C 195.632 49.380,198.152 49.200,200.795 49.200 C 203.732 49.200,205.600 49.356,205.600 49.600 C 205.600 49.820,206.140 50.000,206.800 50.000 C 207.460 50.000,208.000 50.180,208.000 50.400 C 208.000 50.620,208.360 50.800,208.800 50.800 C 209.240 50.800,209.600 50.980,209.600 51.200 C 209.600 51.420,209.960 51.600,210.400 51.600 C 210.840 51.600,211.200 51.780,211.200 52.000 C 211.200 52.220,211.560 52.400,212.000 52.400 C 212.440 52.400,212.800 52.580,212.800 52.800 C 212.800 53.020,213.073 53.200,213.406 53.200 C 214.197 53.200,220.000 59.003,220.000 59.794 C 220.000 60.127,220.180 60.400,220.400 60.400 C 220.620 60.400,220.800 60.642,220.800 60.938 C 220.800 61.234,221.160 61.802,221.600 62.200 C 222.136 62.685,222.400 63.432,222.400 64.462 C 222.400 65.308,222.580 66.000,222.800 66.000 C 223.020 66.000,223.200 66.799,223.200 67.776 C 223.200 68.753,223.380 69.664,223.600 69.800 C 223.820 69.936,224.000 71.196,224.000 72.600 C 224.000 74.004,223.820 75.264,223.600 75.400 C 223.380 75.536,223.200 76.447,223.200 77.424 C 223.200 78.401,223.020 79.200,222.800 79.200 C 222.580 79.200,222.400 79.920,222.400 80.800 C 222.400 81.680,222.220 82.400,222.000 82.400 C 221.780 82.400,221.599 82.805,221.597 83.300 C 221.596 83.808,220.907 84.897,220.017 85.800 C 219.149 86.680,218.430 87.649,218.420 87.954 C 218.397 88.592,216.564 90.400,215.940 90.400 C 215.709 90.400,215.032 90.923,214.434 91.563 C 213.392 92.680,211.387 93.752,208.400 94.793 C 207.630 95.061,206.640 95.427,206.200 95.605 C 202.708 97.021,198.192 96.789,193.000 94.927 C 191.460 94.375,189.885 93.830,189.500 93.715 C 189.115 93.600,188.800 93.348,188.800 93.153 C 188.800 92.959,188.565 92.800,188.278 92.800 C 187.991 92.800,187.089 92.215,186.273 91.500 C 185.458 90.785,184.252 89.781,183.595 89.270 C 182.938 88.758,182.400 88.083,182.400 87.770 C 182.400 87.456,182.220 87.200,182.000 87.200 C 181.780 87.200,181.600 86.880,181.600 86.488 C 181.600 86.097,181.240 85.517,180.800 85.200 C 180.360 84.883,180.000 84.303,180.000 83.912 C 180.000 83.520,179.864 83.200,179.698 83.200 C 179.531 83.200,179.156 82.660,178.864 82.000 C 178.572 81.340,178.187 80.800,178.009 80.800 C 177.544 80.800,177.113 82.092,177.486 82.368 C 177.659 82.496,178.230 83.455,178.756 84.500 C 179.281 85.545,179.866 86.400,180.056 86.400 C 180.245 86.400,180.400 86.679,180.400 87.020 C 180.400 88.252,187.199 94.400,188.562 94.400 C 188.913 94.400,189.200 94.580,189.200 94.800 C 189.200 95.020,189.740 95.200,190.400 95.200 C 191.060 95.200,191.600 95.380,191.600 95.600 C 191.600 95.820,192.050 96.000,192.600 96.000 C 193.150 96.000,193.600 96.149,193.600 96.331 C 193.600 96.878,197.474 97.600,200.411 97.600 C 203.491 97.600,207.200 96.926,207.200 96.367 C 207.200 96.165,207.740 96.000,208.400 96.000 C 209.060 96.000,209.600 95.820,209.600 95.600 C 209.600 95.380,210.039 95.200,210.576 95.200 C 211.113 95.200,211.664 95.020,211.800 94.800 C 211.936 94.580,212.389 94.400,212.807 94.400 C 213.226 94.400,214.260 93.725,215.106 92.900 C 215.952 92.075,217.117 91.151,217.696 90.847 C 218.274 90.542,218.956 89.789,219.212 89.172 C 219.467 88.555,220.344 87.306,221.160 86.395 C 222.012 85.444,222.858 83.944,223.148 82.870 C 223.426 81.841,223.821 80.687,224.027 80.305 C 224.232 79.923,224.400 79.259,224.400 78.829 C 224.400 78.399,224.580 77.936,224.800 77.800 C 225.805 77.179,225.164 67.907,223.951 65.505 C 223.758 65.123,223.600 64.394,223.600 63.884 C 223.600 61.799,216.334 52.400,214.722 52.400 C 214.554 52.400,213.381 51.738,212.117 50.930 C 210.853 50.121,209.094 49.283,208.209 49.066 C 205.950 48.514,194.743 48.296,194.000 48.789 M262.400 50.600 C 262.400 51.370,262.580 52.000,262.800 52.000 C 263.020 52.000,263.200 52.349,263.200 52.776 C 263.200 53.203,263.360 53.652,263.556 53.773 C 263.751 53.894,263.999 54.579,264.107 55.296 C 264.214 56.013,264.594 57.644,264.951 58.920 C 265.308 60.195,265.600 62.310,265.600 63.620 C 265.600 64.940,265.778 66.000,266.000 66.000 C 266.238 66.000,266.400 64.475,266.400 62.224 C 266.400 60.137,266.221 58.337,266.000 58.200 C 265.780 58.064,265.600 57.243,265.600 56.376 C 265.600 55.509,265.420 54.800,265.200 54.800 C 264.980 54.800,264.800 54.260,264.800 53.600 C 264.800 52.940,264.665 52.399,264.500 52.397 C 264.141 52.393,263.200 50.456,263.200 49.720 C 263.200 49.434,263.020 49.200,262.800 49.200 C 262.580 49.200,262.400 49.830,262.400 50.600 M133.600 72.600 C 133.600 76.467,133.751 78.800,134.000 78.800 C 134.249 78.800,134.400 76.467,134.400 72.600 C 134.400 68.733,134.249 66.400,134.000 66.400 C 133.751 66.400,133.600 68.733,133.600 72.600 M266.400 73.200 C 266.400 76.863,266.541 78.760,266.800 78.600 C 267.033 78.456,267.200 76.204,267.200 73.200 C 267.200 70.196,267.033 67.944,266.800 67.800 C 266.541 67.640,266.400 69.537,266.400 73.200 M265.600 82.353 C 265.600 84.113,265.420 85.664,265.200 85.800 C 264.980 85.936,264.800 86.429,264.800 86.895 C 264.800 87.796,264.135 90.139,263.551 91.295 C 263.358 91.677,263.200 92.341,263.200 92.771 C 263.200 93.201,263.020 93.664,262.800 93.800 C 262.580 93.936,262.400 94.487,262.400 95.024 C 262.400 95.561,262.220 96.000,262.000 96.000 C 261.780 96.000,261.600 96.370,261.600 96.822 C 261.600 97.671,259.233 102.497,258.700 102.733 C 258.535 102.807,258.400 103.201,258.400 103.610 C 258.400 104.018,258.220 104.464,258.000 104.600 C 257.780 104.736,257.600 105.170,257.600 105.564 C 257.600 105.959,257.105 106.807,256.500 107.448 C 255.041 108.997,252.800 112.680,252.800 113.531 C 252.800 113.904,252.178 114.927,251.418 115.804 C 250.658 116.682,249.739 118.120,249.377 119.000 C 249.014 119.880,248.523 120.960,248.285 121.400 C 248.047 121.840,247.603 122.695,247.297 123.300 C 246.991 123.905,246.602 124.400,246.431 124.400 C 246.261 124.400,245.780 125.165,245.363 126.100 C 244.449 128.147,242.265 131.845,241.414 132.784 C 241.076 133.158,240.800 133.764,240.800 134.131 C 240.800 134.499,240.640 134.800,240.443 134.800 C 240.247 134.800,239.973 135.253,239.834 135.806 C 239.695 136.359,239.282 137.162,238.916 137.590 C 237.960 138.706,236.000 142.340,236.000 142.995 C 236.000 143.301,235.443 144.147,234.761 144.875 C 233.543 146.178,232.000 149.154,232.000 150.200 C 232.000 150.493,231.865 150.793,231.700 150.867 C 231.116 151.126,228.000 156.135,228.000 156.814 C 228.000 157.192,227.742 157.716,227.426 157.978 C 227.111 158.240,226.462 159.203,225.985 160.118 C 225.508 161.033,224.776 162.021,224.359 162.314 C 223.942 162.606,223.600 163.160,223.600 163.544 C 223.600 163.929,223.082 165.061,222.448 166.059 C 221.815 167.058,220.967 168.578,220.564 169.438 C 220.160 170.297,219.599 171.238,219.315 171.529 C 219.032 171.819,218.800 172.237,218.800 172.457 C 218.800 172.676,218.285 173.608,217.655 174.528 C 216.038 176.889,214.880 179.313,215.089 179.900 C 215.187 180.175,214.982 180.400,214.633 180.400 C 214.285 180.400,214.000 180.625,214.000 180.900 C 213.999 181.175,213.527 181.940,212.950 182.600 C 212.373 183.260,211.386 184.880,210.757 186.200 C 209.338 189.176,208.256 191.054,207.438 191.958 C 207.093 192.340,206.603 193.270,206.350 194.026 C 206.096 194.782,205.599 195.760,205.245 196.200 C 204.520 197.100,203.974 198.026,202.301 201.196 C 201.664 202.403,201.091 203.442,201.028 203.505 C 200.794 203.739,199.600 203.100,199.600 202.740 C 199.600 202.535,199.240 201.980,198.800 201.508 C 198.360 201.036,198.000 200.334,198.000 199.948 C 198.000 199.563,197.820 199.136,197.600 199.000 C 197.380 198.864,197.200 198.495,197.200 198.180 C 197.200 197.865,196.587 196.804,195.838 195.823 C 195.089 194.841,193.934 192.892,193.272 191.490 C 192.610 190.089,191.630 188.416,191.095 187.771 C 190.560 187.127,190.001 186.105,189.853 185.500 C 189.706 184.895,189.408 184.400,189.192 184.400 C 188.977 184.400,188.800 184.163,188.800 183.874 C 188.800 183.585,187.990 182.141,187.000 180.665 C 186.010 179.189,185.200 177.726,185.200 177.414 C 185.200 177.102,185.009 176.729,184.775 176.585 C 184.542 176.440,184.174 175.935,183.958 175.461 C 183.332 174.088,182.579 172.861,181.896 172.103 C 181.548 171.716,181.024 170.610,180.731 169.644 C 180.439 168.679,179.668 167.329,179.017 166.644 C 178.367 165.960,177.873 165.260,177.921 165.089 C 177.968 164.918,177.736 164.673,177.404 164.546 C 177.072 164.419,176.800 163.966,176.800 163.541 C 176.800 162.024,173.272 156.431,172.300 156.407 C 171.540 156.389,172.121 158.192,173.200 159.200 C 173.860 159.817,174.400 160.609,174.400 160.960 C 174.400 161.312,174.580 161.600,174.800 161.600 C 175.020 161.600,175.200 161.870,175.200 162.200 C 175.200 162.530,175.380 162.800,175.600 162.800 C 175.820 162.800,176.000 163.034,176.000 163.320 C 176.000 164.056,176.941 165.993,177.300 165.997 C 177.465 165.999,177.600 166.270,177.600 166.600 C 177.600 166.930,177.780 167.200,178.000 167.200 C 178.220 167.200,178.400 167.436,178.400 167.725 C 178.400 168.013,178.760 168.636,179.200 169.108 C 179.640 169.580,180.000 170.424,180.000 170.983 C 180.000 171.542,180.180 172.000,180.400 172.000 C 180.620 172.000,180.800 172.270,180.800 172.600 C 180.800 172.930,180.980 173.200,181.200 173.200 C 181.420 173.200,181.600 173.404,181.600 173.653 C 181.600 173.902,181.915 174.399,182.300 174.757 C 183.313 175.700,184.000 177.053,184.000 178.106 C 184.000 178.611,184.360 179.283,184.800 179.600 C 185.240 179.917,185.601 180.362,185.602 180.588 C 185.603 180.815,186.323 181.949,187.202 183.108 C 188.081 184.268,188.800 185.663,188.800 186.208 C 188.800 186.754,188.980 187.200,189.200 187.200 C 189.420 187.200,189.600 187.494,189.600 187.853 C 189.600 188.212,189.916 188.797,190.303 189.153 C 190.689 189.509,191.260 190.295,191.570 190.900 C 191.881 191.505,192.285 192.000,192.468 192.000 C 192.650 192.000,192.800 192.360,192.800 192.800 C 192.800 193.240,192.980 193.600,193.200 193.600 C 193.420 193.600,193.600 194.023,193.600 194.541 C 193.600 195.058,194.140 196.046,194.800 196.737 C 195.460 197.428,196.000 198.264,196.000 198.596 C 196.000 198.928,196.180 199.200,196.400 199.200 C 196.620 199.200,196.800 199.700,196.800 200.312 C 196.800 200.965,197.130 201.661,197.600 202.000 C 198.040 202.317,198.400 202.820,198.400 203.117 C 198.400 204.076,199.507 204.800,200.971 204.800 C 202.133 204.800,202.400 204.651,202.400 204.000 C 202.400 203.560,202.580 203.200,202.800 203.200 C 203.020 203.200,203.200 202.784,203.200 202.275 C 203.200 201.767,203.560 200.964,204.000 200.492 C 204.440 200.020,204.800 199.438,204.800 199.200 C 204.800 198.962,205.160 198.380,205.600 197.908 C 206.040 197.436,206.400 196.813,206.400 196.525 C 206.400 196.236,206.580 196.000,206.800 196.000 C 207.020 196.000,207.200 195.728,207.200 195.395 C 207.200 194.686,207.911 193.370,208.900 192.245 C 209.285 191.807,209.600 191.213,209.600 190.925 C 209.600 190.636,209.780 190.400,210.000 190.400 C 210.220 190.400,210.400 190.040,210.400 189.600 C 210.400 189.160,210.580 188.800,210.800 188.800 C 211.020 188.800,211.200 188.440,211.200 188.000 C 211.200 187.560,211.380 187.200,211.600 187.200 C 211.820 187.200,212.000 186.913,212.000 186.562 C 212.000 185.918,213.178 184.055,214.489 182.625 C 214.880 182.198,215.200 181.523,215.200 181.125 C 215.200 180.726,215.380 180.400,215.600 180.400 C 215.820 180.400,216.000 180.029,216.000 179.576 C 216.000 179.123,216.180 178.864,216.400 179.000 C 216.620 179.136,216.800 178.877,216.800 178.424 C 216.800 177.971,216.980 177.600,217.200 177.600 C 217.420 177.600,217.600 177.280,217.600 176.888 C 217.600 176.497,217.960 175.917,218.400 175.600 C 218.840 175.283,219.200 174.703,219.200 174.312 C 219.200 173.920,219.380 173.600,219.600 173.600 C 219.820 173.600,220.007 173.195,220.016 172.700 C 220.025 172.205,220.565 171.177,221.216 170.415 C 221.867 169.653,222.400 168.881,222.400 168.698 C 222.400 168.516,222.760 167.980,223.200 167.508 C 223.640 167.036,224.000 166.321,224.000 165.919 C 224.000 165.035,224.749 163.642,225.700 162.757 C 226.085 162.399,226.400 161.902,226.400 161.653 C 226.400 161.404,226.580 161.200,226.800 161.200 C 227.020 161.200,227.200 160.964,227.200 160.675 C 227.200 160.387,227.560 159.764,228.000 159.292 C 228.440 158.820,228.800 158.153,228.800 157.811 C 228.800 157.024,229.592 155.602,230.500 154.757 C 230.885 154.399,231.200 153.812,231.200 153.453 C 231.200 153.094,231.380 152.800,231.600 152.800 C 231.820 152.800,232.000 152.440,232.000 152.000 C 232.000 151.560,232.180 151.200,232.400 151.200 C 232.620 151.200,232.800 150.840,232.800 150.400 C 232.800 149.960,232.952 149.600,233.137 149.600 C 233.323 149.600,233.891 148.790,234.400 147.800 C 234.909 146.810,235.477 146.000,235.663 146.000 C 235.848 146.000,236.000 145.640,236.000 145.200 C 236.000 144.760,236.180 144.400,236.400 144.400 C 236.620 144.400,236.800 143.950,236.800 143.400 C 236.800 142.850,236.955 142.400,237.144 142.400 C 237.334 142.400,237.919 141.590,238.444 140.600 C 238.969 139.610,239.534 138.800,239.699 138.800 C 239.865 138.800,240.000 138.530,240.000 138.200 C 240.000 137.870,240.180 137.600,240.400 137.600 C 240.620 137.600,240.800 137.060,240.800 136.400 C 240.800 135.740,240.980 135.200,241.200 135.200 C 241.420 135.200,241.600 134.932,241.600 134.603 C 241.600 134.275,241.960 133.782,242.400 133.507 C 242.840 133.232,243.200 132.815,243.200 132.579 C 243.200 132.344,243.515 131.793,243.900 131.355 C 244.969 130.140,245.600 128.896,245.600 128.005 C 245.600 127.562,245.780 127.200,246.000 127.200 C 246.220 127.200,246.400 126.906,246.400 126.547 C 246.400 126.188,246.740 125.599,247.155 125.239 C 248.078 124.438,249.600 121.792,249.600 120.988 C 249.600 120.665,249.738 120.400,249.906 120.400 C 250.074 120.400,250.511 119.725,250.877 118.900 C 251.243 118.075,252.006 116.913,252.571 116.317 C 253.137 115.722,253.600 114.867,253.600 114.417 C 253.600 113.968,253.780 113.600,254.000 113.600 C 254.220 113.600,254.400 113.330,254.400 113.000 C 254.400 112.670,254.536 112.400,254.702 112.400 C 254.869 112.400,255.259 111.815,255.570 111.100 C 255.881 110.385,256.249 109.710,256.387 109.600 C 257.132 109.007,258.400 106.764,258.400 106.038 C 258.400 105.577,258.580 105.200,258.800 105.200 C 259.020 105.200,259.200 104.964,259.200 104.675 C 259.200 104.387,259.560 103.764,260.000 103.292 C 260.440 102.820,260.800 102.156,260.800 101.817 C 260.800 101.478,260.980 101.200,261.200 101.200 C 261.420 101.200,261.600 100.840,261.600 100.400 C 261.600 99.960,261.780 99.600,262.000 99.600 C 262.220 99.600,262.400 98.882,262.400 98.003 C 262.400 96.840,262.617 96.271,263.200 95.907 C 263.686 95.604,264.000 94.974,264.000 94.304 C 264.000 93.697,264.180 93.200,264.400 93.200 C 264.620 93.200,264.800 92.660,264.800 92.000 C 264.800 91.340,264.980 90.800,265.200 90.800 C 265.420 90.800,265.600 90.091,265.600 89.224 C 265.600 88.357,265.780 87.536,266.000 87.400 C 266.221 87.264,266.400 85.470,266.400 83.400 C 266.400 81.330,266.221 79.536,266.000 79.400 C 265.746 79.243,265.600 80.321,265.600 82.353 M134.698 80.236 C 134.274 80.659,134.327 84.400,134.757 84.400 C 134.953 84.400,135.212 83.995,135.333 83.500 C 135.604 82.388,135.106 79.828,134.698 80.236 M135.200 86.176 C 135.200 86.933,135.380 87.664,135.600 87.800 C 135.820 87.936,136.000 88.667,136.000 89.424 C 136.000 90.181,136.180 90.800,136.400 90.800 C 136.620 90.800,136.800 91.340,136.800 92.000 C 136.800 92.660,136.980 93.200,137.200 93.200 C 137.420 93.200,137.600 93.920,137.600 94.800 C 137.600 95.680,137.780 96.400,138.000 96.400 C 138.220 96.400,138.400 96.900,138.400 97.512 C 138.400 98.165,138.730 98.861,139.200 99.200 C 139.640 99.517,140.000 100.001,140.000 100.276 C 140.000 100.551,140.360 101.417,140.800 102.200 C 141.240 102.983,141.600 103.979,141.600 104.412 C 141.600 104.845,141.780 105.200,142.000 105.200 C 142.220 105.200,142.400 105.533,142.400 105.941 C 142.400 106.348,142.940 107.246,143.600 107.937 C 144.260 108.628,144.800 109.292,144.800 109.413 C 144.800 109.534,145.160 110.020,145.600 110.492 C 146.040 110.964,146.400 111.767,146.400 112.275 C 146.400 112.784,146.580 113.200,146.800 113.200 C 147.020 113.200,147.200 113.494,147.200 113.853 C 147.200 114.212,147.540 114.801,147.955 115.161 C 148.974 116.045,150.400 118.640,150.400 119.612 C 150.400 120.045,150.552 120.400,150.737 120.400 C 150.923 120.400,151.505 121.255,152.032 122.300 C 152.558 123.345,153.106 124.290,153.248 124.400 C 153.725 124.768,155.200 127.617,155.200 128.169 C 155.200 128.469,155.456 128.813,155.770 128.933 C 156.083 129.053,156.662 129.838,157.057 130.676 C 157.451 131.514,158.095 132.549,158.487 132.975 C 158.879 133.402,159.200 134.167,159.200 134.675 C 159.200 135.184,159.380 135.600,159.600 135.600 C 159.820 135.600,160.000 135.883,160.000 136.229 C 160.000 136.574,160.225 137.094,160.500 137.384 C 161.996 138.961,163.200 140.927,163.200 141.795 C 163.200 142.128,163.338 142.400,163.506 142.400 C 163.674 142.400,164.124 143.121,164.506 144.003 C 164.887 144.884,165.650 145.996,166.200 146.475 C 166.750 146.953,167.200 147.674,167.200 148.078 C 167.200 148.902,167.857 150.170,168.900 151.355 C 169.285 151.793,169.600 152.437,169.600 152.787 C 169.600 153.137,169.960 153.683,170.400 154.000 C 170.840 154.317,171.200 154.897,171.200 155.288 C 171.200 155.680,171.380 156.000,171.600 156.000 C 172.528 156.000,170.436 150.792,169.045 149.637 C 168.690 149.343,168.400 148.884,168.400 148.617 C 168.400 148.350,167.477 146.617,166.349 144.766 C 165.221 142.915,163.962 140.680,163.551 139.800 C 163.141 138.920,162.186 137.390,161.429 136.400 C 160.672 135.410,160.041 134.308,160.027 133.950 C 159.987 132.985,157.981 129.520,156.923 128.587 C 156.415 128.140,156.000 127.555,156.000 127.287 C 156.000 127.019,155.820 126.800,155.600 126.800 C 155.380 126.800,155.200 126.417,155.200 125.949 C 155.200 125.091,153.083 121.052,152.120 120.072 C 151.835 119.782,151.491 119.107,151.357 118.572 C 151.223 118.037,150.953 117.600,150.757 117.600 C 150.560 117.600,150.400 117.343,150.400 117.028 C 150.400 116.714,149.713 115.409,148.874 114.128 C 148.034 112.848,147.121 111.236,146.844 110.546 C 146.567 109.856,145.859 108.776,145.270 108.146 C 144.682 107.516,143.210 105.020,142.000 102.600 C 140.790 100.180,139.665 98.140,139.500 98.067 C 139.335 97.993,139.200 97.498,139.200 96.967 C 139.200 96.435,139.020 96.000,138.800 96.000 C 138.580 96.000,138.401 95.505,138.401 94.900 C 138.403 93.418,135.957 84.800,135.535 84.800 C 135.351 84.800,135.200 85.419,135.200 86.176 " stroke="none" fill="#6d6d6d" fill-rule="evenodd"></path><path id="path1" d="M197.909 7.820 C 197.750 7.982,195.950 8.259,193.909 8.435 C 191.869 8.611,189.210 8.952,188.000 9.194 C 186.790 9.436,185.213 9.736,184.496 9.861 C 183.779 9.986,183.094 10.249,182.973 10.444 C 182.852 10.640,182.324 10.800,181.800 10.800 C 181.276 10.800,180.736 10.980,180.600 11.200 C 180.464 11.420,179.919 11.600,179.388 11.600 C 178.526 11.600,176.938 12.281,171.862 14.828 C 171.016 15.253,170.075 15.600,169.770 15.600 C 169.466 15.600,168.268 16.322,167.108 17.205 C 165.949 18.088,164.172 19.188,163.160 19.649 C 162.105 20.130,161.019 20.998,160.614 21.684 C 160.226 22.341,159.307 23.130,158.573 23.437 C 157.839 23.744,156.735 24.650,156.119 25.451 C 155.504 26.252,154.654 27.198,154.232 27.553 C 153.809 27.909,153.138 28.560,152.740 29.000 C 149.941 32.093,149.300 32.839,148.500 33.935 C 148.005 34.613,147.600 35.346,147.600 35.564 C 147.600 35.782,147.365 36.104,147.078 36.280 C 146.791 36.456,146.169 37.238,145.696 38.018 C 145.223 38.798,144.472 39.856,144.027 40.369 C 143.581 40.883,143.098 41.955,142.953 42.751 C 142.808 43.548,142.377 44.650,141.995 45.200 C 140.568 47.257,139.141 50.391,138.959 51.871 C 138.855 52.712,138.487 54.390,138.140 55.600 C 137.793 56.810,137.421 58.476,137.313 59.303 C 137.204 60.129,136.955 60.905,136.758 61.026 C 136.561 61.148,136.400 62.025,136.400 62.975 C 136.400 63.925,136.130 65.349,135.800 66.138 C 135.082 67.856,134.957 76.910,135.627 78.672 C 135.862 79.290,136.207 80.876,136.394 82.198 C 136.581 83.519,136.941 85.320,137.194 86.200 C 137.889 88.621,138.414 90.805,138.781 92.800 C 139.288 95.556,139.843 97.044,140.904 98.484 C 141.436 99.208,142.111 100.430,142.404 101.200 C 143.471 104.009,144.934 106.634,146.252 108.101 C 146.993 108.927,147.600 109.878,147.600 110.214 C 147.600 110.551,148.407 112.051,149.393 113.548 C 150.379 115.045,151.457 116.916,151.787 117.707 C 152.118 118.498,152.579 119.264,152.813 119.408 C 153.047 119.553,154.117 121.449,155.192 123.623 C 156.267 125.797,157.534 127.986,158.009 128.488 C 158.991 129.527,160.568 132.510,160.927 134.008 C 161.060 134.563,161.682 135.553,162.308 136.208 C 162.934 136.864,163.763 138.120,164.149 139.000 C 165.377 141.797,166.487 143.770,167.412 144.800 C 167.906 145.350,168.441 146.250,168.600 146.800 C 168.760 147.350,169.475 148.700,170.189 149.800 C 170.903 150.900,171.813 152.520,172.210 153.400 C 172.608 154.280,173.509 155.821,174.211 156.824 C 175.830 159.135,177.600 162.294,177.600 162.873 C 177.600 163.118,178.252 164.113,179.049 165.085 C 179.845 166.058,180.826 167.720,181.229 168.779 C 181.632 169.839,182.780 171.877,183.780 173.309 C 184.781 174.740,185.600 176.178,185.600 176.503 C 185.600 176.828,186.611 178.603,187.848 180.447 C 189.084 182.291,190.261 184.379,190.463 185.087 C 190.665 185.794,191.054 186.604,191.328 186.887 C 192.242 187.828,193.600 189.918,193.600 190.381 C 193.600 190.633,194.345 191.955,195.256 193.319 C 197.516 196.706,198.400 198.312,198.400 199.034 C 198.400 199.809,200.457 202.412,200.868 202.158 C 201.038 202.053,201.540 201.146,201.984 200.144 C 202.427 199.141,203.397 197.483,204.138 196.460 C 204.880 195.437,205.595 194.150,205.728 193.600 C 205.861 193.050,206.764 191.393,207.734 189.917 C 208.705 188.442,209.802 186.478,210.172 185.554 C 210.542 184.629,211.209 183.407,211.654 182.836 C 212.813 181.354,215.200 177.488,215.200 177.094 C 215.200 176.911,215.794 175.825,216.520 174.681 C 217.246 173.536,218.530 171.340,219.374 169.800 C 220.218 168.260,221.225 166.640,221.611 166.200 C 221.998 165.760,222.433 164.836,222.578 164.147 C 222.724 163.458,223.429 162.198,224.145 161.347 C 225.677 159.526,226.993 157.382,227.400 156.043 C 227.559 155.516,228.457 153.896,229.395 152.443 C 230.333 150.989,231.497 148.873,231.982 147.739 C 232.468 146.606,233.300 145.270,233.832 144.770 C 234.365 144.270,234.800 143.667,234.800 143.430 C 234.801 143.194,235.877 141.200,237.192 139.000 C 238.506 136.800,239.586 134.764,239.591 134.476 C 239.596 134.188,240.185 133.158,240.900 132.188 C 242.838 129.559,244.263 127.126,244.532 125.988 C 244.663 125.432,245.305 124.378,245.958 123.647 C 246.611 122.916,247.649 121.121,248.264 119.659 C 248.880 118.196,249.522 116.940,249.692 116.867 C 249.861 116.793,250.005 116.523,250.011 116.267 C 250.017 116.010,250.557 115.275,251.211 114.633 C 251.865 113.992,252.404 113.092,252.409 112.633 C 252.414 112.175,252.770 111.350,253.200 110.800 C 253.630 110.250,253.986 109.597,253.991 109.349 C 253.996 109.101,254.294 108.654,254.654 108.355 C 255.525 107.632,257.200 104.953,257.200 104.283 C 257.200 103.990,257.560 103.364,258.000 102.892 C 258.440 102.420,258.800 101.756,258.800 101.417 C 258.800 101.078,258.980 100.800,259.200 100.800 C 259.420 100.800,259.600 100.535,259.600 100.212 C 259.600 99.889,259.960 98.983,260.400 98.200 C 260.840 97.417,261.201 96.376,261.201 95.888 C 261.202 95.400,261.562 94.411,262.001 93.690 C 262.441 92.970,262.800 92.036,262.800 91.614 C 262.800 91.192,262.960 90.748,263.156 90.627 C 263.351 90.506,263.608 89.821,263.727 89.104 C 263.845 88.387,264.167 86.990,264.443 86.000 C 265.091 83.669,265.416 62.056,264.812 61.452 C 264.586 61.226,264.400 60.367,264.400 59.544 C 264.400 58.721,264.220 57.936,264.000 57.800 C 263.780 57.664,263.600 57.111,263.600 56.571 C 263.600 56.031,263.435 55.277,263.234 54.895 C 262.470 53.443,261.200 50.026,261.200 49.420 C 261.200 48.672,260.687 47.560,258.762 44.133 C 258.343 43.386,258.000 42.593,258.000 42.371 C 258.000 41.813,255.069 37.266,253.764 35.800 C 253.177 35.140,252.522 34.105,252.309 33.500 C 252.096 32.895,251.786 32.400,251.620 32.400 C 251.223 32.400,248.800 30.079,248.798 29.697 C 248.795 29.118,243.295 23.670,242.078 23.040 C 241.398 22.689,240.361 21.771,239.773 21.000 C 239.142 20.173,238.356 19.600,237.853 19.600 C 237.384 19.599,236.460 19.132,235.800 18.562 C 235.140 17.991,234.105 17.267,233.500 16.952 C 232.895 16.637,232.400 16.243,232.400 16.077 C 232.400 15.911,231.545 15.528,230.500 15.226 C 229.455 14.924,228.122 14.345,227.538 13.939 C 226.954 13.532,226.313 13.200,226.113 13.200 C 225.914 13.200,225.005 12.840,224.094 12.400 C 223.184 11.960,222.081 11.600,221.643 11.600 C 221.205 11.600,220.736 11.420,220.600 11.200 C 220.464 10.980,219.924 10.800,219.400 10.800 C 218.876 10.800,218.336 10.620,218.200 10.400 C 218.064 10.180,217.344 10.000,216.600 10.000 C 215.856 10.000,215.136 9.820,215.000 9.600 C 214.864 9.380,213.964 9.200,213.000 9.200 C 212.036 9.200,211.150 9.043,211.031 8.851 C 210.912 8.658,209.237 8.381,207.308 8.235 C 205.378 8.089,202.540 7.870,201.000 7.748 C 199.460 7.626,198.069 7.659,197.909 7.820 M211.372 32.845 C 212.707 33.305,214.455 34.022,215.254 34.440 C 216.054 34.858,216.928 35.200,217.196 35.200 C 218.086 35.200,221.659 37.188,223.313 38.604 C 224.210 39.372,225.227 40.006,225.572 40.013 C 226.399 40.029,227.228 40.712,228.334 42.289 C 228.831 42.998,229.770 43.891,230.420 44.275 C 231.069 44.659,231.713 45.325,231.850 45.756 C 231.986 46.187,232.854 47.363,233.779 48.370 C 234.703 49.376,235.711 50.830,236.018 51.600 C 236.324 52.370,237.225 54.183,238.018 55.628 C 238.811 57.074,239.684 59.414,239.957 60.828 C 240.230 62.243,240.666 64.210,240.925 65.200 C 242.327 70.554,240.941 84.159,238.502 88.982 C 237.941 90.092,237.041 91.877,236.502 92.949 C 234.014 97.897,226.739 105.521,222.400 107.727 C 221.410 108.230,219.880 109.093,219.000 109.645 C 216.867 110.984,215.537 111.488,212.200 112.225 C 210.660 112.565,208.140 113.123,206.600 113.464 C 198.845 115.181,187.696 112.971,179.044 108.000 C 175.322 105.861,167.621 98.781,167.589 97.468 C 167.582 97.210,166.900 96.240,166.073 95.310 C 165.245 94.381,164.325 92.941,164.028 92.110 C 163.730 91.280,163.004 89.520,162.414 88.200 C 160.051 82.916,159.600 80.407,159.600 72.567 C 159.601 65.265,160.202 62.120,162.576 57.000 C 165.267 51.197,165.931 49.970,167.080 48.685 C 167.515 48.198,168.254 47.159,168.722 46.375 C 169.190 45.591,170.009 44.716,170.542 44.431 C 171.076 44.145,171.739 43.487,172.017 42.968 C 172.538 41.995,175.121 40.000,175.860 40.000 C 176.089 40.000,176.585 39.659,176.962 39.242 C 177.853 38.257,182.161 35.600,182.866 35.600 C 183.166 35.600,184.117 35.222,184.979 34.760 C 190.851 31.613,204.841 30.598,211.372 32.845 M195.900 47.889 C 196.615 47.978,197.785 47.978,198.500 47.889 C 199.215 47.801,198.630 47.728,197.200 47.728 C 195.770 47.728,195.185 47.801,195.900 47.889 M202.307 47.890 C 203.026 47.979,204.106 47.977,204.707 47.886 C 205.308 47.795,204.720 47.722,203.400 47.724 C 202.080 47.726,201.588 47.801,202.307 47.890 M207.600 48.400 C 207.930 48.613,208.470 48.788,208.800 48.788 C 209.333 48.788,209.333 48.745,208.800 48.400 C 208.470 48.187,207.930 48.012,207.600 48.012 C 207.067 48.012,207.067 48.055,207.600 48.400 M187.100 51.029 C 185.605 51.840,185.696 52.178,187.200 51.400 C 187.860 51.059,188.400 50.694,188.400 50.590 C 188.400 50.332,188.357 50.347,187.100 51.029 M216.800 52.925 C 216.800 52.994,217.385 53.579,218.100 54.225 L 219.400 55.400 218.225 54.100 C 217.130 52.888,216.800 52.616,216.800 52.925 M220.000 56.925 C 220.000 56.994,220.585 57.579,221.300 58.225 L 222.600 59.400 221.425 58.100 C 220.330 56.888,220.000 56.616,220.000 56.925 M175.353 73.000 C 175.353 75.640,175.418 76.668,175.497 75.284 C 175.575 73.901,175.574 71.741,175.495 70.484 C 175.416 69.228,175.352 70.360,175.353 73.000 M225.301 72.600 C 225.305 73.480,225.387 73.793,225.483 73.295 C 225.579 72.798,225.575 72.078,225.475 71.695 C 225.375 71.313,225.296 71.720,225.301 72.600 M197.738 98.494 C 198.346 98.881,203.100 98.886,203.338 98.500 C 203.440 98.335,202.118 98.200,200.400 98.200 C 198.682 98.200,197.484 98.332,197.738 98.494 " stroke="none" fill="#2c2c2c" fill-rule="evenodd"></path><path id="path2" d="M192.800 7.621 C 192.169 7.837,192.832 7.878,194.600 7.732 C 196.140 7.605,197.475 7.434,197.567 7.351 C 197.896 7.053,193.779 7.287,192.800 7.621 M205.000 7.618 C 207.827 8.059,209.799 8.048,208.400 7.600 C 207.850 7.424,206.410 7.286,205.200 7.293 L 203.000 7.307 205.000 7.618 M188.400 8.400 C 187.605 8.914,188.604 8.914,189.800 8.400 L 190.600 8.056 189.800 8.034 C 189.360 8.022,188.730 8.187,188.400 8.400 M211.200 8.400 C 211.530 8.613,212.250 8.778,212.800 8.766 C 213.716 8.746,213.733 8.715,213.000 8.400 C 211.816 7.891,210.413 7.891,211.200 8.400 M176.333 11.500 C 176.260 11.665,175.243 12.241,174.074 12.781 C 172.904 13.320,171.863 13.898,171.760 14.065 C 171.584 14.349,174.932 12.910,177.192 11.731 C 178.143 11.235,178.151 11.205,177.333 11.202 C 176.857 11.201,176.407 11.335,176.333 11.500 M224.400 11.919 C 226.796 13.095,228.000 13.590,228.000 13.398 C 228.000 13.104,224.081 11.198,223.513 11.216 C 223.231 11.225,223.630 11.541,224.400 11.919 M167.014 16.221 C 166.361 16.782,165.227 17.613,164.493 18.066 C 163.759 18.520,163.243 18.977,163.348 19.081 C 163.508 19.242,167.384 16.621,168.580 15.542 C 169.548 14.670,168.076 15.308,167.014 16.221 M233.200 15.980 C 236.587 18.642,236.540 18.613,235.972 17.703 C 235.685 17.244,234.719 16.492,233.825 16.031 C 232.325 15.258,232.277 15.254,233.200 15.980 M240.748 21.234 C 241.930 22.336,243.008 23.125,243.145 22.989 C 243.281 22.852,243.046 22.546,242.621 22.308 C 242.197 22.070,241.247 21.274,240.511 20.538 C 239.775 19.802,239.044 19.207,238.887 19.215 C 238.729 19.224,239.567 20.132,240.748 21.234 M159.486 21.635 C 158.653 22.520,158.325 23.054,158.758 22.823 C 159.415 22.471,161.524 19.971,161.127 20.014 C 161.057 20.021,160.318 20.751,159.486 21.635 M156.400 23.713 C 156.070 23.981,155.358 24.858,154.818 25.662 C 154.278 26.466,153.321 27.429,152.691 27.801 C 152.060 28.173,151.635 28.569,151.746 28.679 C 152.003 28.937,154.800 26.818,154.800 26.366 C 154.800 26.179,155.436 25.391,156.213 24.613 C 157.556 23.270,157.680 22.673,156.400 23.713 M244.304 24.064 C 244.687 24.539,245.959 25.934,247.131 27.164 C 248.304 28.394,249.946 30.120,250.781 31.000 C 251.616 31.880,252.593 33.180,252.954 33.888 C 253.314 34.597,253.928 35.497,254.319 35.888 C 255.323 36.893,256.937 39.219,257.451 40.400 C 257.691 40.950,258.299 42.210,258.803 43.200 C 260.905 47.331,261.200 47.989,261.200 48.557 C 261.200 48.885,261.380 49.264,261.600 49.400 C 261.820 49.536,262.000 50.059,262.000 50.562 C 262.000 51.065,262.294 52.066,262.653 52.785 C 263.012 53.505,263.450 54.658,263.626 55.347 C 263.803 56.036,264.261 57.770,264.645 59.200 C 265.508 62.418,265.731 82.667,264.933 85.400 C 264.676 86.280,264.254 87.810,263.994 88.800 C 263.734 89.790,263.360 90.913,263.161 91.295 C 262.962 91.677,262.800 92.228,262.800 92.519 C 262.800 92.811,262.440 93.795,262.000 94.706 C 261.560 95.616,261.200 96.690,261.200 97.092 C 261.200 97.493,260.932 98.204,260.605 98.671 C 259.975 99.571,259.118 101.600,259.368 101.600 C 259.712 101.600,261.600 97.546,261.600 96.807 C 261.600 96.363,261.780 96.000,262.000 96.000 C 262.220 96.000,262.400 95.561,262.400 95.024 C 262.400 94.487,262.580 93.936,262.800 93.800 C 263.020 93.664,263.200 93.201,263.200 92.771 C 263.200 92.341,263.358 91.677,263.551 91.295 C 264.135 90.139,264.800 87.796,264.800 86.895 C 264.800 86.429,264.980 85.936,265.200 85.800 C 265.420 85.664,265.600 84.113,265.600 82.353 C 265.600 80.321,265.746 79.243,266.000 79.400 C 266.261 79.561,266.400 77.271,266.400 72.824 C 266.400 68.541,266.251 66.000,266.000 66.000 C 265.778 66.000,265.600 64.940,265.600 63.620 C 265.600 62.310,265.308 60.195,264.951 58.920 C 264.594 57.644,264.214 56.013,264.107 55.296 C 263.999 54.579,263.751 53.894,263.556 53.773 C 263.360 53.652,263.200 53.203,263.200 52.776 C 263.200 52.349,263.020 52.000,262.800 52.000 C 262.580 52.000,262.400 51.269,262.400 50.376 C 262.400 49.396,262.242 48.851,262.000 49.000 C 261.780 49.136,261.600 48.910,261.600 48.499 C 261.600 47.737,260.586 45.567,259.217 43.400 C 258.800 42.740,258.445 41.795,258.429 41.300 C 258.413 40.805,258.220 40.400,258.000 40.400 C 257.780 40.400,257.600 40.130,257.600 39.800 C 257.600 39.470,257.325 38.885,256.988 38.500 C 254.903 36.113,253.200 33.899,253.200 33.572 C 253.200 33.364,252.255 32.144,251.100 30.861 C 249.945 29.579,248.725 28.184,248.388 27.763 C 248.052 27.342,247.320 26.637,246.762 26.198 C 246.205 25.759,245.424 24.905,245.028 24.300 C 244.632 23.695,244.150 23.200,243.958 23.200 C 243.765 23.200,243.921 23.589,244.304 24.064 M151.200 29.458 C 151.200 29.673,150.822 30.255,150.360 30.751 C 149.898 31.247,149.608 31.741,149.716 31.849 C 149.824 31.958,150.312 31.485,150.800 30.800 C 151.288 30.115,151.578 29.444,151.444 29.310 C 151.310 29.176,151.200 29.243,151.200 29.458 M146.100 36.018 C 145.385 36.832,144.800 37.638,144.800 37.811 C 144.800 37.983,144.330 38.740,143.756 39.493 C 142.844 40.689,142.819 40.795,143.556 40.335 C 144.020 40.045,144.401 39.626,144.402 39.404 C 144.403 39.182,145.134 38.036,146.027 36.859 C 147.925 34.354,147.965 33.895,146.100 36.018 M142.312 42.200 C 142.174 42.860,141.596 44.083,141.030 44.918 C 140.463 45.753,140.000 46.625,140.000 46.856 C 140.000 47.087,139.665 47.754,139.256 48.338 C 138.498 49.419,137.811 53.364,138.450 52.969 C 138.642 52.850,138.801 52.088,138.801 51.276 C 138.802 50.464,139.162 49.211,139.601 48.490 C 140.041 47.770,140.400 46.937,140.400 46.639 C 140.400 46.342,140.680 45.865,141.023 45.581 C 141.815 44.923,142.868 42.430,142.696 41.619 C 142.624 41.278,142.451 41.540,142.312 42.200 M193.800 48.388 C 193.360 48.583,192.528 48.843,191.951 48.966 C 191.373 49.089,190.473 49.551,189.951 49.991 L 189.000 50.793 190.600 50.024 C 194.116 48.333,203.165 47.851,208.289 49.083 C 209.218 49.306,209.895 49.354,209.793 49.189 C 209.277 48.354,195.440 47.662,193.800 48.388 M212.211 50.952 C 214.028 52.222,216.158 53.272,215.632 52.639 C 215.341 52.287,214.899 51.996,214.651 51.991 C 214.403 51.986,213.750 51.630,213.200 51.200 C 212.650 50.770,212.025 50.414,211.811 50.409 C 211.597 50.404,211.777 50.648,212.211 50.952 M187.206 51.623 C 186.440 52.050,186.080 52.396,186.406 52.391 C 186.733 52.386,187.450 52.030,188.000 51.600 C 189.256 50.617,188.996 50.625,187.206 51.623 M137.654 54.165 C 137.571 55.334,136.402 59.258,135.748 60.563 C 135.404 61.250,135.312 61.872,135.525 62.085 C 135.737 62.297,136.085 61.658,136.375 60.522 C 136.646 59.465,137.135 57.840,137.463 56.910 C 137.790 55.981,137.980 54.811,137.884 54.310 C 137.746 53.593,137.697 53.562,137.654 54.165 M216.433 53.700 C 216.525 53.755,217.140 54.250,217.800 54.800 L 219.000 55.800 218.030 54.700 C 217.497 54.095,216.882 53.600,216.664 53.600 C 216.445 53.600,216.342 53.645,216.433 53.700 M181.600 56.400 C 180.903 57.280,180.423 58.000,180.533 58.000 C 180.643 58.000,181.303 57.280,182.000 56.400 C 182.697 55.520,183.177 54.800,183.067 54.800 C 182.957 54.800,182.297 55.520,181.600 56.400 M220.258 58.003 C 220.730 58.551,221.675 59.890,222.358 60.978 C 223.041 62.066,223.600 62.777,223.600 62.557 C 223.600 61.899,221.393 58.660,220.361 57.803 L 219.400 57.006 220.258 58.003 M179.053 59.991 C 178.474 60.867,178.000 61.717,178.000 61.880 C 178.000 62.044,178.242 61.823,178.539 61.389 C 179.841 59.481,180.478 58.400,180.299 58.400 C 180.193 58.400,179.632 59.116,179.053 59.991 M135.246 64.467 C 135.221 64.833,134.975 65.214,134.700 65.312 C 134.425 65.410,134.338 65.638,134.507 65.819 C 134.977 66.322,135.699 65.379,135.484 64.542 C 135.328 63.936,135.284 63.922,135.246 64.467 M175.850 69.250 C 175.528 70.859,175.597 75.507,175.962 76.800 C 176.117 77.350,176.234 75.595,176.222 72.900 C 176.198 67.463,176.201 67.495,175.850 69.250 M134.551 72.800 C 134.551 75.330,134.616 76.365,134.696 75.100 C 134.775 73.835,134.775 71.765,134.696 70.500 C 134.616 69.235,134.551 70.270,134.551 72.800 M134.400 79.824 C 134.400 80.167,134.580 80.336,134.800 80.200 C 135.028 80.059,135.214 80.435,135.232 81.076 C 135.249 81.694,135.357 81.967,135.471 81.683 C 135.756 80.971,135.273 79.200,134.792 79.200 C 134.577 79.200,134.400 79.481,134.400 79.824 M176.400 80.122 C 176.400 80.441,176.670 80.926,177.000 81.200 C 177.454 81.576,177.600 81.581,177.600 81.220 C 177.600 80.958,177.330 80.473,177.000 80.143 C 176.485 79.628,176.400 79.625,176.400 80.122 M135.500 83.031 C 135.085 83.449,135.123 84.704,135.556 84.867 C 136.024 85.042,138.400 93.387,138.400 94.857 C 138.400 95.486,138.580 96.000,138.800 96.000 C 139.020 96.000,139.200 96.435,139.200 96.967 C 139.200 97.498,139.337 97.993,139.504 98.067 C 139.671 98.140,140.598 99.778,141.565 101.706 C 142.531 103.634,143.389 105.144,143.471 105.062 C 143.553 104.980,143.230 104.123,142.753 103.157 C 142.276 102.190,141.687 100.950,141.444 100.400 C 141.200 99.850,140.911 99.310,140.800 99.200 C 140.689 99.090,140.353 98.460,140.053 97.800 C 139.752 97.140,139.348 96.287,139.153 95.905 C 138.959 95.523,138.800 94.820,138.800 94.341 C 138.800 93.863,138.187 91.386,137.438 88.836 C 136.689 86.286,136.014 83.869,135.938 83.464 C 135.862 83.059,135.665 82.864,135.500 83.031 M222.000 85.400 C 221.717 85.741,221.576 86.109,221.686 86.219 C 221.796 86.329,222.117 86.141,222.400 85.800 C 222.683 85.459,222.824 85.091,222.714 84.981 C 222.604 84.871,222.283 85.059,222.000 85.400 M220.206 87.488 L 219.504 88.600 220.430 87.711 C 220.939 87.222,221.255 86.722,221.132 86.599 C 221.009 86.476,220.592 86.876,220.206 87.488 M182.171 89.897 C 182.815 90.609,183.430 91.104,183.538 90.996 C 183.645 90.888,183.658 90.755,183.567 90.700 C 183.475 90.645,182.860 90.151,182.200 89.601 L 181.000 88.603 182.171 89.897 M217.417 90.924 C 216.425 91.527,215.465 92.400,215.793 92.400 C 215.930 92.400,216.705 91.950,217.514 91.400 C 218.982 90.403,218.903 90.019,217.417 90.924 M185.600 93.220 C 186.987 94.161,187.778 94.435,186.800 93.636 C 186.250 93.186,185.620 92.817,185.400 92.815 C 185.180 92.813,185.270 92.996,185.600 93.220 M207.200 96.400 C 207.200 96.869,207.507 96.869,208.600 96.400 C 209.309 96.095,209.275 96.053,208.300 96.028 C 207.695 96.013,207.200 96.180,207.200 96.400 M194.600 97.200 C 195.040 97.389,195.760 97.538,196.200 97.532 C 196.843 97.523,196.804 97.457,196.000 97.200 C 194.632 96.762,193.581 96.762,194.600 97.200 M205.000 97.200 C 203.893 97.482,203.877 97.509,204.800 97.547 C 205.350 97.569,206.070 97.413,206.400 97.200 C 207.081 96.760,206.729 96.760,205.000 97.200 M199.111 97.893 C 200.051 97.978,201.491 97.977,202.311 97.891 C 203.130 97.805,202.360 97.736,200.600 97.737 C 198.840 97.739,198.170 97.809,199.111 97.893 M258.508 102.490 C 258.284 102.771,257.857 103.720,257.559 104.600 C 257.260 105.480,256.337 106.990,255.508 107.956 C 254.679 108.922,253.996 109.912,253.991 110.156 C 253.986 110.400,253.630 111.050,253.200 111.600 C 252.770 112.150,252.414 112.920,252.409 113.312 C 252.404 113.703,251.680 114.934,250.800 116.048 C 249.920 117.161,249.200 118.261,249.200 118.492 C 249.200 118.723,249.649 118.250,250.197 117.442 C 250.746 116.634,251.556 115.584,251.997 115.111 C 252.439 114.637,252.800 113.935,252.800 113.551 C 252.800 112.684,255.025 109.013,256.500 107.448 C 257.105 106.807,257.600 105.959,257.600 105.564 C 257.600 105.170,257.780 104.736,258.000 104.600 C 258.220 104.464,258.400 104.018,258.400 103.610 C 258.400 103.201,258.625 102.786,258.900 102.688 C 259.175 102.590,259.291 102.391,259.157 102.245 C 259.023 102.100,258.731 102.210,258.508 102.490 M143.944 106.459 C 144.127 106.954,144.489 107.400,144.748 107.449 C 145.008 107.499,145.036 107.449,144.810 107.337 C 144.585 107.225,144.400 106.889,144.400 106.590 C 144.400 106.292,144.222 105.937,144.005 105.803 C 143.755 105.649,143.732 105.888,143.944 106.459 M145.881 108.961 C 146.277 109.489,146.657 109.867,146.728 109.800 C 146.938 109.599,145.834 108.000,145.485 108.000 C 145.308 108.000,145.486 108.432,145.881 108.961 M147.074 111.079 C 147.443 112.085,149.202 114.672,149.191 114.193 C 149.186 113.977,148.830 113.350,148.400 112.800 C 147.970 112.250,147.614 111.586,147.609 111.324 C 147.604 111.062,147.422 110.737,147.205 110.603 C 146.968 110.457,146.915 110.648,147.074 111.079 M149.700 115.438 C 150.085 115.892,150.400 116.564,150.400 116.931 C 150.400 117.299,150.580 117.600,150.800 117.600 C 151.020 117.600,151.200 117.900,151.200 118.267 C 151.200 118.633,151.314 118.820,151.452 118.681 C 151.805 118.329,150.563 115.825,149.707 115.162 C 149.032 114.639,149.032 114.652,149.700 115.438 M151.616 119.271 C 151.607 119.421,151.834 119.781,152.119 120.071 C 153.083 121.052,155.200 125.091,155.200 125.949 C 155.200 126.417,155.380 126.800,155.600 126.800 C 155.820 126.800,156.000 127.019,156.000 127.287 C 156.000 127.555,156.415 128.140,156.923 128.587 C 158.034 129.566,160.000 133.025,160.000 134.001 C 160.000 134.387,160.270 134.926,160.600 135.200 C 161.279 135.764,161.366 135.515,160.846 134.495 C 160.651 134.113,159.976 132.745,159.346 131.456 C 158.716 130.166,157.840 128.809,157.400 128.441 C 156.395 127.599,155.603 126.225,155.591 125.305 C 155.586 124.917,155.230 124.150,154.800 123.600 C 154.370 123.050,154.014 122.413,154.009 122.185 C 153.999 121.718,151.642 118.848,151.616 119.271 M247.780 121.500 C 247.167 122.765,246.424 123.945,246.129 124.122 C 245.834 124.299,245.324 125.086,244.996 125.871 C 244.098 128.019,244.297 128.465,245.233 126.402 C 245.681 125.414,246.307 124.460,246.624 124.283 C 246.941 124.105,247.200 123.772,247.200 123.542 C 247.200 123.312,247.533 122.646,247.939 122.062 C 248.596 121.118,249.313 119.200,249.009 119.200 C 248.946 119.200,248.393 120.235,247.780 121.500 M242.646 130.386 C 242.051 131.480,241.397 132.479,241.192 132.605 C 240.626 132.955,239.461 135.595,239.748 135.881 C 239.886 136.020,240.000 135.833,240.000 135.467 C 240.000 135.100,240.180 134.800,240.400 134.800 C 240.620 134.800,240.800 134.462,240.800 134.049 C 240.800 133.636,241.064 133.079,241.387 132.811 C 242.050 132.260,244.088 128.754,243.871 128.537 C 243.793 128.460,243.242 129.291,242.646 130.386 M161.200 136.083 C 161.200 136.197,161.740 136.969,162.400 137.800 C 163.060 138.631,163.601 139.510,163.602 139.755 C 163.604 140.000,164.684 141.989,166.002 144.176 C 167.321 146.363,168.400 147.936,168.400 147.671 C 168.400 147.162,167.576 145.539,167.146 145.200 C 166.840 144.958,165.499 142.610,163.914 139.538 C 162.920 137.611,161.200 135.422,161.200 136.083 M236.617 140.535 C 236.058 141.489,235.600 142.559,235.600 142.912 C 235.600 143.264,235.428 143.659,235.219 143.788 C 235.009 143.918,234.446 144.604,233.967 145.312 C 233.154 146.515,233.192 146.500,234.548 145.078 C 235.347 144.240,236.000 143.302,236.000 142.992 C 236.000 142.682,236.456 141.612,237.013 140.614 C 238.306 138.298,237.968 138.230,236.617 140.535 M232.205 148.249 C 231.872 149.046,231.600 149.779,231.600 149.879 C 231.600 149.979,230.700 151.401,229.600 153.038 C 228.500 154.676,227.600 156.344,227.600 156.746 C 227.600 157.147,227.240 157.802,226.800 158.200 C 226.360 158.598,226.000 159.125,226.000 159.371 C 226.000 159.617,225.430 160.509,224.734 161.353 C 223.835 162.444,223.709 162.738,224.301 162.369 C 224.759 162.083,225.511 161.093,225.973 160.168 C 226.435 159.244,227.080 158.266,227.406 157.995 C 227.733 157.724,228.000 157.192,228.000 156.814 C 228.000 156.260,230.790 151.596,231.597 150.800 C 231.904 150.498,233.188 146.800,232.986 146.800 C 232.890 146.800,232.538 147.452,232.205 148.249 M168.402 148.651 C 168.401 148.899,168.690 149.343,169.045 149.637 C 169.754 150.226,172.000 154.642,172.000 155.449 C 172.000 155.727,172.641 156.640,173.424 157.478 C 175.025 159.190,176.800 162.379,176.800 163.544 C 176.800 163.968,177.072 164.419,177.404 164.546 C 177.736 164.673,177.968 164.918,177.921 165.089 C 177.873 165.260,178.412 166.004,179.117 166.742 C 180.921 168.630,180.715 167.917,178.800 165.646 C 177.920 164.602,177.200 163.462,177.200 163.112 C 177.200 162.237,175.729 159.557,174.382 157.979 C 173.769 157.260,173.096 156.296,172.886 155.836 C 170.931 151.543,168.407 147.498,168.402 148.651 M223.000 164.000 C 222.850 164.473,222.817 164.950,222.927 165.060 C 223.037 165.170,223.250 164.873,223.400 164.400 C 223.550 163.927,223.583 163.450,223.473 163.340 C 223.363 163.230,223.150 163.527,223.000 164.000 M221.798 166.402 C 221.398 166.844,221.166 167.299,221.282 167.415 C 221.397 167.530,221.790 167.169,222.155 166.612 C 222.952 165.396,222.793 165.302,221.798 166.402 M220.522 168.700 C 220.383 169.085,219.939 169.878,219.535 170.462 C 218.696 171.674,218.555 172.317,219.300 171.529 C 219.722 171.082,220.130 170.353,221.105 168.300 C 221.183 168.135,221.141 168.000,221.011 168.000 C 220.881 168.000,220.661 168.315,220.522 168.700 M180.412 168.800 C 180.412 169.130,180.587 169.670,180.800 170.000 C 181.145 170.533,181.188 170.533,181.188 170.000 C 181.188 169.670,181.013 169.130,180.800 168.800 C 180.455 168.267,180.412 168.267,180.412 168.800 M181.200 171.138 C 181.200 171.324,181.588 171.819,182.062 172.238 L 182.924 173.000 182.216 171.900 C 181.486 170.766,181.200 170.551,181.200 171.138 M217.078 174.616 C 216.265 175.822,215.600 177.015,215.600 177.267 C 215.600 177.518,216.329 176.596,217.221 175.216 C 219.227 172.112,219.106 171.604,217.078 174.616 M182.800 173.551 C 182.800 173.744,183.070 174.126,183.400 174.400 C 183.730 174.674,184.000 175.124,184.000 175.400 C 184.000 175.676,184.270 176.126,184.600 176.400 C 185.488 177.137,185.332 176.582,184.147 174.791 C 183.078 173.176,182.800 172.920,182.800 173.551 M185.211 177.829 C 185.217 178.033,185.757 178.907,186.411 179.771 C 187.065 180.635,187.595 181.175,187.589 180.971 C 187.583 180.767,187.043 179.893,186.389 179.029 C 185.735 178.165,185.205 177.625,185.211 177.829 M213.425 181.100 C 212.883 181.925,212.075 183.050,211.629 183.600 C 211.183 184.150,210.814 184.870,210.810 185.200 C 210.806 185.530,211.168 185.202,211.614 184.470 C 212.060 183.739,212.779 182.760,213.212 182.295 C 213.646 181.830,214.000 181.213,214.000 180.925 C 214.000 180.636,214.270 180.400,214.600 180.400 C 214.930 180.400,215.200 180.220,215.200 180.000 C 215.200 179.149,214.367 179.665,213.425 181.100 M188.298 182.782 C 189.216 184.589,190.000 185.478,190.000 184.713 C 190.000 184.414,189.459 183.547,188.798 182.785 L 187.595 181.400 188.298 182.782 M190.016 186.215 C 190.025 186.427,190.565 187.223,191.216 187.985 C 191.867 188.747,192.393 189.197,192.384 188.985 C 192.375 188.773,191.835 187.977,191.184 187.215 C 190.533 186.453,190.007 186.003,190.016 186.215 M208.846 189.033 C 208.399 189.601,207.923 190.411,207.790 190.833 C 207.656 191.255,207.378 191.600,207.173 191.600 C 206.968 191.600,206.800 191.808,206.800 192.062 C 206.800 192.324,207.146 192.211,207.600 191.800 C 208.040 191.402,208.400 190.907,208.400 190.700 C 208.400 190.493,208.772 189.801,209.227 189.162 C 210.252 187.723,209.955 187.623,208.846 189.033 M192.679 190.300 C 192.967 191.094,194.000 192.697,194.000 192.350 C 194.000 192.002,192.763 189.600,192.583 189.600 C 192.496 189.600,192.539 189.915,192.679 190.300 M194.010 193.033 C 194.025 193.583,196.830 197.303,197.058 197.076 C 197.166 196.967,196.592 196.006,195.783 194.939 C 193.981 192.564,193.998 192.582,194.010 193.033 M203.422 198.222 C 203.045 198.798,202.816 199.349,202.914 199.447 C 203.012 199.545,203.400 199.154,203.778 198.578 C 204.155 198.002,204.384 197.451,204.286 197.353 C 204.188 197.255,203.800 197.646,203.422 198.222 M198.493 201.200 C 198.768 201.640,199.131 202.000,199.300 202.000 C 199.469 202.000,199.382 201.640,199.107 201.200 C 198.832 200.760,198.469 200.400,198.300 200.400 C 198.131 200.400,198.218 200.760,198.493 201.200 " stroke="none" fill="#545454" fill-rule="evenodd"></path><path id="path3" d="M194.400 31.968 C 191.241 32.276,187.600 33.355,184.979 34.760 C 184.117 35.222,183.166 35.600,182.866 35.600 C 182.161 35.600,177.853 38.257,176.962 39.242 C 176.585 39.659,176.089 40.000,175.860 40.000 C 175.121 40.000,172.538 41.995,172.017 42.968 C 171.739 43.487,171.076 44.145,170.542 44.431 C 170.009 44.716,169.190 45.591,168.722 46.375 C 168.254 47.159,167.515 48.198,167.080 48.685 C 165.931 49.970,165.267 51.197,162.576 57.000 C 160.202 62.120,159.601 65.265,159.600 72.567 C 159.600 80.407,160.051 82.916,162.414 88.200 C 163.004 89.520,163.730 91.280,164.028 92.110 C 164.325 92.941,165.245 94.381,166.073 95.310 C 166.900 96.240,167.582 97.210,167.589 97.468 C 167.621 98.781,175.322 105.861,179.044 108.000 C 187.696 112.971,198.845 115.181,206.600 113.464 C 208.140 113.123,210.660 112.565,212.200 112.225 C 215.537 111.488,216.867 110.984,219.000 109.645 C 219.880 109.093,221.410 108.230,222.400 107.727 C 226.739 105.521,234.014 97.897,236.502 92.949 C 237.041 91.877,237.941 90.092,238.502 88.982 C 240.941 84.159,242.327 70.554,240.925 65.200 C 240.666 64.210,240.230 62.243,239.957 60.828 C 239.684 59.414,238.811 57.074,238.018 55.628 C 237.225 54.183,236.324 52.370,236.018 51.600 C 235.711 50.830,234.703 49.376,233.779 48.370 C 232.854 47.363,231.986 46.187,231.850 45.756 C 231.713 45.325,231.069 44.659,230.420 44.275 C 229.770 43.891,228.831 42.998,228.334 42.289 C 227.228 40.712,226.399 40.029,225.572 40.013 C 225.227 40.006,224.210 39.372,223.313 38.604 C 221.659 37.188,218.086 35.200,217.196 35.200 C 216.928 35.200,216.054 34.858,215.254 34.440 C 210.756 32.091,202.803 31.148,194.400 31.968 M210.617 49.201 C 214.803 51.189,217.802 53.378,219.697 55.829 C 223.101 60.233,224.000 61.699,224.000 62.851 C 224.000 63.489,224.180 64.368,224.400 64.805 C 224.620 65.242,224.980 65.958,225.200 66.395 C 225.420 66.832,225.600 69.802,225.600 72.995 C 225.600 76.598,225.448 78.800,225.200 78.800 C 224.980 78.800,224.800 79.242,224.800 79.781 C 224.800 80.321,224.643 81.176,224.451 81.681 C 224.259 82.187,223.873 83.315,223.593 84.189 C 223.313 85.063,222.390 86.465,221.542 87.304 C 220.694 88.144,220.000 89.086,220.000 89.398 C 220.000 89.711,219.341 90.469,218.535 91.083 C 217.729 91.697,216.694 92.583,216.235 93.051 C 215.163 94.142,212.577 95.597,211.688 95.609 C 211.310 95.614,210.550 95.970,210.000 96.400 C 209.450 96.830,208.606 97.186,208.124 97.191 C 207.642 97.196,207.136 97.380,207.000 97.600 C 206.864 97.820,206.079 98.000,205.256 98.000 C 204.433 98.000,203.564 98.196,203.324 98.436 C 203.053 98.707,201.922 98.793,200.344 98.664 C 195.385 98.258,194.364 98.001,191.146 96.347 C 190.346 95.936,189.401 95.600,189.046 95.600 C 188.690 95.600,188.400 95.420,188.400 95.200 C 188.400 94.980,188.128 94.800,187.795 94.800 C 186.613 94.800,184.000 92.830,184.000 91.939 C 184.000 91.752,183.755 91.600,183.455 91.600 C 182.669 91.600,180.778 89.614,180.150 88.127 C 179.854 87.427,179.425 86.739,179.197 86.598 C 174.771 83.863,173.991 64.752,178.136 60.607 C 178.472 60.271,178.862 59.636,179.001 59.198 C 179.140 58.759,179.422 58.400,179.627 58.400 C 179.832 58.400,180.000 58.136,180.000 57.814 C 180.000 57.284,184.916 52.000,185.408 52.000 C 185.522 52.000,186.804 51.277,188.257 50.394 C 193.645 47.121,204.964 46.517,210.617 49.201 " stroke="none" fill="#242424" fill-rule="evenodd"></path><path id="path4" d="M194.000 7.790 C 187.532 8.689,185.272 9.141,183.000 9.990 C 181.299 10.626,179.321 11.200,178.832 11.200 C 178.551 11.200,176.431 12.100,174.123 13.200 C 171.814 14.300,169.742 15.200,169.518 15.200 C 169.295 15.200,167.874 16.100,166.362 17.200 C 164.850 18.300,163.336 19.200,162.999 19.200 C 162.662 19.200,161.625 19.979,160.693 20.930 C 159.762 21.882,158.334 23.061,157.520 23.550 C 156.706 24.040,155.671 25.038,155.219 25.770 C 154.767 26.501,153.769 27.526,153.001 28.049 C 152.234 28.572,151.604 29.208,151.603 29.462 C 151.601 29.717,150.700 30.859,149.600 32.000 C 148.500 33.141,147.606 34.283,147.613 34.538 C 147.621 34.792,147.986 34.550,148.425 34.000 C 150.495 31.408,153.146 28.463,154.230 27.553 C 154.654 27.198,155.504 26.252,156.119 25.451 C 156.735 24.650,157.839 23.744,158.573 23.437 C 159.307 23.130,160.226 22.341,160.614 21.684 C 161.019 20.998,162.105 20.130,163.160 19.649 C 164.172 19.188,165.949 18.088,167.108 17.205 C 168.268 16.322,169.466 15.600,169.770 15.600 C 170.075 15.600,171.016 15.253,171.862 14.828 C 176.938 12.281,178.526 11.600,179.388 11.600 C 179.919 11.600,180.464 11.420,180.600 11.200 C 180.736 10.980,181.276 10.800,181.800 10.800 C 182.324 10.800,182.852 10.640,182.973 10.444 C 183.094 10.249,183.779 9.986,184.496 9.861 C 185.213 9.736,186.790 9.436,188.000 9.194 C 195.342 7.728,210.203 7.510,211.035 8.856 C 211.152 9.045,212.036 9.200,213.000 9.200 C 213.964 9.200,214.864 9.380,215.000 9.600 C 215.136 9.820,215.856 10.000,216.600 10.000 C 217.344 10.000,218.064 10.180,218.200 10.400 C 218.336 10.620,218.876 10.800,219.400 10.800 C 219.924 10.800,220.464 10.980,220.600 11.200 C 220.736 11.420,221.205 11.600,221.643 11.600 C 222.081 11.600,223.184 11.960,224.094 12.400 C 225.005 12.840,225.914 13.200,226.113 13.200 C 226.313 13.200,226.954 13.532,227.538 13.939 C 228.122 14.345,229.455 14.924,230.500 15.226 C 231.545 15.528,232.400 15.911,232.400 16.077 C 232.400 16.243,232.895 16.637,233.500 16.952 C 234.105 17.267,235.140 17.991,235.800 18.562 C 236.460 19.132,237.384 19.599,237.853 19.600 C 238.356 19.600,239.142 20.173,239.773 21.000 C 240.361 21.771,241.398 22.689,242.078 23.040 C 243.295 23.670,248.795 29.118,248.798 29.697 C 248.800 30.057,251.213 32.400,251.582 32.400 C 251.727 32.400,252.164 33.120,252.552 34.000 C 252.940 34.880,253.419 35.600,253.615 35.600 C 253.812 35.600,253.586 34.925,253.114 34.100 C 252.259 32.607,251.230 31.423,247.086 27.161 C 245.888 25.930,244.749 24.660,244.554 24.340 C 244.359 24.019,243.570 23.373,242.800 22.904 C 242.030 22.436,240.780 21.411,240.022 20.626 C 239.263 19.842,238.380 19.200,238.059 19.200 C 237.738 19.200,236.829 18.705,236.039 18.100 C 233.728 16.330,231.993 15.200,231.585 15.200 C 231.376 15.200,229.330 14.300,227.039 13.200 C 224.747 12.100,222.643 11.200,222.364 11.200 C 221.857 11.200,219.710 10.568,218.200 9.975 C 216.854 9.446,212.171 8.519,208.200 7.996 C 203.147 7.330,197.864 7.253,194.000 7.790 M146.731 35.898 C 145.539 37.299,144.317 39.251,144.511 39.444 C 144.620 39.553,145.127 38.958,145.638 38.121 C 146.149 37.284,146.844 36.390,147.183 36.133 C 147.522 35.876,147.693 35.560,147.564 35.430 C 147.434 35.301,147.060 35.511,146.731 35.898 M254.471 36.568 C 254.762 36.880,255.611 38.144,256.357 39.377 C 257.103 40.610,257.782 41.552,257.864 41.469 C 258.219 41.115,254.903 36.000,254.318 36.000 C 254.112 36.000,254.181 36.255,254.471 36.568 M143.280 40.480 C 143.016 40.744,142.811 41.329,142.825 41.780 C 142.848 42.504,142.897 42.484,143.245 41.611 C 143.462 41.068,143.856 40.485,144.120 40.317 C 144.397 40.141,144.423 40.010,144.180 40.006 C 143.949 40.003,143.544 40.216,143.280 40.480 M142.228 43.671 C 142.063 44.259,141.584 45.052,141.164 45.433 C 140.744 45.813,140.400 46.362,140.400 46.652 C 140.400 46.943,140.041 47.770,139.601 48.490 C 139.162 49.211,138.806 50.070,138.810 50.400 C 138.814 50.730,139.374 49.920,140.055 48.600 C 140.735 47.280,141.645 45.704,142.075 45.098 C 142.506 44.491,142.784 43.681,142.693 43.298 C 142.569 42.771,142.454 42.863,142.228 43.671 M258.818 44.200 C 258.818 44.420,259.170 45.050,259.600 45.600 C 260.030 46.150,260.382 46.420,260.382 46.200 C 260.382 45.980,260.030 45.350,259.600 44.800 C 259.170 44.250,258.818 43.980,258.818 44.200 M210.400 49.567 C 211.363 50.352,212.000 50.608,212.000 50.210 C 212.000 50.106,211.415 49.735,210.700 49.386 L 209.400 48.752 210.400 49.567 M261.228 49.676 C 261.296 50.944,261.942 51.854,261.972 50.724 C 261.987 50.132,261.820 49.536,261.600 49.400 C 261.380 49.264,261.213 49.388,261.228 49.676 M182.844 54.617 C 181.445 56.056,180.368 57.294,180.450 57.367 C 180.533 57.440,181.800 56.263,183.268 54.750 C 184.735 53.238,185.812 52.000,185.662 52.000 C 185.511 52.000,184.244 53.178,182.844 54.617 M216.712 53.463 C 217.653 54.308,218.733 55.466,219.112 56.035 C 220.019 57.399,222.800 60.613,222.800 60.296 C 222.800 60.160,222.125 59.249,221.300 58.272 C 220.475 57.295,219.310 55.860,218.711 55.083 C 218.112 54.306,217.032 53.277,216.311 52.798 C 215.277 52.110,215.362 52.250,216.712 53.463 M138.267 53.067 C 138.120 53.213,138.016 53.888,138.036 54.567 L 138.072 55.800 138.459 54.456 C 138.845 53.113,138.769 52.564,138.267 53.067 M137.211 57.600 C 136.935 58.590,136.460 60.197,136.155 61.171 C 135.850 62.145,135.600 63.546,135.600 64.284 C 135.600 65.022,135.375 65.711,135.100 65.817 C 134.437 66.071,134.383 78.769,135.041 79.470 C 135.284 79.728,135.601 80.898,135.745 82.070 C 135.889 83.241,136.454 85.550,137.002 87.200 C 137.974 90.132,138.124 89.374,137.200 86.200 C 136.944 85.320,136.581 83.519,136.394 82.198 C 136.207 80.876,135.862 79.290,135.627 78.672 C 134.957 76.910,135.082 67.856,135.800 66.138 C 136.130 65.349,136.400 63.925,136.400 62.975 C 136.400 62.025,136.580 61.136,136.800 61.000 C 137.020 60.864,137.200 60.212,137.200 59.550 C 137.200 58.889,137.392 57.989,137.626 57.552 C 137.860 57.114,137.976 56.541,137.882 56.278 C 137.789 56.015,137.487 56.610,137.211 57.600 M264.400 60.110 C 264.400 60.683,264.587 61.268,264.816 61.410 C 265.089 61.579,265.138 61.277,264.960 60.534 C 264.592 59.001,264.400 58.856,264.400 60.110 M177.288 62.266 C 176.649 63.509,176.321 65.296,176.784 65.010 C 177.013 64.868,177.200 64.349,177.200 63.856 C 177.200 63.363,177.413 62.747,177.673 62.487 C 177.934 62.226,178.038 61.905,177.906 61.772 C 177.773 61.640,177.495 61.862,177.288 62.266 M223.660 63.476 C 223.627 64.178,223.780 64.864,224.000 65.000 C 224.220 65.136,224.400 65.676,224.400 66.200 C 224.400 66.724,224.580 67.264,224.800 67.400 C 225.020 67.536,225.229 68.492,225.264 69.524 C 225.319 71.145,225.351 71.210,225.496 70.004 C 225.654 68.697,225.021 65.899,224.363 65.000 C 224.202 64.780,223.992 64.060,223.895 63.400 L 223.720 62.200 223.660 63.476 M175.855 67.455 C 175.713 68.486,175.674 69.408,175.769 69.502 C 175.863 69.596,176.065 68.839,176.218 67.818 C 176.371 66.798,176.410 65.876,176.304 65.771 C 176.198 65.665,175.996 66.423,175.855 67.455 M265.364 72.600 C 265.363 76.340,265.423 77.924,265.497 76.120 C 265.571 74.315,265.572 71.255,265.498 69.320 C 265.425 67.384,265.364 68.860,265.364 72.600 M225.320 76.000 C 225.320 77.210,225.395 77.705,225.487 77.100 C 225.578 76.495,225.578 75.505,225.487 74.900 C 225.395 74.295,225.320 74.790,225.320 76.000 M175.680 76.800 C 175.680 77.350,175.824 78.250,176.000 78.800 L 176.320 79.800 176.320 78.800 C 176.320 78.250,176.176 77.350,176.000 76.800 L 175.680 75.800 175.680 76.800 M224.400 79.400 C 224.400 79.950,224.469 80.400,224.553 80.400 C 224.638 80.400,224.793 79.950,224.898 79.400 C 225.003 78.850,224.934 78.400,224.745 78.400 C 224.555 78.400,224.400 78.850,224.400 79.400 M264.600 84.800 C 264.450 85.273,264.417 85.750,264.527 85.860 C 264.637 85.970,264.850 85.673,265.000 85.200 C 265.150 84.727,265.183 84.250,265.073 84.140 C 264.963 84.030,264.750 84.327,264.600 84.800 M178.000 84.460 C 178.000 84.587,178.540 85.369,179.200 86.200 C 179.860 87.031,180.393 87.550,180.384 87.355 C 180.366 86.964,178.000 84.091,178.000 84.460 M221.212 86.928 C 219.779 88.447,218.346 90.875,219.397 90.002 C 219.729 89.727,220.000 89.307,220.000 89.068 C 220.000 88.829,220.667 87.951,221.481 87.117 C 222.296 86.283,222.850 85.600,222.714 85.600 C 222.577 85.600,221.901 86.198,221.212 86.928 M263.800 88.000 C 263.650 88.473,263.617 88.950,263.727 89.060 C 263.837 89.170,264.050 88.873,264.200 88.400 C 264.350 87.927,264.383 87.450,264.273 87.340 C 264.163 87.230,263.950 87.527,263.800 88.000 M180.400 88.363 C 180.400 88.618,181.298 89.535,184.100 92.141 C 186.261 94.151,185.154 92.668,182.800 90.400 C 181.480 89.128,180.400 88.212,180.400 88.363 M138.034 90.800 C 138.046 91.130,138.211 91.760,138.400 92.200 L 138.744 93.000 138.766 92.200 C 138.778 91.760,138.613 91.130,138.400 90.800 C 138.055 90.267,138.015 90.267,138.034 90.800 M261.829 93.943 C 261.483 94.612,261.207 95.394,261.216 95.680 C 261.225 95.966,261.584 95.494,262.014 94.632 C 262.445 93.769,262.721 92.988,262.628 92.895 C 262.535 92.802,262.176 93.273,261.829 93.943 M193.800 97.222 C 194.680 97.638,195.940 97.964,196.600 97.946 C 197.604 97.918,197.525 97.858,196.119 97.580 C 195.194 97.398,194.081 97.057,193.645 96.824 C 193.209 96.591,192.706 96.415,192.526 96.432 C 192.347 96.450,192.920 96.805,193.800 97.222 M207.200 96.878 C 206.650 97.114,205.570 97.442,204.800 97.607 C 203.436 97.900,203.431 97.908,204.600 97.924 C 205.260 97.933,206.520 97.607,207.400 97.200 C 209.086 96.420,208.915 96.145,207.200 96.878 M139.600 96.934 C 139.600 97.230,140.468 98.868,140.801 99.200 C 140.911 99.310,141.204 99.850,141.452 100.400 C 143.293 104.489,144.760 107.168,145.700 108.159 C 146.305 108.797,146.800 109.551,146.800 109.836 C 146.800 110.120,146.980 110.464,147.200 110.600 C 148.157 111.191,147.478 109.467,146.195 108.048 C 144.996 106.720,142.023 101.121,141.989 100.126 C 141.975 99.723,139.600 96.550,139.600 96.934 M260.242 98.437 C 259.347 100.230,259.453 100.451,260.457 98.883 C 260.920 98.159,261.206 97.473,261.092 97.358 C 260.977 97.244,260.595 97.729,260.242 98.437 M199.100 98.289 C 199.815 98.378,200.985 98.378,201.700 98.289 C 202.415 98.201,201.830 98.128,200.400 98.128 C 198.970 98.128,198.385 98.201,199.100 98.289 M256.418 106.001 C 256.134 106.550,255.442 107.493,254.880 108.096 C 254.318 108.699,253.935 109.266,254.029 109.358 C 254.347 109.666,257.265 105.995,257.099 105.497 C 257.003 105.210,256.718 105.421,256.418 106.001 M253.022 111.022 C 252.645 111.598,252.416 112.149,252.514 112.247 C 252.612 112.345,253.000 111.954,253.378 111.378 C 253.755 110.802,253.984 110.251,253.886 110.153 C 253.788 110.055,253.400 110.446,253.022 111.022 M147.609 111.500 C 147.614 111.665,147.970 112.250,148.400 112.800 C 148.830 113.350,149.186 114.003,149.191 114.251 C 149.196 114.499,149.466 114.923,149.792 115.193 C 150.436 115.728,151.590 117.858,151.616 118.561 C 151.625 118.803,152.165 119.623,152.816 120.385 C 153.467 121.147,154.004 121.957,154.009 122.185 C 154.014 122.413,154.383 123.050,154.830 123.600 C 155.403 124.306,155.285 123.872,154.430 122.129 C 153.763 120.770,153.031 119.543,152.803 119.402 C 152.575 119.261,152.125 118.517,151.805 117.749 C 150.825 115.404,147.581 110.573,147.609 111.500 M251.083 114.781 C 250.487 115.412,250.000 116.124,250.000 116.364 C 250.000 116.604,249.859 116.800,249.688 116.800 C 249.318 116.800,248.332 119.265,248.596 119.529 C 248.696 119.629,248.973 119.197,249.212 118.568 C 249.451 117.940,250.286 116.645,251.068 115.691 C 252.695 113.705,252.706 113.062,251.083 114.781 M247.619 121.154 C 247.350 121.803,246.609 122.918,245.971 123.632 C 244.782 124.964,244.159 126.293,244.544 126.677 C 244.663 126.797,244.880 126.419,245.026 125.838 C 245.172 125.257,245.586 124.561,245.946 124.291 C 246.703 123.723,248.571 120.438,248.294 120.161 C 248.192 120.058,247.888 120.505,247.619 121.154 M155.600 125.311 C 155.600 126.195,156.349 127.506,157.465 128.573 C 158.468 129.533,160.400 132.967,160.400 133.791 C 160.400 134.100,160.568 134.457,160.774 134.584 C 161.791 135.213,159.458 130.022,158.058 128.541 C 157.611 128.069,156.876 126.992,156.423 126.147 C 155.958 125.280,155.600 124.916,155.600 125.311 M243.193 128.800 C 242.647 129.702,241.602 131.248,240.871 132.234 C 240.140 133.220,239.624 134.246,239.724 134.514 C 239.823 134.781,240.095 134.522,240.328 133.939 C 240.560 133.355,240.944 132.758,241.181 132.612 C 241.418 132.465,241.963 131.657,242.393 130.815 C 242.822 129.972,243.464 128.993,243.819 128.638 C 244.174 128.283,244.402 127.805,244.325 127.576 C 244.249 127.347,243.740 127.898,243.193 128.800 M161.200 135.348 C 161.200 135.512,161.725 136.311,162.366 137.123 C 163.007 137.936,163.928 139.457,164.413 140.505 C 164.897 141.553,165.478 142.525,165.704 142.664 C 165.930 142.804,165.829 142.397,165.479 141.759 C 165.130 141.122,164.529 139.880,164.145 139.000 C 163.499 137.519,161.200 134.668,161.200 135.348 M238.761 136.309 C 238.409 136.909,237.717 138.075,237.221 138.900 C 236.726 139.725,236.403 140.400,236.504 140.400 C 236.852 140.400,239.647 135.940,239.524 135.580 C 239.456 135.381,239.112 135.709,238.761 136.309 M235.192 142.525 C 234.772 143.474,234.079 144.566,233.652 144.953 C 233.224 145.340,232.475 146.589,231.987 147.729 C 231.499 148.868,230.303 151.035,229.329 152.545 C 228.354 154.055,227.635 155.369,227.730 155.464 C 228.003 155.736,231.422 150.361,232.003 148.747 C 232.291 147.949,233.170 146.419,233.957 145.347 C 235.242 143.598,236.579 140.800,236.130 140.800 C 236.034 140.800,235.612 141.576,235.192 142.525 M166.000 143.511 C 166.000 143.697,166.315 144.207,166.700 144.645 C 167.589 145.656,168.400 147.067,168.400 147.604 C 168.400 147.833,169.034 148.940,169.808 150.066 C 170.583 151.192,171.501 152.763,171.849 153.557 C 173.042 156.278,173.269 156.675,174.382 157.979 C 175.729 159.557,177.200 162.237,177.200 163.112 C 177.200 163.462,177.892 164.570,178.739 165.574 C 179.585 166.578,180.525 168.120,180.828 169.000 C 181.131 169.880,182.239 171.897,183.290 173.482 C 184.340 175.067,185.200 176.610,185.200 176.911 C 185.200 177.211,185.735 178.165,186.389 179.029 C 187.043 179.893,187.590 180.780,187.605 181.000 C 187.620 181.220,188.165 182.023,188.816 182.785 C 189.467 183.547,190.000 184.541,190.000 184.994 C 190.000 185.447,190.505 186.444,191.122 187.209 C 191.739 187.974,192.748 189.645,193.362 190.922 C 193.977 192.199,195.092 194.046,195.840 195.025 C 196.588 196.005,197.200 197.065,197.200 197.380 C 197.200 197.695,197.380 198.064,197.600 198.200 C 197.820 198.336,198.000 198.872,198.000 199.390 C 198.000 199.909,198.142 200.393,198.314 200.467 C 198.487 200.540,199.040 201.185,199.542 201.900 C 200.745 203.614,200.818 203.583,202.101 200.825 C 202.707 199.524,203.832 197.634,204.601 196.626 C 205.370 195.618,206.000 194.522,206.000 194.191 C 206.000 193.622,206.608 192.350,207.324 191.420 C 208.796 189.509,210.795 185.886,210.809 185.105 C 210.814 184.827,211.183 184.150,211.629 183.600 C 213.458 181.344,215.600 177.835,215.600 177.092 C 215.600 176.863,216.022 176.119,216.537 175.438 C 217.496 174.171,219.042 171.538,220.622 168.481 C 221.111 167.535,221.776 166.455,222.102 166.081 C 222.427 165.706,222.802 164.936,222.937 164.368 C 223.071 163.801,223.813 162.541,224.587 161.568 C 226.524 159.132,226.374 158.661,224.416 161.030 C 223.544 162.085,222.715 163.499,222.572 164.174 C 222.430 164.848,221.998 165.760,221.611 166.200 C 221.225 166.640,220.218 168.260,219.374 169.800 C 218.530 171.340,217.246 173.536,216.520 174.681 C 215.794 175.825,215.200 176.911,215.200 177.094 C 215.200 177.488,212.813 181.354,211.654 182.836 C 211.209 183.407,210.542 184.629,210.172 185.554 C 209.802 186.478,208.705 188.442,207.734 189.917 C 206.764 191.393,205.861 193.050,205.728 193.600 C 205.595 194.150,204.880 195.437,204.138 196.460 C 203.397 197.483,202.427 199.141,201.984 200.144 C 201.540 201.146,201.038 202.053,200.868 202.158 C 200.457 202.412,198.400 199.809,198.400 199.034 C 198.400 198.312,197.516 196.706,195.256 193.319 C 194.345 191.955,193.600 190.633,193.600 190.381 C 193.600 189.918,192.242 187.828,191.328 186.887 C 191.054 186.604,190.665 185.794,190.463 185.087 C 190.261 184.379,189.084 182.291,187.848 180.447 C 186.611 178.603,185.600 176.828,185.600 176.503 C 185.600 176.178,184.781 174.740,183.780 173.309 C 182.780 171.877,181.632 169.839,181.229 168.779 C 180.826 167.720,179.845 166.058,179.049 165.085 C 178.252 164.113,177.600 163.118,177.600 162.873 C 177.600 162.294,175.830 159.135,174.211 156.824 C 173.509 155.821,172.608 154.280,172.210 153.400 C 171.813 152.520,170.903 150.900,170.189 149.800 C 169.475 148.700,168.756 147.350,168.591 146.800 C 168.289 145.790,166.000 142.884,166.000 143.511 M226.714 157.532 L 226.027 158.951 226.852 158.125 C 227.306 157.671,227.615 157.033,227.539 156.706 C 227.455 156.347,227.129 156.673,226.714 157.532 " stroke="none" fill="#343434" fill-rule="evenodd"></path></g></svg>