<svg id="svg" version="1.1" xmlns="http://www.w3.org/2000/svg" xmlns:xlink="http://www.w3.org/1999/xlink" width="400" height="399.20000000000005" viewBox="0, 0, 400,399.20000000000005"><g id="svgg"><path id="path0" d="M192.415 8.182 C 188.267 8.734,182.866 9.898,182.236 10.376 C 182.016 10.542,181.297 10.776,180.639 10.895 C 177.893 11.392,176.254 11.989,172.851 13.731 C 170.876 14.742,168.935 15.569,168.537 15.569 C 168.140 15.569,167.305 16.101,166.682 16.750 C 166.060 17.400,164.771 18.298,163.818 18.746 C 162.865 19.194,161.688 19.875,161.203 20.259 C 159.209 21.838,149.701 30.955,149.701 31.288 C 149.701 31.423,148.659 32.926,147.385 34.629 C 146.112 36.331,144.811 38.263,144.494 38.922 C 144.177 39.581,143.637 40.389,143.294 40.719 C 142.951 41.048,142.433 41.946,142.142 42.715 C 141.851 43.483,140.918 45.533,140.068 47.270 C 139.218 49.008,138.523 50.749,138.523 51.139 C 138.523 51.530,138.343 51.960,138.124 52.096 C 137.904 52.232,137.725 52.985,137.725 53.770 C 137.725 54.555,137.556 55.846,137.349 56.640 C 135.980 61.906,135.729 63.025,135.729 63.838 C 135.729 64.339,135.449 65.338,135.108 66.057 C 134.379 67.593,134.476 77.303,135.248 80.040 C 136.192 83.388,137.725 90.464,137.725 91.468 C 137.724 92.811,139.182 96.335,142.491 102.994 C 143.727 105.480,147.351 111.554,148.089 112.375 C 148.484 112.814,149.052 113.892,149.351 114.770 C 149.651 115.649,149.993 116.457,150.112 116.567 C 150.799 117.200,154.491 123.166,154.491 123.643 C 154.491 123.956,155.346 125.501,156.390 127.076 C 157.435 128.651,158.537 130.650,158.840 131.517 C 159.143 132.385,159.706 133.373,160.091 133.713 C 160.475 134.053,161.385 135.499,162.113 136.926 C 162.841 138.353,163.905 140.240,164.479 141.118 C 165.053 141.996,165.852 143.433,166.256 144.311 C 166.659 145.190,167.366 146.447,167.827 147.106 C 168.288 147.764,168.891 148.663,169.168 149.102 C 169.446 149.541,170.028 150.439,170.463 151.098 C 170.898 151.756,171.255 152.668,171.256 153.124 C 171.257 153.580,171.692 154.361,172.222 154.859 C 172.753 155.358,174.008 157.431,175.012 159.467 C 176.016 161.502,177.127 163.409,177.482 163.704 C 177.838 163.998,178.548 165.189,179.061 166.348 C 179.574 167.508,180.615 169.402,181.376 170.556 C 182.136 171.710,183.053 173.371,183.414 174.246 C 183.775 175.121,184.405 176.199,184.814 176.641 C 185.224 177.083,186.309 178.882,187.227 180.639 C 188.145 182.395,189.126 184.102,189.407 184.431 C 190.234 185.401,192.415 189.530,192.415 190.126 C 192.415 190.428,193.003 191.381,193.721 192.244 C 194.439 193.106,195.874 195.544,196.910 197.660 C 198.831 201.585,199.865 202.624,200.599 201.366 C 200.818 200.990,201.581 199.794,202.293 198.708 C 203.005 197.623,203.936 195.945,204.363 194.981 C 204.790 194.016,205.580 192.640,206.119 191.923 C 206.658 191.206,207.732 189.361,208.507 187.824 C 209.282 186.287,210.379 184.411,210.946 183.655 C 211.512 182.899,211.976 182.040,211.976 181.747 C 211.976 181.454,212.963 179.774,214.169 178.013 C 215.375 176.251,216.482 174.333,216.628 173.750 C 216.775 173.167,217.741 171.424,218.777 169.878 C 219.812 168.331,220.771 166.586,220.908 165.999 C 221.045 165.412,221.585 164.424,222.107 163.803 C 223.274 162.416,225.549 158.600,225.549 158.030 C 225.549 157.800,226.267 156.588,227.146 155.336 C 228.024 154.084,228.743 152.825,228.743 152.539 C 228.743 151.976,230.312 149.585,230.824 149.368 C 230.997 149.295,231.138 148.935,231.139 148.570 C 231.139 148.204,231.678 147.275,232.335 146.507 C 232.993 145.739,233.532 144.840,233.533 144.511 C 233.535 144.182,233.939 143.294,234.433 142.539 C 236.407 139.516,237.153 138.296,237.377 137.725 C 238.108 135.853,238.793 134.535,239.149 134.315 C 239.761 133.936,241.517 131.031,241.517 130.396 C 241.517 129.786,243.912 125.654,244.896 124.567 C 245.233 124.194,245.509 123.706,245.509 123.483 C 245.509 122.899,246.689 120.617,247.132 120.343 C 247.338 120.216,247.865 119.325,248.303 118.363 C 248.741 117.402,249.268 116.511,249.475 116.384 C 249.912 116.113,251.098 113.831,251.098 113.259 C 251.098 113.044,251.421 112.578,251.817 112.222 C 252.212 111.867,252.843 110.948,253.218 110.180 C 254.177 108.215,255.977 105.150,256.687 104.273 C 257.752 102.956,258.283 101.828,258.283 100.884 C 258.283 100.376,258.434 99.789,258.619 99.581 C 258.803 99.372,259.198 98.573,259.497 97.804 C 259.796 97.036,260.525 95.578,261.116 94.565 C 261.707 93.552,262.286 91.845,262.401 90.773 C 262.517 89.700,262.817 87.924,263.068 86.826 C 264.434 80.860,264.871 69.043,263.931 63.473 C 263.690 62.046,263.380 60.070,263.242 59.082 C 263.105 58.094,262.831 57.115,262.634 56.906 C 262.437 56.698,262.275 55.590,262.275 54.444 C 262.275 53.299,262.141 52.302,261.976 52.229 C 261.505 52.020,259.070 46.982,259.076 46.231 C 259.079 45.860,258.902 45.445,258.683 45.309 C 258.463 45.174,258.283 44.742,258.283 44.349 C 258.283 43.367,257.257 41.396,256.289 40.520 C 255.847 40.120,255.028 38.858,254.468 37.714 C 253.909 36.570,253.141 35.296,252.762 34.883 C 252.384 34.470,251.648 33.503,251.128 32.735 C 250.608 31.966,249.131 30.335,247.846 29.109 C 246.560 27.883,245.503 26.716,245.497 26.514 C 245.490 26.313,244.726 25.576,243.800 24.876 C 242.874 24.177,241.218 22.766,240.120 21.740 C 239.022 20.715,237.405 19.510,236.527 19.062 C 235.649 18.615,234.224 17.646,233.361 16.909 C 232.498 16.172,231.506 15.569,231.155 15.569 C 230.805 15.569,228.958 14.779,227.052 13.815 C 223.765 12.151,222.502 11.700,216.367 9.995 C 207.982 7.666,200.531 7.101,192.415 8.182 M209.780 32.695 C 212.199 33.450,213.635 34.024,217.477 35.769 C 218.636 36.296,219.761 36.727,219.978 36.727 C 220.194 36.727,221.401 37.533,222.660 38.520 C 223.920 39.506,225.651 40.860,226.508 41.528 C 228.493 43.077,233.469 48.591,234.064 49.900 C 234.313 50.449,235.154 51.897,235.932 53.118 C 236.710 54.339,237.586 56.135,237.879 57.110 C 238.171 58.085,238.736 59.870,239.133 61.078 C 241.362 67.847,241.636 76.528,239.800 82.236 C 239.482 83.224,238.808 85.379,238.302 87.026 C 237.138 90.815,233.560 96.879,230.838 99.677 C 229.686 100.862,228.743 101.973,228.743 102.145 C 228.743 102.673,221.168 108.222,219.826 108.676 C 219.131 108.912,218.098 109.428,217.529 109.823 C 216.059 110.845,212.579 112.059,209.780 112.525 C 208.463 112.744,206.125 113.135,204.584 113.394 C 193.865 115.197,179.808 110.631,171.948 102.794 C 168.255 99.112,166.467 97.184,166.467 96.883 C 166.467 96.707,165.607 95.259,164.557 93.665 C 163.506 92.071,162.420 89.970,162.143 88.996 C 161.866 88.022,161.477 86.866,161.278 86.427 C 158.043 79.291,157.869 68.561,160.856 60.479 C 161.262 59.381,161.893 57.468,162.259 56.227 C 162.624 54.986,163.227 53.696,163.599 53.360 C 163.970 53.024,164.804 51.736,165.451 50.498 C 166.957 47.622,172.262 41.941,175.410 39.837 C 176.749 38.942,178.204 37.898,178.643 37.517 C 179.082 37.136,180.160 36.600,181.038 36.324 C 181.916 36.049,182.840 35.662,183.090 35.464 C 183.649 35.022,188.117 33.206,190.020 32.647 C 194.297 31.390,205.689 31.418,209.780 32.695 " stroke="none" fill="#e34b3b" fill-rule="evenodd"></path><path id="path1" d="M194.212 31.923 C 190.581 32.330,184.678 34.209,183.090 35.464 C 182.840 35.662,181.916 36.049,181.038 36.324 C 180.160 36.600,179.082 37.136,178.643 37.517 C 178.204 37.898,176.749 38.942,175.410 39.837 C 172.262 41.941,166.957 47.622,165.451 50.498 C 164.804 51.736,163.970 53.024,163.599 53.360 C 163.227 53.696,162.624 54.986,162.259 56.227 C 161.893 57.468,161.262 59.381,160.856 60.479 C 157.869 68.561,158.043 79.291,161.278 86.427 C 161.477 86.866,161.866 88.022,162.143 88.996 C 162.420 89.970,163.506 92.071,164.557 93.665 C 165.607 95.259,166.467 96.707,166.467 96.883 C 166.467 97.184,168.255 99.112,171.948 102.794 C 179.808 110.631,193.865 115.197,204.584 113.394 C 206.125 113.135,208.463 112.744,209.780 112.525 C 212.579 112.059,216.059 110.845,217.529 109.823 C 218.098 109.428,219.131 108.912,219.826 108.676 C 221.168 108.222,228.743 102.673,228.743 102.145 C 228.743 101.973,229.686 100.862,230.838 99.677 C 233.560 96.879,237.138 90.815,238.302 87.026 C 238.808 85.379,239.482 83.224,239.800 82.236 C 241.636 76.528,241.362 67.847,239.133 61.078 C 238.736 59.870,238.171 58.085,237.879 57.110 C 237.586 56.135,236.710 54.339,235.932 53.118 C 235.154 51.897,234.313 50.449,234.064 49.900 C 233.469 48.591,228.493 43.077,226.508 41.528 C 225.651 40.860,223.920 39.506,222.660 38.520 C 221.401 37.533,220.194 36.727,219.978 36.727 C 219.761 36.727,218.636 36.296,217.477 35.769 C 210.169 32.449,208.369 31.980,202.196 31.779 C 199.341 31.686,195.749 31.751,194.212 31.923 M205.812 48.612 C 208.777 49.084,211.485 50.244,212.883 51.642 C 213.462 52.221,214.201 52.695,214.524 52.695 C 215.081 52.695,216.053 53.563,219.067 56.755 C 220.539 58.314,222.732 62.384,223.546 65.070 C 223.846 66.058,224.239 67.037,224.421 67.246 C 224.602 67.454,224.750 69.978,224.750 72.854 C 224.750 75.731,224.602 78.254,224.421 78.463 C 224.239 78.672,223.847 79.651,223.548 80.639 C 223.249 81.627,222.679 82.912,222.281 83.495 C 221.883 84.078,221.557 84.827,221.557 85.159 C 221.557 85.492,220.690 86.722,219.630 87.892 C 218.571 89.062,217.592 90.325,217.455 90.698 C 217.319 91.070,216.614 91.679,215.889 92.050 C 215.164 92.421,213.928 93.229,213.143 93.846 C 209.064 97.050,199.321 98.570,193.812 96.862 C 192.495 96.453,190.864 95.956,190.188 95.756 C 186.676 94.717,178.443 87.409,178.443 85.329 C 178.443 84.903,178.122 84.078,177.730 83.495 C 177.035 82.462,176.592 81.553,175.722 79.373 C 174.894 77.302,175.170 67.237,176.112 65.133 C 178.906 58.892,179.658 57.566,180.979 56.559 C 181.750 55.971,182.496 55.127,182.637 54.684 C 182.777 54.241,183.643 53.498,184.560 53.033 C 185.477 52.568,186.791 51.696,187.481 51.095 C 188.915 49.845,192.784 48.497,194.015 48.819 C 194.472 48.939,195.332 48.776,195.926 48.458 C 197.097 47.831,201.306 47.896,205.812 48.612 " stroke="none" fill="#c43c2c" fill-rule="evenodd"></path><path id="path2" d="M189.421 6.387 C 189.285 6.607,188.387 6.786,187.425 6.786 C 186.463 6.786,185.565 6.966,185.429 7.186 C 185.293 7.405,184.575 7.585,183.832 7.585 C 183.090 7.585,182.371 7.764,182.236 7.984 C 182.100 8.204,181.638 8.383,181.209 8.383 C 180.779 8.383,180.071 8.563,179.635 8.782 C 179.199 9.002,178.485 9.361,178.049 9.581 C 177.613 9.800,176.715 9.980,176.053 9.980 C 175.392 9.980,174.850 10.160,174.850 10.379 C 174.850 10.599,174.491 10.778,174.052 10.778 C 173.613 10.778,173.253 10.958,173.253 11.178 C 173.253 11.397,172.894 11.577,172.455 11.577 C 172.016 11.577,171.657 11.756,171.657 11.976 C 171.657 12.196,171.297 12.375,170.858 12.375 C 170.419 12.375,170.060 12.555,170.060 12.774 C 170.060 12.994,169.701 13.174,169.261 13.174 C 168.822 13.174,168.463 13.353,168.463 13.573 C 168.463 13.792,168.041 13.972,167.524 13.972 C 167.008 13.972,166.022 14.511,165.332 15.170 C 164.643 15.828,163.848 16.367,163.565 16.367 C 163.282 16.367,162.792 16.727,162.475 17.166 C 162.159 17.605,161.580 17.964,161.189 17.964 C 160.799 17.964,160.479 18.100,160.479 18.266 C 160.479 18.432,159.969 18.793,159.346 19.069 C 158.723 19.345,157.960 20.062,157.650 20.663 C 156.858 22.198,156.261 22.754,155.407 22.754 C 154.727 22.754,153.293 24.018,153.293 24.617 C 153.293 25.015,150.115 27.944,149.684 27.944 C 149.473 27.944,149.301 28.214,149.301 28.543 C 149.301 28.872,149.122 29.142,148.902 29.142 C 148.683 29.142,148.503 29.372,148.503 29.652 C 148.503 29.933,148.144 30.422,147.705 30.739 C 147.265 31.055,146.906 31.544,146.906 31.825 C 146.906 32.106,146.757 32.335,146.574 32.335 C 146.392 32.335,145.988 32.829,145.676 33.433 C 145.365 34.037,144.795 34.879,144.411 35.305 C 144.027 35.730,143.713 36.314,143.713 36.602 C 143.713 36.890,143.563 37.126,143.381 37.126 C 143.198 37.126,142.794 37.620,142.483 38.224 C 142.171 38.827,141.602 39.670,141.218 40.095 C 140.833 40.521,140.519 41.382,140.519 42.008 C 140.519 42.635,140.160 43.533,139.721 44.004 C 139.281 44.475,138.922 45.097,138.922 45.385 C 138.922 45.673,138.743 45.908,138.523 45.908 C 138.303 45.908,138.124 46.357,138.124 46.906 C 138.124 47.455,137.989 47.906,137.824 47.907 C 137.254 47.913,136.527 50.067,136.527 51.753 C 136.527 52.684,136.347 53.557,136.128 53.693 C 135.908 53.828,135.729 54.557,135.729 55.313 C 135.729 56.068,135.549 56.687,135.329 56.687 C 135.110 56.687,134.930 57.495,134.930 58.483 C 134.930 59.471,134.750 60.279,134.531 60.279 C 134.311 60.279,134.132 60.898,134.132 61.653 C 134.132 62.409,133.952 63.138,133.733 63.273 C 133.513 63.409,133.333 65.037,133.333 66.890 C 133.333 68.870,133.169 70.259,132.934 70.259 C 132.709 70.259,132.535 71.383,132.535 72.831 C 132.535 74.245,132.715 75.513,132.934 75.649 C 133.154 75.784,133.333 77.222,133.333 78.842 C 133.333 80.463,133.513 81.900,133.733 82.036 C 133.952 82.172,134.132 82.711,134.132 83.234 C 134.132 84.473,134.917 84.961,134.972 83.756 C 135.055 81.963,134.858 80.434,134.497 80.060 C 133.969 79.512,134.027 66.132,134.560 65.599 C 134.796 65.363,135.013 64.160,135.042 62.925 C 135.071 61.689,135.213 60.679,135.357 60.679 C 135.633 60.679,136.715 56.430,137.137 53.693 C 137.272 52.814,137.527 51.737,137.703 51.297 C 138.190 50.082,139.724 46.692,140.566 44.972 C 140.979 44.128,141.317 43.220,141.317 42.955 C 141.317 42.690,141.837 41.764,142.471 40.897 C 143.106 40.030,144.121 38.423,144.727 37.325 C 145.334 36.228,145.946 35.240,146.088 35.130 C 146.230 35.020,146.781 34.301,147.314 33.533 C 147.846 32.764,148.466 31.881,148.692 31.570 C 148.917 31.259,150.269 29.818,151.697 28.369 C 153.124 26.919,154.556 25.332,154.879 24.843 C 155.201 24.353,155.685 23.952,155.953 23.952 C 156.221 23.952,157.230 23.189,158.195 22.255 C 160.564 19.965,162.578 18.379,163.130 18.371 C 163.381 18.367,164.455 17.645,165.518 16.766 C 166.581 15.888,167.743 15.170,168.101 15.170 C 168.778 15.170,174.764 12.217,175.429 11.555 C 175.638 11.347,176.391 11.178,177.102 11.178 C 177.814 11.178,178.507 10.998,178.643 10.778 C 178.778 10.559,179.283 10.377,179.764 10.373 C 180.245 10.370,181.447 10.075,182.435 9.718 C 184.247 9.063,186.096 8.639,189.898 8.005 C 191.038 7.815,192.157 7.545,192.384 7.404 C 192.612 7.264,195.686 7.140,199.217 7.129 C 205.054 7.110,208.470 7.438,212.375 8.391 C 213.144 8.579,214.671 8.949,215.768 9.215 C 216.866 9.481,217.935 9.852,218.144 10.039 C 218.352 10.226,219.105 10.379,219.817 10.379 C 220.528 10.379,221.222 10.559,221.357 10.778 C 221.493 10.998,222.123 11.178,222.758 11.178 C 223.393 11.178,224.711 11.717,225.687 12.375 C 226.663 13.034,227.655 13.573,227.893 13.573 C 228.130 13.573,228.912 13.931,229.631 14.370 C 230.350 14.808,231.262 15.167,231.658 15.168 C 232.055 15.169,232.946 15.700,233.640 16.348 C 234.333 16.997,235.667 17.921,236.603 18.402 C 237.539 18.884,238.606 19.611,238.975 20.018 C 239.343 20.425,239.817 20.758,240.028 20.758 C 240.238 20.758,241.040 21.477,241.810 22.355 C 242.580 23.234,243.446 23.952,243.734 23.952 C 244.022 23.952,244.944 24.801,245.782 25.839 C 246.620 26.877,247.816 28.164,248.440 28.700 C 249.063 29.235,250.644 31.125,251.952 32.900 C 253.259 34.675,254.590 36.444,254.909 36.831 C 255.228 37.218,255.489 37.763,255.489 38.044 C 255.489 38.324,256.021 39.175,256.670 39.935 C 257.320 40.695,257.859 41.542,257.868 41.816 C 257.877 42.091,258.064 42.315,258.283 42.315 C 258.503 42.315,258.683 42.651,258.683 43.061 C 258.683 44.016,260.207 47.787,261.150 49.163 C 261.550 49.746,261.876 50.474,261.876 50.780 C 261.876 51.087,262.038 51.508,262.237 51.717 C 262.435 51.925,262.691 52.904,262.807 53.892 C 262.922 54.880,263.187 56.497,263.396 57.485 C 265.452 67.199,265.823 75.634,264.493 82.435 C 263.151 89.294,263.020 90.030,262.809 91.916 C 262.693 92.959,262.435 93.812,262.237 93.812 C 262.039 93.812,261.876 94.150,261.876 94.562 C 261.876 94.974,261.607 95.535,261.277 95.808 C 260.948 96.082,260.679 96.464,260.679 96.658 C 260.679 96.851,260.230 97.941,259.681 99.079 C 259.132 100.216,258.682 101.518,258.682 101.971 C 258.681 102.424,258.163 103.400,257.531 104.139 C 256.899 104.879,255.703 106.765,254.874 108.331 C 254.044 109.897,252.945 111.734,252.431 112.413 C 251.917 113.092,251.497 113.946,251.497 114.309 C 251.497 114.673,251.317 114.970,251.098 114.970 C 250.878 114.970,250.699 115.227,250.699 115.540 C 250.699 115.854,250.465 116.348,250.179 116.638 C 249.542 117.285,247.946 119.973,246.328 123.120 C 245.661 124.418,244.869 125.765,244.569 126.114 C 243.530 127.319,241.916 130.413,241.916 131.201 C 241.916 131.636,241.315 132.698,240.580 133.561 C 239.845 134.424,238.573 136.477,237.753 138.124 C 236.932 139.770,235.917 141.489,235.496 141.942 C 235.075 142.395,234.731 143.069,234.731 143.439 C 234.731 143.809,234.551 144.112,234.331 144.112 C 234.112 144.112,233.932 144.446,233.932 144.855 C 233.932 145.264,233.438 146.243,232.834 147.031 C 231.298 149.034,229.721 151.727,229.840 152.145 C 229.895 152.337,229.760 152.495,229.541 152.495 C 229.321 152.495,229.142 152.730,229.142 153.016 C 229.142 153.303,228.676 154.156,228.106 154.912 C 227.536 155.669,226.363 157.719,225.498 159.469 C 224.634 161.219,223.597 163.015,223.195 163.461 C 222.793 163.907,221.709 165.798,220.787 167.663 C 219.864 169.529,218.878 171.185,218.596 171.343 C 218.314 171.501,217.756 172.489,217.356 173.540 C 216.957 174.590,215.961 176.437,215.143 177.645 C 214.325 178.852,213.077 180.918,212.370 182.236 C 211.663 183.553,210.766 185.080,210.377 185.629 C 209.988 186.178,209.137 187.727,208.486 189.072 C 207.835 190.416,206.849 192.123,206.294 192.864 C 205.740 193.605,204.912 195.020,204.456 196.008 C 203.999 196.996,203.075 198.703,202.403 199.800 C 201.730 200.898,201.074 202.021,200.946 202.295 C 200.142 204.016,198.595 202.428,195.950 197.166 C 195.023 195.321,193.976 193.543,193.622 193.214 C 193.269 192.884,192.391 191.366,191.670 189.841 C 190.950 188.315,189.992 186.549,189.542 185.917 C 189.092 185.285,188.200 183.749,187.560 182.504 C 186.067 179.599,184.783 177.498,183.919 176.543 C 183.542 176.126,183.234 175.603,183.234 175.379 C 183.234 174.776,182.024 172.424,181.011 171.058 C 180.522 170.399,179.518 168.692,178.779 167.263 C 178.040 165.835,176.943 164.021,176.342 163.233 C 175.741 162.446,175.250 161.590,175.250 161.332 C 175.250 161.075,174.501 159.654,173.587 158.176 C 171.515 154.829,170.459 152.849,170.459 152.311 C 170.458 152.083,170.009 151.374,169.461 150.736 C 168.912 150.098,168.463 149.438,168.463 149.270 C 168.463 149.101,168.045 148.456,167.534 147.835 C 167.023 147.214,166.290 145.898,165.904 144.910 C 165.518 143.922,164.745 142.511,164.185 141.774 C 163.626 141.037,162.584 139.234,161.871 137.769 C 161.158 136.303,160.130 134.571,159.586 133.919 C 159.043 133.268,158.383 132.073,158.120 131.265 C 157.856 130.456,157.157 129.185,156.565 128.440 C 155.478 127.072,154.605 125.508,153.503 122.954 C 153.171 122.186,152.110 120.451,151.144 119.100 C 150.178 117.748,149.179 116.009,148.924 115.235 C 148.668 114.461,147.913 113.141,147.246 112.303 C 146.579 111.464,145.721 110.150,145.339 109.381 C 144.258 107.204,142.889 104.885,142.067 103.840 C 141.655 103.315,141.317 102.551,141.317 102.142 C 141.317 101.732,141.138 101.397,140.918 101.397 C 140.699 101.397,140.519 101.110,140.519 100.758 C 140.519 100.407,139.800 98.607,138.922 96.759 C 138.044 94.910,137.325 92.982,137.325 92.474 C 137.325 91.966,137.196 91.421,137.038 91.263 C 136.880 91.105,136.726 90.402,136.694 89.700 C 136.540 86.220,134.930 83.416,134.930 86.627 C 134.930 87.505,135.110 88.224,135.329 88.224 C 135.549 88.224,135.729 88.932,135.729 89.797 C 135.729 90.662,135.908 91.481,136.128 91.617 C 136.347 91.752,136.527 92.661,136.527 93.636 C 136.527 94.611,136.707 95.409,136.926 95.409 C 137.146 95.409,137.325 95.848,137.325 96.384 C 137.325 96.920,137.505 97.469,137.725 97.605 C 137.944 97.740,138.124 98.134,138.124 98.480 C 138.124 98.825,138.438 99.400,138.822 99.758 C 139.770 100.639,140.519 102.031,140.519 102.909 C 140.519 103.805,141.410 105.781,141.816 105.785 C 141.981 105.787,142.116 106.058,142.116 106.387 C 142.116 106.717,142.295 106.986,142.515 106.986 C 142.735 106.986,142.914 107.233,142.914 107.536 C 142.914 107.838,143.180 108.306,143.504 108.575 C 143.828 108.844,144.586 110.079,145.187 111.319 C 145.788 112.558,146.522 113.821,146.817 114.124 C 147.112 114.428,147.654 115.371,148.022 116.220 C 148.390 117.069,148.829 117.764,148.996 117.764 C 149.164 117.764,149.301 118.124,149.301 118.563 C 149.301 119.002,149.481 119.361,149.701 119.361 C 149.920 119.361,150.100 119.681,150.100 120.072 C 150.100 120.462,150.459 121.041,150.898 121.357 C 151.337 121.674,151.697 122.163,151.697 122.443 C 151.697 122.724,151.876 122.954,152.096 122.954 C 152.315 122.954,152.495 123.403,152.495 123.952 C 152.495 124.501,152.675 124.950,152.894 124.950 C 153.114 124.950,153.293 125.220,153.293 125.549 C 153.293 125.878,153.473 126.148,153.693 126.148 C 153.912 126.148,154.092 126.507,154.092 126.946 C 154.092 127.385,154.271 127.745,154.491 127.745 C 154.711 127.745,154.891 127.969,154.891 128.244 C 154.892 128.518,155.430 129.371,156.088 130.140 C 156.745 130.908,157.284 131.997,157.284 132.559 C 157.285 133.122,157.645 133.968,158.084 134.439 C 158.523 134.910,158.883 135.438,158.883 135.612 C 158.884 135.786,159.422 136.557,160.080 137.325 C 160.737 138.094,161.276 138.942,161.277 139.209 C 161.277 139.712,162.772 142.561,163.220 142.914 C 163.635 143.241,165.269 146.544,165.269 147.055 C 165.269 147.316,165.629 147.787,166.068 148.104 C 166.507 148.420,166.866 148.999,166.866 149.390 C 166.866 149.780,167.046 150.100,167.265 150.100 C 167.485 150.100,167.665 150.335,167.665 150.623 C 167.665 150.911,168.024 151.533,168.463 152.004 C 168.902 152.475,169.261 153.138,169.261 153.476 C 169.261 153.815,169.441 154.092,169.661 154.092 C 169.880 154.092,170.060 154.369,170.060 154.707 C 170.060 155.046,170.419 155.708,170.858 156.180 C 171.297 156.651,171.657 157.272,171.657 157.560 C 171.657 157.848,171.836 158.084,172.056 158.084 C 172.275 158.084,172.455 158.361,172.455 158.699 C 172.455 159.038,172.814 159.700,173.253 160.172 C 173.693 160.643,174.052 161.357,174.052 161.757 C 174.052 162.656,174.712 163.789,176.148 165.354 C 176.751 166.013,177.246 166.802,177.246 167.108 C 177.246 167.414,177.425 167.665,177.645 167.665 C 177.864 167.665,178.044 168.018,178.044 168.451 C 178.044 169.236,179.460 172.078,180.040 172.455 C 180.512 172.763,182.036 175.609,182.036 176.184 C 182.036 176.466,182.395 177.081,182.834 177.553 C 183.273 178.024,183.633 178.595,183.633 178.821 C 183.633 179.206,184.377 180.240,185.529 181.453 C 185.803 181.742,186.028 182.154,186.028 182.369 C 186.028 182.998,187.742 186.028,188.098 186.028 C 188.277 186.028,188.423 186.387,188.423 186.826 C 188.423 187.265,188.603 187.625,188.822 187.625 C 189.042 187.625,189.222 187.944,189.222 188.335 C 189.222 188.726,189.581 189.304,190.020 189.621 C 190.459 189.937,190.818 190.623,190.818 191.146 C 190.818 191.686,191.335 192.577,192.016 193.214 C 192.675 193.829,193.214 194.620,193.214 194.971 C 193.214 195.322,193.393 195.609,193.613 195.609 C 193.832 195.609,194.012 195.968,194.012 196.407 C 194.012 196.846,194.192 197.206,194.411 197.206 C 194.631 197.206,194.810 197.565,194.810 198.004 C 194.810 198.443,194.990 198.802,195.210 198.802 C 195.429 198.802,195.609 199.230,195.609 199.752 C 195.609 200.320,196.251 201.364,197.206 202.348 C 198.084 203.253,198.802 204.262,198.802 204.591 C 198.802 204.990,199.202 205.190,200.000 205.190 C 200.931 205.190,201.198 205.012,201.198 204.391 C 201.198 203.952,201.377 203.593,201.597 203.593 C 201.816 203.593,201.996 203.357,201.996 203.069 C 201.996 202.781,202.355 202.160,202.794 201.689 C 203.234 201.217,203.593 200.555,203.593 200.216 C 203.593 199.878,203.772 199.601,203.992 199.601 C 204.212 199.601,204.391 199.242,204.391 198.802 C 204.391 198.363,204.543 198.004,204.728 198.004 C 204.913 198.004,205.493 197.151,206.018 196.108 C 206.543 195.065,207.290 193.921,207.678 193.566 C 208.066 193.211,208.383 192.734,208.383 192.506 C 208.383 191.950,210.101 188.658,210.479 188.490 C 210.644 188.417,210.778 188.179,210.778 187.963 C 210.778 187.746,211.317 186.786,211.976 185.828 C 212.635 184.871,213.174 183.743,213.174 183.321 C 213.174 182.899,213.713 181.990,214.371 181.300 C 215.030 180.611,215.569 179.776,215.569 179.445 C 215.569 179.113,215.715 178.842,215.894 178.842 C 216.359 178.842,217.964 175.718,217.964 174.813 C 217.964 174.394,218.144 174.052,218.363 174.052 C 218.583 174.052,218.762 173.765,218.762 173.414 C 218.762 173.063,219.301 172.272,219.960 171.657 C 220.619 171.041,221.158 170.251,221.158 169.900 C 221.158 169.549,221.337 169.261,221.557 169.261 C 221.776 169.261,221.956 168.902,221.956 168.463 C 221.956 168.024,222.136 167.665,222.355 167.665 C 222.575 167.665,222.754 167.305,222.754 166.866 C 222.754 166.427,222.934 166.068,223.154 166.068 C 223.373 166.068,223.553 165.775,223.553 165.416 C 223.553 165.058,223.867 164.472,224.251 164.114 C 225.130 163.298,225.948 161.859,225.948 161.132 C 225.948 160.827,226.221 160.350,226.554 160.074 C 226.888 159.797,227.466 158.922,227.839 158.129 C 228.212 157.336,228.837 156.338,229.228 155.913 C 229.620 155.487,229.940 154.634,229.940 154.017 C 229.940 153.399,230.120 152.894,230.339 152.894 C 230.559 152.894,230.739 152.713,230.739 152.491 C 230.739 152.270,231.277 151.525,231.936 150.835 C 232.595 150.146,233.134 149.422,233.134 149.225 C 233.134 149.029,233.493 148.483,233.932 148.012 C 234.371 147.540,234.731 146.650,234.731 146.033 C 234.731 145.415,234.910 144.910,235.130 144.910 C 235.349 144.910,235.529 144.629,235.529 144.286 C 235.529 143.942,236.068 143.208,236.727 142.653 C 237.385 142.099,237.924 141.302,237.924 140.883 C 237.924 140.463,238.104 140.120,238.323 140.120 C 238.543 140.120,238.723 139.671,238.723 139.122 C 238.723 138.573,238.902 138.124,239.122 138.124 C 239.341 138.124,239.521 137.764,239.521 137.325 C 239.521 136.886,239.701 136.527,239.920 136.527 C 240.140 136.527,240.319 136.272,240.319 135.961 C 240.319 135.650,240.461 135.336,240.633 135.263 C 241.205 135.021,242.715 132.623,242.715 131.958 C 242.715 131.598,243.074 130.918,243.513 130.447 C 243.952 129.976,244.311 129.354,244.311 129.066 C 244.311 128.779,244.491 128.543,244.711 128.543 C 244.930 128.543,245.110 128.266,245.110 127.927 C 245.110 127.589,245.469 126.926,245.908 126.455 C 246.347 125.984,246.707 125.273,246.707 124.875 C 246.707 124.477,246.886 124.152,247.106 124.152 C 247.325 124.152,247.505 123.858,247.505 123.500 C 247.505 123.141,247.821 122.558,248.206 122.203 C 248.592 121.847,249.161 121.063,249.471 120.459 C 249.781 119.855,250.184 119.361,250.367 119.361 C 250.549 119.361,250.699 118.912,250.699 118.363 C 250.699 117.814,250.878 117.365,251.098 117.365 C 251.317 117.365,251.497 117.096,251.497 116.766 C 251.497 116.437,251.677 116.168,251.896 116.168 C 252.116 116.168,252.295 115.808,252.295 115.369 C 252.295 114.930,252.475 114.571,252.695 114.571 C 252.914 114.571,253.094 114.335,253.094 114.047 C 253.094 113.759,253.453 113.138,253.892 112.667 C 254.331 112.195,254.691 111.533,254.691 111.194 C 254.691 110.856,254.870 110.579,255.090 110.579 C 255.309 110.579,255.489 110.220,255.489 109.780 C 255.489 109.341,255.669 108.982,255.888 108.982 C 256.108 108.982,256.287 108.623,256.287 108.184 C 256.287 107.745,256.425 107.385,256.592 107.385 C 256.760 107.385,257.341 106.667,257.884 105.788 C 258.427 104.910,259.008 104.192,259.176 104.192 C 259.344 104.192,259.485 103.608,259.490 102.894 C 259.495 102.181,259.850 101.148,260.279 100.599 C 260.709 100.050,261.064 99.297,261.069 98.926 C 261.074 98.554,261.257 98.140,261.477 98.004 C 261.697 97.868,261.876 97.409,261.876 96.982 C 261.876 96.556,262.056 96.208,262.275 96.208 C 262.495 96.208,262.675 95.848,262.675 95.409 C 262.675 94.970,262.854 94.611,263.074 94.611 C 263.293 94.611,263.473 93.892,263.473 93.014 C 263.473 92.136,263.653 91.417,263.872 91.417 C 264.092 91.417,264.271 90.709,264.271 89.844 C 264.271 88.979,264.451 88.160,264.671 88.024 C 264.890 87.888,265.070 86.979,265.070 86.004 C 265.070 85.029,265.250 84.232,265.469 84.232 C 265.694 84.232,265.868 83.108,265.868 81.660 C 265.868 80.246,266.048 78.978,266.267 78.842 C 266.505 78.696,266.667 76.185,266.667 72.655 C 266.667 69.125,266.505 66.614,266.267 66.467 C 266.048 66.331,265.868 65.074,265.868 63.673 C 265.868 62.271,265.689 61.014,265.469 60.878 C 265.250 60.743,265.070 59.834,265.070 58.859 C 265.070 57.884,264.890 57.086,264.671 57.086 C 264.451 57.086,264.271 56.468,264.271 55.712 C 264.271 54.957,264.092 54.228,263.872 54.092 C 263.653 53.956,263.473 53.314,263.473 52.666 C 263.473 52.017,263.316 51.174,263.124 50.793 C 261.563 47.694,261.078 46.528,261.078 45.870 C 261.078 45.452,260.898 45.110,260.679 45.110 C 260.459 45.110,260.279 44.750,260.279 44.311 C 260.279 43.872,260.100 43.513,259.880 43.513 C 259.661 43.513,259.481 42.974,259.481 42.315 C 259.481 41.657,259.301 41.118,259.082 41.118 C 258.862 41.118,258.683 40.850,258.683 40.522 C 258.683 40.195,258.144 39.412,257.485 38.783 C 256.826 38.153,256.287 37.343,256.287 36.983 C 256.287 36.622,256.108 36.327,255.888 36.327 C 255.669 36.327,255.489 35.968,255.489 35.529 C 255.489 35.090,255.309 34.731,255.090 34.731 C 254.870 34.731,254.691 34.483,254.691 34.180 C 254.691 33.877,253.972 32.889,253.094 31.984 C 252.216 31.079,251.497 30.177,251.497 29.980 C 251.497 29.496,248.723 26.747,248.235 26.747 C 247.707 26.747,246.707 25.709,246.707 25.160 C 246.707 24.598,244.887 22.754,244.332 22.754 C 244.104 22.754,242.823 21.677,241.485 20.359 C 240.147 19.042,238.798 17.964,238.488 17.964 C 238.178 17.964,237.924 17.784,237.924 17.565 C 237.924 17.345,237.693 17.166,237.410 17.166 C 237.127 17.166,236.274 16.634,235.514 15.984 C 234.754 15.335,233.907 14.796,233.633 14.787 C 233.358 14.778,233.134 14.591,233.134 14.371 C 233.134 14.152,232.719 13.972,232.211 13.972 C 231.704 13.972,230.903 13.613,230.431 13.174 C 229.960 12.735,229.297 12.375,228.959 12.375 C 228.620 12.375,228.343 12.196,228.343 11.976 C 228.343 11.756,228.079 11.577,227.757 11.577 C 227.434 11.577,226.530 11.218,225.749 10.778 C 224.967 10.339,223.794 9.980,223.142 9.980 C 222.490 9.980,221.956 9.800,221.956 9.581 C 221.956 9.361,221.642 9.179,221.257 9.176 C 220.441 9.169,217.704 8.256,217.306 7.858 C 217.156 7.708,216.344 7.585,215.502 7.585 C 214.661 7.585,213.972 7.405,213.972 7.186 C 213.972 6.966,213.174 6.786,212.199 6.786 C 211.224 6.786,210.315 6.607,210.180 6.387 C 209.844 5.845,189.756 5.845,189.421 6.387 M196.625 48.674 C 196.479 48.909,195.393 49.102,194.212 49.102 C 193.030 49.102,191.952 49.281,191.816 49.501 C 191.681 49.721,191.204 49.900,190.757 49.900 C 189.901 49.900,187.870 51.165,186.780 52.376 C 186.424 52.771,185.751 53.094,185.283 53.094 C 184.814 53.094,184.431 53.273,184.431 53.493 C 184.431 53.713,184.162 53.892,183.832 53.892 C 183.503 53.892,183.234 54.071,183.234 54.289 C 183.234 54.507,182.450 55.481,181.492 56.452 C 179.847 58.121,176.683 63.576,177.111 64.004 C 177.220 64.113,177.010 64.659,176.644 65.217 C 176.278 65.776,176.086 66.405,176.216 66.615 C 176.346 66.825,176.245 67.067,175.991 67.151 C 175.350 67.365,175.264 77.312,175.896 78.177 C 176.150 78.525,176.259 79.067,176.138 79.382 C 176.017 79.698,176.235 80.187,176.622 80.470 C 177.009 80.753,177.208 81.175,177.064 81.408 C 176.920 81.641,177.261 82.433,177.822 83.169 C 178.383 83.905,178.842 84.895,178.842 85.369 C 178.842 85.877,179.662 87.034,180.838 88.186 C 181.936 89.261,182.834 90.261,182.834 90.408 C 182.834 90.813,183.706 91.551,184.930 92.183 C 185.534 92.495,186.028 92.899,186.028 93.081 C 186.028 93.264,186.258 93.413,186.539 93.413 C 186.819 93.413,187.308 93.772,187.625 94.212 C 187.963 94.680,188.658 95.010,189.310 95.010 C 189.920 95.010,190.419 95.190,190.419 95.409 C 190.419 95.629,191.138 95.808,192.016 95.808 C 192.894 95.808,193.613 95.988,193.613 96.208 C 193.613 96.427,194.331 96.607,195.210 96.607 C 196.088 96.607,196.806 96.786,196.806 97.006 C 196.806 97.237,198.071 97.405,199.800 97.405 C 201.530 97.405,202.794 97.237,202.794 97.006 C 202.794 96.786,203.603 96.607,204.591 96.607 C 205.579 96.607,206.387 96.427,206.387 96.208 C 206.387 95.988,207.005 95.808,207.761 95.808 C 208.516 95.808,209.246 95.629,209.381 95.409 C 209.517 95.190,210.022 95.010,210.503 95.009 C 210.984 95.009,211.856 94.605,212.442 94.111 C 213.027 93.618,213.882 92.899,214.342 92.515 C 214.802 92.131,215.341 91.816,215.539 91.816 C 215.737 91.816,216.588 90.984,217.431 89.966 C 218.273 88.948,219.276 87.780,219.661 87.371 C 220.045 86.962,220.359 86.469,220.359 86.276 C 220.359 86.084,220.629 85.702,220.958 85.429 C 221.287 85.156,221.557 84.668,221.557 84.344 C 221.557 84.021,221.884 83.279,222.284 82.696 C 223.486 80.945,224.599 75.969,224.531 72.655 C 224.431 67.823,224.158 66.705,222.009 62.319 C 221.321 60.916,220.758 59.593,220.758 59.379 C 220.758 59.165,220.072 58.337,219.233 57.539 C 218.394 56.741,217.402 55.594,217.028 54.990 C 216.655 54.386,216.084 53.892,215.759 53.892 C 215.435 53.892,215.170 53.713,215.170 53.493 C 215.170 53.273,214.893 53.094,214.554 53.094 C 214.216 53.094,213.542 52.713,213.057 52.247 C 211.676 50.921,209.865 49.903,208.882 49.902 C 208.388 49.901,207.984 49.737,207.984 49.536 C 207.984 48.869,197.019 48.036,196.625 48.674 M207.385 50.299 C 207.521 50.519,207.981 50.699,208.407 50.699 C 208.833 50.699,209.182 50.878,209.182 51.098 C 209.182 51.317,209.501 51.497,209.892 51.497 C 210.283 51.497,210.861 51.856,211.178 52.295 C 211.494 52.735,211.983 53.094,212.264 53.094 C 212.545 53.094,212.774 53.273,212.774 53.493 C 212.774 53.713,213.089 53.892,213.473 53.893 C 214.307 53.893,216.367 55.580,216.367 56.263 C 216.367 56.763,217.325 57.884,217.753 57.884 C 218.705 57.884,220.254 60.678,221.628 64.870 C 221.916 65.749,222.267 66.557,222.409 66.667 C 222.551 66.776,222.770 67.764,222.895 68.862 C 223.020 69.960,223.238 71.622,223.380 72.555 C 223.551 73.682,223.489 74.251,223.196 74.251 C 222.932 74.251,222.754 75.058,222.754 76.253 C 222.754 77.354,222.596 78.566,222.402 78.948 C 222.208 79.329,221.828 80.180,221.557 80.838 C 221.286 81.497,220.906 82.348,220.712 82.729 C 220.518 83.110,220.355 83.829,220.350 84.326 C 220.344 84.910,219.779 85.645,218.753 86.404 C 217.880 87.050,217.166 87.813,217.166 88.101 C 217.166 88.388,216.986 88.623,216.766 88.623 C 216.547 88.623,216.367 88.905,216.367 89.250 C 216.367 89.595,216.098 90.147,215.768 90.476 C 215.439 90.806,215.170 90.962,215.170 90.824 C 215.170 90.489,212.732 91.858,211.976 92.617 C 211.647 92.948,210.838 93.463,210.180 93.762 C 209.521 94.060,208.713 94.435,208.383 94.594 C 205.178 96.140,195.767 96.616,193.393 95.353 C 193.185 95.242,192.206 94.903,191.218 94.598 C 190.230 94.294,189.151 93.769,188.822 93.430 C 187.897 92.481,185.712 91.018,185.219 91.018 C 184.690 91.018,182.036 88.276,182.036 87.729 C 182.036 87.519,181.497 86.843,180.838 86.228 C 180.102 85.540,179.641 84.709,179.641 84.071 C 179.641 83.501,179.461 83.034,179.242 83.034 C 179.022 83.034,178.842 82.798,178.842 82.510 C 178.842 82.222,178.483 81.601,178.044 81.130 C 177.605 80.659,177.246 79.831,177.246 79.291 C 177.246 78.752,177.053 78.246,176.818 78.167 C 175.771 77.819,176.300 68.124,177.492 65.811 C 178.098 64.635,178.655 63.313,178.730 62.874 C 178.804 62.435,179.040 62.016,179.253 61.943 C 179.466 61.870,179.641 61.465,179.641 61.045 C 179.641 60.624,179.820 60.279,180.040 60.279 C 180.259 60.279,180.439 60.007,180.439 59.673 C 180.439 58.884,185.431 53.892,186.220 53.892 C 186.554 53.892,186.826 53.713,186.826 53.493 C 186.826 53.273,187.096 53.094,187.425 53.094 C 187.754 53.094,188.024 52.914,188.024 52.695 C 188.024 52.475,188.293 52.295,188.623 52.295 C 188.952 52.295,189.222 52.116,189.222 51.896 C 189.222 51.677,189.581 51.497,190.020 51.497 C 190.459 51.497,190.818 51.317,190.818 51.098 C 190.818 50.878,191.178 50.699,191.617 50.699 C 192.056 50.699,192.415 50.519,192.415 50.299 C 192.415 50.048,195.135 49.900,199.777 49.900 C 204.254 49.900,207.235 50.057,207.385 50.299 " stroke="none" fill="#ea8f86" fill-rule="evenodd"></path><path id="path3" d="M191.816 7.581 C 191.320 7.792,191.847 7.836,193.214 7.697 C 194.421 7.574,195.484 7.408,195.576 7.329 C 195.919 7.032,192.581 7.256,191.816 7.581 M204.424 7.331 C 204.516 7.411,205.579 7.579,206.786 7.704 C 208.204 7.851,208.628 7.813,207.984 7.598 C 206.995 7.268,204.105 7.051,204.424 7.331 M174.850 12.020 C 174.301 12.473,174.077 12.727,174.352 12.585 C 176.653 11.396,176.972 11.183,176.447 11.189 C 176.118 11.193,175.399 11.566,174.850 12.020 M223.187 11.319 C 223.583 11.655,227.325 13.691,227.135 13.467 C 226.666 12.914,223.886 11.178,223.469 11.178 C 223.222 11.178,223.095 11.241,223.187 11.319 M164.963 17.199 C 164.247 17.839,163.798 18.358,163.966 18.351 C 164.378 18.334,166.598 16.365,166.413 16.180 C 166.333 16.100,165.680 16.558,164.963 17.199 M233.731 16.704 C 234.166 17.218,234.883 17.824,235.325 18.050 C 236.173 18.484,236.049 18.350,234.135 16.760 C 232.982 15.803,232.968 15.801,233.731 16.704 M244.315 24.813 C 244.866 25.327,245.754 26.198,246.289 26.747 C 246.824 27.295,246.628 26.946,245.853 25.970 C 245.078 24.994,244.190 24.124,243.879 24.037 C 243.568 23.949,243.764 24.298,244.315 24.813 M153.328 26.899 L 152.364 28.144 153.506 27.058 C 154.134 26.461,154.568 25.901,154.470 25.813 C 154.372 25.726,153.858 26.214,153.328 26.899 M150.346 29.542 C 149.552 30.421,148.902 31.265,148.902 31.418 C 148.902 31.571,149.037 31.526,149.203 31.317 C 149.368 31.109,150.122 30.264,150.878 29.441 C 151.634 28.618,152.148 27.944,152.021 27.944 C 151.894 27.944,151.140 28.663,150.346 29.542 M249.075 29.741 C 251.431 32.433,251.776 32.752,250.800 31.337 C 250.345 30.679,249.378 29.601,248.651 28.942 C 247.674 28.057,247.785 28.266,249.075 29.741 M253.094 34.930 C 253.774 35.918,254.420 36.727,254.529 36.727 C 254.639 36.727,254.173 35.918,253.493 34.930 C 252.813 33.942,252.167 33.134,252.057 33.134 C 251.948 33.134,252.414 33.942,253.094 34.930 M144.892 37.027 C 144.588 37.630,144.019 38.601,143.627 39.183 C 142.798 40.416,142.646 41.280,143.465 40.109 C 144.446 38.705,145.752 36.237,145.596 36.081 C 145.512 35.998,145.195 36.423,144.892 37.027 M255.489 38.783 C 255.489 38.909,256.028 39.690,256.687 40.519 C 257.345 41.348,257.877 41.867,257.868 41.672 C 257.850 41.281,255.489 38.414,255.489 38.783 M141.662 42.216 C 141.421 42.819,140.886 44.004,140.473 44.848 C 140.059 45.692,139.727 46.590,139.735 46.844 C 139.752 47.363,141.233 44.403,141.952 42.415 C 142.521 40.842,142.276 40.673,141.662 42.216 M259.112 45.509 C 259.110 46.084,260.236 48.370,260.265 47.850 C 260.273 47.711,260.017 46.992,259.696 46.253 C 259.376 45.515,259.112 45.180,259.112 45.509 M198.710 48.194 C 199.427 48.282,200.505 48.281,201.105 48.189 C 201.705 48.098,201.118 48.026,199.800 48.028 C 198.483 48.030,197.992 48.105,198.710 48.194 M260.831 49.188 C 261.186 49.784,261.477 50.525,261.477 50.835 C 261.477 51.145,261.791 51.637,262.176 51.928 C 262.770 52.378,262.800 52.373,262.375 51.897 C 262.101 51.589,261.872 51.059,261.867 50.719 C 261.862 50.378,261.482 49.651,261.022 49.102 L 260.185 48.104 260.831 49.188 M190.619 49.501 C 189.849 49.832,189.852 49.845,190.695 49.872 C 191.176 49.888,191.681 49.721,191.816 49.501 C 192.108 49.029,191.718 49.029,190.619 49.501 M207.984 49.529 C 207.984 49.733,208.355 49.900,208.809 49.900 C 209.802 49.900,211.029 50.502,212.372 51.647 L 213.368 52.495 212.576 51.560 C 211.388 50.155,207.984 48.650,207.984 49.529 M188.224 50.699 C 187.565 51.135,187.206 51.489,187.425 51.485 C 187.825 51.479,189.996 49.923,189.621 49.912 C 189.511 49.908,188.882 50.262,188.224 50.699 M137.544 51.597 C 137.210 52.663,136.867 55.277,137.090 55.057 C 137.373 54.777,138.089 51.098,137.860 51.098 C 137.772 51.098,137.629 51.322,137.544 51.597 M185.852 52.508 C 185.417 52.837,185.298 53.094,185.581 53.094 C 185.858 53.094,186.354 52.824,186.684 52.495 C 187.449 51.730,186.869 51.739,185.852 52.508 M215.170 53.469 C 215.170 53.702,215.429 53.892,215.746 53.892 C 216.063 53.892,216.602 54.291,216.943 54.779 C 217.285 55.267,217.565 55.475,217.565 55.241 C 217.565 54.818,216.631 53.878,215.669 53.331 C 215.394 53.174,215.170 53.237,215.170 53.469 M262.942 56.886 C 263.245 58.860,263.475 59.196,263.467 57.651 C 263.464 57.011,263.289 56.218,263.079 55.888 C 262.819 55.480,262.775 55.799,262.942 56.886 M136.356 57.314 C 136.209 57.899,136.166 58.455,136.260 58.549 C 136.354 58.643,136.551 58.241,136.698 57.656 C 136.845 57.071,136.888 56.515,136.794 56.421 C 136.700 56.327,136.503 56.729,136.356 57.314 M135.760 59.947 C 135.743 60.313,135.522 60.681,135.269 60.765 C 135.017 60.849,134.897 61.178,135.003 61.496 C 135.146 61.924,135.323 61.836,135.688 61.154 C 135.958 60.649,136.092 60.021,135.986 59.758 C 135.875 59.487,135.778 59.568,135.760 59.947 M134.990 64.148 C 134.957 64.849,134.750 65.533,134.531 65.669 C 134.311 65.804,134.132 66.124,134.132 66.380 C 134.132 66.635,134.413 66.443,134.757 65.952 C 135.101 65.461,135.307 64.569,135.216 63.967 C 135.059 62.937,135.046 62.948,134.990 64.148 M176.547 64.494 C 176.272 64.792,176.048 65.263,176.048 65.541 C 176.048 65.819,176.336 65.635,176.687 65.133 C 177.407 64.105,177.311 63.665,176.547 64.494 M175.505 66.544 C 175.364 66.685,175.264 67.174,175.281 67.631 C 175.303 68.218,175.380 68.286,175.540 67.864 C 175.666 67.535,175.940 67.153,176.150 67.016 C 176.393 66.858,176.391 66.679,176.146 66.528 C 175.934 66.397,175.645 66.404,175.505 66.544 M223.986 67.465 C 223.998 67.794,224.163 68.423,224.351 68.862 L 224.694 69.661 224.716 68.862 C 224.728 68.423,224.564 67.794,224.351 67.465 C 224.007 66.933,223.967 66.933,223.986 67.465 M134.289 72.854 C 134.290 75.928,134.353 77.133,134.428 75.531 C 134.504 73.930,134.504 71.415,134.427 69.943 C 134.351 68.470,134.289 69.780,134.289 72.854 M265.207 72.854 C 265.208 74.611,265.278 75.280,265.363 74.341 C 265.447 73.402,265.446 71.965,265.360 71.147 C 265.274 70.330,265.205 71.098,265.207 72.854 M224.471 72.655 C 224.471 73.862,224.546 74.356,224.637 73.752 C 224.729 73.149,224.729 72.161,224.637 71.557 C 224.546 70.953,224.471 71.447,224.471 72.655 M224.398 76.514 C 224.372 76.771,224.235 77.310,224.093 77.712 C 223.892 78.279,223.946 78.341,224.330 77.987 C 224.602 77.735,224.740 77.196,224.635 76.789 C 224.530 76.381,224.423 76.258,224.398 76.514 M175.250 77.944 C 175.250 78.302,175.441 78.714,175.675 78.859 C 176.360 79.282,176.427 78.903,175.816 78.067 C 175.342 77.419,175.250 77.399,175.250 77.944 M134.144 79.261 C 134.137 79.492,134.298 79.851,134.500 80.060 C 134.703 80.268,134.945 80.978,135.039 81.637 L 135.210 82.834 135.270 81.613 C 135.302 80.942,135.066 80.043,134.743 79.617 C 134.421 79.191,134.151 79.031,134.144 79.261 M177.612 83.295 C 178.069 83.988,178.443 84.920,178.443 85.367 C 178.443 85.815,178.590 86.271,178.770 86.383 C 179.500 86.833,178.700 84.272,177.775 83.194 L 176.780 82.036 177.612 83.295 M134.942 83.761 C 134.936 84.271,135.223 84.981,135.582 85.339 C 136.184 85.942,136.210 85.917,135.933 85.011 C 135.399 83.274,134.956 82.714,134.942 83.761 M220.778 85.606 C 220.506 85.933,220.376 86.431,220.490 86.713 C 220.624 87.049,220.706 86.996,220.727 86.560 C 220.744 86.194,220.983 85.815,221.257 85.717 C 221.532 85.619,221.647 85.420,221.514 85.275 C 221.381 85.129,221.049 85.278,220.778 85.606 M263.138 87.692 C 263.103 88.388,262.970 89.286,262.844 89.688 C 262.627 90.378,262.640 90.379,263.068 89.712 C 263.318 89.323,263.450 88.425,263.362 87.716 L 263.202 86.427 263.138 87.692 M181.699 89.802 C 182.636 90.890,183.500 91.674,183.618 91.544 C 183.736 91.414,183.608 91.228,183.333 91.130 C 183.059 91.032,182.834 90.761,182.834 90.529 C 182.834 90.100,180.635 87.824,180.221 87.824 C 180.097 87.824,180.762 88.714,181.699 89.802 M136.527 90.595 C 136.527 90.802,136.707 91.082,136.926 91.218 C 137.146 91.353,137.332 91.948,137.339 92.539 C 137.347 93.129,137.610 94.062,137.924 94.611 C 138.577 95.753,138.702 95.487,138.149 94.131 C 137.944 93.626,137.666 92.540,137.532 91.717 C 137.322 90.423,136.527 89.536,136.527 90.595 M216.569 91.016 C 216.170 91.456,215.975 91.816,216.134 91.816 C 216.555 91.816,217.693 90.614,217.477 90.398 C 217.376 90.297,216.968 90.575,216.569 91.016 M184.886 92.580 C 185.404 93.001,185.905 93.268,185.999 93.175 C 186.204 92.971,184.774 91.847,184.287 91.829 C 184.098 91.822,184.368 92.160,184.886 92.580 M261.635 94.112 C 261.516 94.496,261.223 95.170,260.985 95.609 C 260.596 96.324,260.620 96.350,261.213 95.859 C 261.578 95.558,261.876 94.989,261.876 94.595 C 261.876 94.201,262.101 93.788,262.375 93.678 C 262.766 93.520,262.763 93.469,262.363 93.445 C 262.081 93.427,261.754 93.728,261.635 94.112 M194.810 97.006 C 196.237 97.463,196.806 97.463,196.806 97.006 C 196.806 96.786,196.133 96.625,195.309 96.647 C 193.973 96.682,193.920 96.721,194.810 97.006 M202.794 97.006 C 202.794 97.466,203.753 97.466,205.190 97.006 C 206.037 96.734,205.932 96.680,204.491 96.647 C 203.558 96.625,202.794 96.786,202.794 97.006 M260.165 97.089 C 260.048 97.372,259.665 98.278,259.312 99.102 C 258.960 99.925,258.756 100.599,258.858 100.599 C 259.125 100.599,260.719 96.914,260.533 96.727 C 260.448 96.642,260.282 96.805,260.165 97.089 M198.908 97.692 C 199.514 97.783,200.413 97.781,200.904 97.686 C 201.395 97.591,200.898 97.516,199.800 97.519 C 198.703 97.522,198.301 97.600,198.908 97.692 M140.550 100.299 C 140.533 100.903,140.699 101.397,140.918 101.397 C 141.138 101.397,141.332 101.801,141.349 102.295 C 141.367 102.802,141.474 102.959,141.595 102.655 C 141.713 102.359,141.622 101.730,141.393 101.258 C 141.164 100.786,140.888 100.130,140.779 99.800 C 140.671 99.471,140.568 99.696,140.550 100.299 M258.338 101.873 C 258.308 102.463,258.104 103.058,257.884 103.194 C 257.665 103.329,257.485 103.649,257.485 103.905 C 257.485 104.160,257.767 103.967,258.111 103.476 C 258.455 102.985,258.659 102.181,258.564 101.690 C 258.415 100.917,258.385 100.941,258.338 101.873 M142.514 104.491 C 143.036 105.205,143.526 105.788,143.602 105.788 C 143.905 105.788,142.915 104.291,142.261 103.760 C 141.830 103.409,141.926 103.688,142.514 104.491 M143.721 106.394 C 143.726 106.610,144.082 107.236,144.511 107.784 C 144.940 108.333,145.310 109.052,145.332 109.381 C 145.358 109.766,145.442 109.808,145.568 109.500 C 145.675 109.235,145.301 108.340,144.738 107.511 C 144.174 106.681,143.717 106.179,143.721 106.394 M147.351 112.356 C 147.705 112.806,148.193 113.533,148.436 113.972 C 148.679 114.411,148.883 114.549,148.890 114.278 C 148.897 114.007,148.408 113.280,147.804 112.662 C 147.201 112.044,146.996 111.906,147.351 112.356 M251.483 113.274 C 251.182 113.878,250.872 114.506,250.794 114.671 C 250.715 114.835,250.842 114.970,251.074 114.970 C 251.307 114.970,251.497 114.647,251.497 114.251 C 251.497 113.856,251.710 113.320,251.969 113.061 C 252.229 112.801,252.349 112.496,252.236 112.383 C 252.123 112.269,251.784 112.671,251.483 113.274 M149.160 115.768 C 149.415 116.890,150.499 118.252,150.499 117.451 C 150.499 117.184,150.354 116.966,150.177 116.966 C 150.000 116.966,149.647 116.472,149.393 115.868 C 148.973 114.867,148.952 114.858,149.160 115.768 M248.161 119.171 C 247.606 120.164,247.323 120.871,247.534 120.741 C 247.953 120.482,249.624 117.365,249.344 117.365 C 249.248 117.365,248.716 118.178,248.161 119.171 M151.297 119.421 C 151.297 119.547,151.836 120.329,152.495 121.158 C 153.154 121.987,153.685 122.505,153.676 122.310 C 153.659 121.920,151.297 119.053,151.297 119.421 M155.289 126.692 C 155.289 126.771,155.828 127.514,156.487 128.343 C 157.146 129.172,157.685 129.674,157.685 129.458 C 157.685 129.242,157.325 128.741,156.886 128.343 C 156.447 127.946,156.088 127.379,156.088 127.084 C 156.088 126.789,155.908 126.547,155.689 126.547 C 155.469 126.547,155.289 126.612,155.289 126.692 M241.783 130.007 C 241.637 130.153,241.517 130.650,241.517 131.112 C 241.517 131.573,240.798 132.820,239.920 133.883 C 239.042 134.946,238.324 136.020,238.325 136.271 C 238.327 136.522,238.641 136.250,239.024 135.668 C 239.407 135.086,240.192 134.009,240.767 133.273 C 241.860 131.877,242.739 129.050,241.783 130.007 M162.475 139.086 C 162.475 139.249,163.194 140.386,164.072 141.613 C 166.057 144.384,166.190 144.053,164.236 141.208 C 162.602 138.830,162.475 138.677,162.475 139.086 M235.503 141.417 C 234.302 142.937,233.797 144.112,234.344 144.112 C 234.557 144.112,234.731 143.774,234.731 143.362 C 234.731 142.950,235.010 142.381,235.351 142.098 C 235.923 141.623,236.903 140.120,236.641 140.120 C 236.578 140.120,236.066 140.704,235.503 141.417 M168.536 149.501 C 168.786 150.050,169.145 150.499,169.335 150.499 C 169.524 150.499,169.385 150.050,169.025 149.501 C 168.666 148.952,168.306 148.503,168.226 148.503 C 168.146 148.503,168.286 148.952,168.536 149.501 M227.867 154.790 C 227.164 155.609,226.636 156.487,226.847 156.487 C 226.929 156.487,227.394 155.948,227.881 155.289 C 228.843 153.988,228.834 153.664,227.867 154.790 M174.251 159.281 C 174.592 159.940,174.961 160.479,175.070 160.479 C 175.180 160.479,174.991 159.940,174.651 159.281 C 174.310 158.623,173.942 158.084,173.832 158.084 C 173.722 158.084,173.911 158.623,174.251 159.281 M222.590 163.703 C 222.022 164.379,221.562 165.142,221.569 165.400 C 221.576 165.657,221.780 165.509,222.023 165.070 C 222.266 164.631,222.830 163.867,223.278 163.373 C 223.725 162.879,223.986 162.475,223.858 162.475 C 223.729 162.475,223.159 163.028,222.590 163.703 M212.479 181.112 C 211.794 182.588,212.070 182.660,212.918 181.225 C 213.303 180.573,213.473 180.041,213.296 180.043 C 213.119 180.045,212.751 180.526,212.479 181.112 M189.007 185.130 C 189.623 186.063,190.197 186.826,190.283 186.826 C 190.615 186.826,189.239 184.544,188.581 184.003 C 188.189 183.681,188.374 184.170,189.007 185.130 M207.039 191.317 L 206.321 192.615 207.143 191.617 C 207.873 190.732,208.197 190.020,207.871 190.020 C 207.808 190.020,207.434 190.604,207.039 191.317 M201.383 200.898 L 200.750 202.196 201.564 201.198 C 202.347 200.237,202.603 199.601,202.206 199.601 C 202.102 199.601,201.732 200.185,201.383 200.898 M198.802 202.196 C 199.076 202.525,199.682 202.770,200.149 202.740 C 200.962 202.688,200.960 202.678,200.100 202.513 C 199.606 202.418,199.202 202.173,199.202 201.968 C 199.202 201.764,199.000 201.597,198.754 201.597 C 198.444 201.597,198.459 201.782,198.802 202.196 " stroke="none" fill="#e66e62" fill-rule="evenodd"></path><path id="path4" d="M192.131 7.757 C 190.108 8.012,188.312 8.368,188.139 8.548 C 187.966 8.728,188.363 8.771,189.022 8.642 C 192.565 7.951,199.130 7.502,202.994 7.687 C 205.846 7.824,206.756 7.783,205.589 7.571 C 203.081 7.116,196.503 7.207,192.131 7.757 M209.182 8.387 C 210.170 8.549,211.876 8.870,212.974 9.099 C 214.071 9.328,215.036 9.449,215.117 9.368 C 215.198 9.287,214.749 9.114,214.119 8.983 C 213.489 8.853,212.324 8.575,211.531 8.365 C 210.737 8.156,209.479 8.008,208.736 8.037 C 207.512 8.086,207.553 8.118,209.182 8.387 M184.830 9.203 C 184.401 9.495,184.684 9.535,185.828 9.343 C 187.809 9.012,188.127 8.780,186.593 8.789 C 185.953 8.792,185.160 8.978,184.830 9.203 M182.236 9.980 C 182.100 10.200,181.381 10.379,180.639 10.379 C 179.896 10.379,179.178 10.559,179.042 10.778 C 178.906 10.998,178.418 11.178,177.958 11.178 C 177.497 11.178,175.346 12.076,173.177 13.174 C 171.008 14.271,168.881 15.170,168.450 15.170 C 168.019 15.170,166.903 15.888,165.971 16.766 C 165.039 17.645,164.061 18.363,163.798 18.363 C 163.535 18.363,163.220 18.526,163.097 18.725 C 162.562 19.591,164.613 18.538,166.224 17.120 C 167.194 16.267,168.273 15.569,168.624 15.569 C 168.974 15.569,170.876 14.742,172.851 13.731 C 176.140 12.047,177.672 11.480,180.439 10.920 C 180.988 10.809,181.796 10.565,182.236 10.378 C 182.675 10.191,183.303 9.950,183.633 9.841 C 184.011 9.717,183.909 9.632,183.357 9.612 C 182.876 9.595,182.371 9.760,182.236 9.980 M217.964 10.535 C 217.964 10.621,218.580 10.763,219.333 10.851 C 220.086 10.939,220.615 10.869,220.507 10.695 C 220.314 10.382,217.964 10.235,217.964 10.535 M222.667 11.765 C 223.607 12.058,224.609 12.492,224.894 12.728 C 225.431 13.174,228.694 14.612,228.343 14.248 C 227.690 13.571,222.595 11.182,221.851 11.204 C 221.287 11.221,221.589 11.428,222.667 11.765 M229.365 14.957 C 229.791 15.280,230.512 15.549,230.966 15.556 C 231.421 15.563,232.498 16.172,233.361 16.909 C 234.224 17.646,235.649 18.615,236.527 19.062 C 237.405 19.510,238.995 20.687,240.060 21.680 C 242.835 24.266,245.131 26.060,245.364 25.827 C 245.475 25.716,244.751 25.066,243.755 24.381 C 242.760 23.696,241.804 22.891,241.632 22.592 C 241.217 21.874,237.934 19.393,236.258 18.530 C 235.528 18.154,234.224 17.244,233.361 16.508 C 232.498 15.772,231.386 15.170,230.890 15.170 C 230.393 15.170,229.876 14.990,229.741 14.770 C 229.605 14.551,229.290 14.371,229.042 14.371 C 228.793 14.371,228.939 14.635,229.365 14.957 M159.666 21.186 L 158.283 22.413 159.880 21.302 C 160.758 20.692,161.552 20.140,161.643 20.076 C 161.735 20.012,161.638 19.960,161.429 19.960 C 161.219 19.960,160.426 20.512,159.666 21.186 M156.387 23.960 C 155.344 24.615,154.491 25.344,154.491 25.580 C 154.491 25.816,154.985 25.628,155.589 25.163 C 156.193 24.698,157.136 23.971,157.685 23.549 C 159.165 22.410,158.541 22.608,156.387 23.960 M152.066 28.444 C 150.843 29.596,150.296 30.180,150.851 29.741 C 152.374 28.537,154.718 26.355,154.491 26.351 C 154.381 26.350,153.290 27.292,152.066 28.444 M245.509 26.527 C 245.509 26.901,249.977 31.194,250.168 31.003 C 250.229 30.942,249.205 29.831,247.894 28.533 C 246.582 27.235,245.509 26.332,245.509 26.527 M147.541 33.569 C 146.502 34.908,145.733 36.086,145.834 36.187 C 145.935 36.288,146.859 35.265,147.886 33.914 C 148.914 32.563,149.682 31.385,149.593 31.296 C 149.504 31.208,148.581 32.230,147.541 33.569 M251.165 32.886 C 251.677 33.675,252.243 34.324,252.422 34.326 C 252.793 34.332,251.279 32.095,250.648 31.705 C 250.421 31.565,250.654 32.096,251.165 32.886 M254.532 37.857 C 255.061 38.917,255.986 40.219,256.589 40.751 L 257.685 41.717 256.831 40.719 C 256.362 40.170,255.601 38.969,255.141 38.051 C 254.680 37.133,254.138 36.280,253.937 36.156 C 253.736 36.031,254.004 36.797,254.532 37.857 M259.083 46.507 C 259.063 47.107,261.248 51.187,261.379 50.794 C 261.441 50.607,260.953 49.476,260.294 48.281 C 259.635 47.086,259.090 46.287,259.083 46.507 M137.104 55.267 C 136.953 56.068,136.930 56.824,137.052 56.946 C 137.174 57.068,137.397 56.512,137.547 55.711 C 137.697 54.910,137.721 54.154,137.599 54.032 C 137.477 53.910,137.254 54.466,137.104 55.267 M262.275 55.599 C 262.275 56.171,262.462 56.755,262.691 56.896 C 262.963 57.064,263.012 56.763,262.834 56.021 C 262.467 54.492,262.275 54.347,262.275 55.599 M136.145 59.281 C 135.869 60.379,135.586 62.176,135.518 63.273 C 135.449 64.371,135.471 64.820,135.566 64.271 C 135.661 63.723,136.024 62.159,136.372 60.797 C 136.720 59.435,136.924 58.087,136.826 57.803 C 136.727 57.518,136.421 58.184,136.145 59.281 M263.108 59.281 C 263.096 59.721,263.260 60.349,263.473 60.679 C 263.986 61.472,263.986 60.475,263.473 59.281 L 263.130 58.483 263.108 59.281 M263.878 63.506 C 263.882 64.476,264.066 65.539,264.287 65.868 C 264.567 66.286,264.610 65.802,264.426 64.271 C 264.097 61.524,263.870 61.207,263.878 63.506 M134.563 66.207 C 133.911 67.425,134.046 67.765,134.771 66.730 C 135.123 66.228,135.317 65.723,135.203 65.609 C 135.088 65.494,134.801 65.764,134.563 66.207 M264.828 72.854 C 264.829 75.928,264.891 77.133,264.967 75.531 C 265.043 73.930,265.043 71.415,264.966 69.943 C 264.890 68.470,264.828 69.780,264.828 72.854 M134.144 78.543 C 134.151 78.708,134.421 79.191,134.743 79.617 C 135.066 80.043,135.332 81.031,135.335 81.813 C 135.338 82.594,135.695 84.311,136.130 85.629 C 136.564 86.946,136.828 87.485,136.716 86.826 C 136.153 83.506,135.352 79.563,135.113 78.942 C 134.850 78.256,134.120 77.955,134.144 78.543 M264.145 79.993 C 263.995 80.384,263.890 81.273,263.912 81.969 C 263.951 83.201,263.962 83.193,264.320 81.664 C 264.716 79.977,264.595 78.822,264.145 79.993 M136.982 89.022 C 136.982 89.571,137.137 90.379,137.325 90.818 C 137.638 91.546,137.668 91.528,137.668 90.619 C 137.668 90.070,137.514 89.261,137.325 88.822 C 137.013 88.095,136.982 88.112,136.982 89.022 M262.524 88.838 C 262.387 89.195,262.292 89.876,262.311 90.352 C 262.337 90.965,262.460 90.827,262.733 89.876 C 263.131 88.495,262.968 87.683,262.524 88.838 M260.165 96.339 C 258.715 99.301,258.798 99.743,260.294 97.028 C 260.953 95.833,261.437 94.691,261.371 94.491 C 261.304 94.290,260.761 95.122,260.165 96.339 M141.717 102.666 C 141.717 102.998,142.104 103.612,142.577 104.030 L 143.437 104.790 142.698 103.593 C 141.691 101.962,141.717 101.987,141.717 102.666 M255.959 105.233 C 254.696 107.183,255.027 107.271,256.383 105.345 C 256.985 104.491,257.344 103.795,257.182 103.797 C 257.019 103.800,256.469 104.446,255.959 105.233 M143.912 106.188 C 144.253 106.846,144.621 107.385,144.731 107.385 C 144.841 107.385,144.652 106.846,144.311 106.188 C 143.971 105.529,143.602 104.990,143.492 104.990 C 143.383 104.990,143.572 105.529,143.912 106.188 M145.709 109.410 C 145.709 109.732,146.427 110.864,147.305 111.927 C 148.184 112.990,148.902 113.671,148.902 113.440 C 148.902 113.210,148.705 112.899,148.464 112.750 C 148.223 112.601,147.504 111.657,146.867 110.653 C 146.230 109.648,145.709 109.089,145.709 109.410 M249.301 116.567 C 248.902 117.009,248.664 117.460,248.774 117.570 C 248.884 117.680,249.301 117.408,249.701 116.966 C 250.100 116.524,250.338 116.073,250.228 115.963 C 250.118 115.853,249.701 116.125,249.301 116.567 M150.499 117.526 C 150.499 117.944,152.819 121.264,153.333 121.581 C 153.569 121.727,153.092 120.883,152.274 119.705 C 150.502 117.156,150.499 117.152,150.499 117.526 M246.904 120.561 C 246.505 121.002,246.274 121.457,246.389 121.572 C 246.504 121.687,246.896 121.327,247.261 120.771 C 248.056 119.557,247.898 119.463,246.904 120.561 M244.729 124.728 C 243.851 125.786,241.498 129.855,241.667 130.024 C 241.757 130.113,242.402 129.188,243.101 127.966 C 243.800 126.744,244.649 125.468,244.988 125.129 C 245.327 124.790,245.518 124.427,245.414 124.323 C 245.309 124.218,245.001 124.400,244.729 124.728 M154.513 124.750 C 154.518 125.279,155.631 126.738,155.857 126.512 C 155.954 126.415,155.690 125.889,155.271 125.343 C 154.852 124.798,154.510 124.531,154.513 124.750 M240.570 132.436 C 240.258 133.040,239.624 133.877,239.163 134.294 C 238.701 134.712,238.323 135.225,238.323 135.435 C 238.323 135.644,239.042 134.946,239.920 133.883 C 241.389 132.106,241.814 131.337,241.328 131.337 C 241.223 131.337,240.883 131.832,240.570 132.436 M159.838 133.987 C 160.182 134.396,160.753 135.090,161.106 135.529 C 161.568 136.104,161.541 135.945,161.010 134.962 C 160.604 134.211,160.034 133.518,159.742 133.420 C 159.366 133.295,159.394 133.459,159.838 133.987 M166.467 145.830 C 166.467 146.202,166.608 146.507,166.780 146.507 C 166.952 146.507,167.419 147.058,167.817 147.732 C 168.215 148.406,168.635 148.864,168.750 148.749 C 168.865 148.634,168.398 147.778,167.713 146.846 C 166.941 145.796,166.467 145.410,166.467 145.830 M232.217 146.614 C 231.631 147.324,231.154 148.174,231.157 148.503 C 231.161 148.918,231.298 148.856,231.604 148.303 C 231.846 147.864,232.411 147.102,232.857 146.608 C 233.304 146.115,233.582 145.625,233.476 145.518 C 233.369 145.412,232.803 145.905,232.217 146.614 M169.512 150.299 C 169.961 150.958,170.452 151.837,170.603 152.253 C 170.754 152.668,170.976 152.910,171.097 152.789 C 171.407 152.479,170.252 150.353,169.403 149.672 C 168.820 149.203,168.839 149.314,169.512 150.299 M172.669 156.177 C 173.515 157.433,174.275 158.393,174.358 158.310 C 174.584 158.084,172.669 155.165,171.848 154.485 C 171.454 154.159,171.823 154.920,172.669 156.177 M226.162 156.721 C 225.790 157.289,225.576 157.845,225.687 157.956 C 225.798 158.067,226.177 157.602,226.528 156.923 C 227.304 155.422,227.090 155.304,226.162 156.721 M174.970 160.180 C 175.217 160.893,176.100 162.392,176.931 163.510 C 177.763 164.628,178.447 165.796,178.452 166.105 C 178.457 166.414,178.817 167.116,179.253 167.665 C 180.007 168.615,180.004 168.566,179.197 166.667 C 178.731 165.569,177.933 164.222,177.424 163.673 C 176.915 163.124,176.134 161.821,175.689 160.778 C 174.767 158.622,174.293 158.227,174.970 160.180 M223.636 161.588 C 223.133 162.405,222.280 163.684,221.740 164.430 C 221.200 165.176,220.766 166.075,220.775 166.426 C 220.784 166.778,221.188 166.313,221.673 165.392 C 222.158 164.472,223.066 163.085,223.690 162.311 C 224.315 161.537,224.764 160.724,224.688 160.503 C 224.613 160.282,224.139 160.771,223.636 161.588 M218.629 170.126 C 217.583 171.678,216.811 173.032,216.914 173.135 C 217.017 173.238,217.321 172.902,217.591 172.389 C 217.860 171.877,218.324 171.313,218.621 171.138 C 218.918 170.962,219.162 170.631,219.162 170.401 C 219.162 170.171,219.541 169.451,220.004 168.801 C 220.467 168.151,220.775 167.548,220.689 167.462 C 220.603 167.376,219.676 168.575,218.629 170.126 M180.040 169.110 C 180.040 169.320,180.583 170.113,181.247 170.873 L 182.455 172.255 181.424 170.669 C 180.204 168.791,180.040 168.606,180.040 169.110 M216.367 174.478 C 216.367 174.712,215.899 175.565,215.326 176.374 L 214.286 177.844 215.526 176.462 C 216.623 175.240,217.136 174.052,216.567 174.052 C 216.457 174.052,216.367 174.244,216.367 174.478 M183.250 174.891 C 183.259 175.198,183.798 176.071,184.447 176.831 C 185.097 177.591,185.629 178.417,185.629 178.666 C 185.629 178.914,185.994 179.448,186.440 179.852 C 187.117 180.464,187.079 180.292,186.212 178.816 C 184.629 176.120,183.232 174.269,183.250 174.891 M213.454 179.081 C 213.060 179.608,212.882 180.040,213.059 180.040 C 213.407 180.040,214.509 178.444,214.299 178.244 C 214.229 178.177,213.849 178.554,213.454 179.081 M188.030 182.885 C 188.027 183.243,188.307 183.770,188.652 184.056 C 188.997 184.343,189.639 185.280,190.077 186.140 C 190.515 186.999,190.964 187.612,191.075 187.502 C 191.185 187.391,190.768 186.540,190.149 185.609 C 189.529 184.679,188.800 183.539,188.529 183.077 C 188.150 182.430,188.034 182.386,188.030 182.885 M210.513 184.352 C 209.036 186.590,208.679 187.226,208.902 187.226 C 209.163 187.226,212.051 182.776,211.893 182.618 C 211.816 182.541,211.195 183.321,210.513 184.352 M191.230 188.129 C 191.223 188.297,191.382 188.746,191.583 189.127 C 191.784 189.508,192.229 190.449,192.571 191.218 C 192.913 191.986,193.614 193.006,194.128 193.484 C 194.642 193.962,195.292 195.049,195.573 195.899 C 195.853 196.748,196.427 197.884,196.848 198.422 C 197.338 199.049,197.155 198.396,196.340 196.607 C 195.639 195.070,194.469 193.106,193.740 192.244 C 193.012 191.381,192.415 190.382,192.415 190.024 C 192.415 189.387,191.255 187.531,191.230 188.129 M206.879 190.745 C 206.388 191.554,205.684 192.665,205.313 193.214 C 204.643 194.208,204.643 194.209,205.427 193.413 C 206.376 192.449,208.136 189.639,207.923 189.427 C 207.840 189.343,207.370 189.937,206.879 190.745 M202.521 198.324 C 201.836 199.356,201.064 200.618,200.806 201.129 C 200.528 201.682,200.108 201.970,199.770 201.840 C 199.457 201.720,199.202 201.796,199.202 202.009 C 199.202 202.221,199.561 202.395,200.000 202.395 C 200.439 202.395,200.798 202.243,200.798 202.058 C 200.798 201.872,201.526 200.594,202.416 199.218 C 203.306 197.841,203.974 196.655,203.901 196.582 C 203.828 196.509,203.207 197.293,202.521 198.324 " stroke="none" fill="#e76454" fill-rule="evenodd"></path></g></svg>